<svg width="122" height="32" viewBox="0 0 122 32" fill="none" xmlns="http://www.w3.org/2000/svg">
<path d="M18.8479 14.8694C18.8163 11.337 21.717 9.61846 21.8496 9.53845C20.2069 7.12396 17.6606 6.79406 16.7659 6.76776C14.6273 6.54089 12.553 8.05775 11.4636 8.05775C10.3525 8.05775 8.6749 6.78968 6.86688 6.82694C4.54026 6.86311 2.36368 8.22106 1.16993 10.3298C-1.29367 14.6294 0.543706 20.9478 2.90402 24.4232C4.08473 26.1253 5.46439 28.0258 7.27023 27.9589C9.03694 27.8855 9.69687 26.8235 11.8289 26.8235C13.9413 26.8235 14.561 27.9589 16.4027 27.9162C18.2988 27.8855 19.4926 26.2064 20.632 24.489C21.9964 22.5381 22.5443 20.6168 22.5661 20.5182C22.5215 20.5028 18.8837 19.1033 18.8479 14.8694Z" fill="white"/>
<path d="M15.3697 4.48155C16.3199 3.28362 16.9701 1.65387 16.7896 0C15.4143 0.0613761 13.6943 0.959001 12.7039 2.13063C11.8276 3.16306 11.0448 4.85528 11.247 6.44668C12.7919 6.56285 14.3782 5.66084 15.3697 4.48155Z" fill="white"/>
<path d="M47.5155 27.7145H45.0465L43.694 23.4302H38.9929L37.7046 27.7145H35.3008L39.9584 13.1289H42.8351L47.5155 27.7145ZM43.2863 21.6328L42.0632 17.8242C41.9338 17.4351 41.6914 16.5188 41.3337 15.0765H41.2902C41.1478 15.6968 40.9184 16.6131 40.6031 17.8242L39.4017 21.6328H43.2863Z" fill="white"/>
<path d="M59.4922 22.3266C59.4922 24.1153 59.0127 25.5292 58.0538 26.5671C57.1949 27.491 56.1283 27.9524 54.8552 27.9524C53.481 27.9524 52.4938 27.4548 51.8926 26.4597H51.8491V32H49.5312V20.6596C49.5312 19.5351 49.5018 18.381 49.4453 17.1974H51.4838L51.6132 18.8644H51.6567C52.4297 17.6084 53.6028 16.9814 55.177 16.9814C56.4078 16.9814 57.4352 17.4714 58.2571 18.4523C59.0812 19.4343 59.4922 20.7254 59.4922 22.3266ZM57.1308 22.4121C57.1308 21.3885 56.9024 20.5445 56.4436 19.8804C55.9424 19.1877 55.2695 18.8414 54.4258 18.8414C53.8539 18.8414 53.3342 19.0343 52.87 19.4146C52.4047 19.7982 52.1003 20.299 51.9578 20.9194C51.8861 21.2087 51.8502 21.4455 51.8502 21.6318V23.3854C51.8502 24.1504 52.0829 24.7959 52.5482 25.3231C53.0135 25.8503 53.618 26.1133 54.3616 26.1133C55.2347 26.1133 55.9142 25.7736 56.4001 25.0962C56.8872 24.4178 57.1308 23.5235 57.1308 22.4121Z" fill="white"/>
<path d="M71.4911 22.3266C71.4911 24.1153 71.0116 25.5292 70.0516 26.5671C69.1938 27.491 68.1273 27.9524 66.8541 27.9524C65.4799 27.9524 64.4927 27.4548 63.8926 26.4597H63.8491V32H61.5312V20.6596C61.5312 19.5351 61.5018 18.381 61.4453 17.1974H63.4838L63.6132 18.8644H63.6567C64.4286 17.6084 65.6017 16.9814 67.1771 16.9814C68.4067 16.9814 69.4341 17.4714 70.2582 18.4523C71.079 19.4343 71.4911 20.7254 71.4911 22.3266ZM69.1297 22.4121C69.1297 21.3885 68.9003 20.5445 68.4415 19.8804C67.9403 19.1877 67.2695 18.8414 66.4247 18.8414C65.8517 18.8414 65.3332 19.0343 64.8678 19.4146C64.4025 19.7982 64.0992 20.299 63.9567 20.9194C63.8861 21.2087 63.8491 21.4455 63.8491 21.6318V23.3854C63.8491 24.1504 64.0818 24.7959 64.5449 25.3231C65.0102 25.8492 65.6147 26.1133 66.3606 26.1133C67.2336 26.1133 67.9131 25.7736 68.3991 25.0962C68.8861 24.4178 69.1297 23.5235 69.1297 22.4121Z" fill="white"/>
<path d="M84.9095 23.6243C84.9095 24.865 84.4823 25.8744 83.6245 26.6537C82.6819 27.5052 81.3696 27.9305 79.6834 27.9305C78.1265 27.9305 76.8784 27.628 75.9336 27.0219L76.4707 25.0743C77.4883 25.6947 78.6049 26.0059 79.8214 26.0059C80.6945 26.0059 81.374 25.8064 81.8621 25.4097C82.3481 25.0129 82.5905 24.4803 82.5905 23.8161C82.5905 23.2243 82.3905 22.7256 81.9893 22.3212C81.5903 21.9167 80.9239 21.5408 79.9932 21.1934C77.46 20.241 76.1945 18.8457 76.1945 17.011C76.1945 15.812 76.6381 14.8289 77.5264 14.0639C78.4113 13.2978 79.592 12.9153 81.0685 12.9153C82.3851 12.9153 83.4788 13.1465 84.3518 13.608L83.7723 15.5128C82.9569 15.0656 82.035 14.8421 81.0032 14.8421C80.1878 14.8421 79.5507 15.0448 79.0941 15.4481C78.7081 15.8087 78.5146 16.2482 78.5146 16.7688C78.5146 17.3453 78.7353 17.8221 79.1789 18.1969C79.5649 18.5432 80.2661 18.9181 81.2837 19.3225C82.5286 19.8278 83.4429 20.4185 84.0311 21.0958C84.6171 21.771 84.9095 22.616 84.9095 23.6243Z" fill="white"/>
<path d="M92.5724 18.9508H90.0174V24.0571C90.0174 25.3558 90.4675 26.0047 91.3699 26.0047C91.7841 26.0047 92.1277 25.9685 92.3995 25.8962L92.4636 27.6706C92.007 27.8427 91.4058 27.9292 90.6611 27.9292C89.7456 27.9292 89.0303 27.6476 88.5138 27.0853C87.9996 26.522 87.7408 25.5772 87.7408 24.25V18.9486H86.2188V17.195H87.7408V15.2693L90.0174 14.5767V17.195H92.5724V18.9508Z" fill="white"/>
<path d="M104.101 22.3695C104.101 23.9861 103.643 25.3134 102.727 26.3513C101.767 27.4199 100.493 27.9525 98.9046 27.9525C97.3738 27.9525 96.1551 27.4407 95.2462 26.417C94.3373 25.3934 93.8828 24.1012 93.8828 22.5438C93.8828 20.914 94.3503 19.5791 95.2886 18.5412C96.2246 17.5022 97.488 16.9827 99.0764 16.9827C100.607 16.9827 101.839 17.4945 102.769 18.5193C103.658 19.5133 104.101 20.7968 104.101 22.3695ZM101.697 22.4451C101.697 21.4752 101.491 20.6433 101.075 19.9495C100.589 19.11 99.894 18.6913 98.9937 18.6913C98.062 18.6913 97.3543 19.1111 96.8683 19.9495C96.4519 20.6444 96.2464 21.4894 96.2464 22.489C96.2464 23.4589 96.4519 24.2908 96.8683 24.9835C97.3695 25.823 98.0696 26.2417 98.9731 26.2417C99.8581 26.2417 100.553 25.8142 101.054 24.9616C101.481 24.2546 101.697 23.414 101.697 22.4451Z" fill="white"/>
<path d="M111.632 19.2524C111.403 19.2096 111.158 19.1877 110.902 19.1877C110.086 19.1877 109.456 19.4979 109.012 20.1193C108.626 20.6673 108.433 21.36 108.433 22.1962V27.7146H106.116L106.138 20.5095C106.138 19.2973 106.108 18.1936 106.051 17.1985H108.07L108.155 19.2107H108.219C108.463 18.5191 108.849 17.9624 109.378 17.5448C109.894 17.1689 110.452 16.9814 111.053 16.9814C111.267 16.9814 111.461 16.9968 111.632 17.0242V19.2524Z" fill="white"/>
<path d="M121.998 21.9583C121.998 22.377 121.971 22.7299 121.913 23.0182H114.96C114.987 24.0572 115.323 24.8518 115.969 25.3998C116.555 25.8897 117.312 26.1352 118.243 26.1352C119.273 26.1352 120.212 25.9697 121.057 25.6376L121.42 27.2597C120.433 27.6937 119.267 27.9096 117.922 27.9096C116.305 27.9096 115.035 27.4296 114.111 26.4706C113.189 25.5116 112.727 24.2238 112.727 22.6083C112.727 21.0224 113.156 19.7017 114.016 18.6484C114.916 17.5239 116.133 16.9617 117.664 16.9617C119.167 16.9617 120.305 17.5239 121.078 18.6484C121.691 19.5417 121.998 20.6464 121.998 21.9583ZM119.788 21.3522C119.803 20.6596 119.652 20.0612 119.338 19.5559C118.937 18.906 118.32 18.5816 117.491 18.5816C116.733 18.5816 116.116 18.8983 115.646 19.534C115.26 20.0392 115.03 20.6453 114.96 21.3512H119.788V21.3522Z" fill="white"/>
<path d="M41.1434 4.15586C41.1434 5.44585 40.7596 6.41691 39.9932 7.06903C39.2832 7.67074 38.2743 7.97214 36.9675 7.97214C36.3195 7.97214 35.765 7.94364 35.3008 7.88665V0.838265C35.9064 0.739625 36.5587 0.689209 37.2632 0.689209C38.508 0.689209 39.4463 0.962113 40.079 1.50792C40.7879 2.12497 41.1434 3.00725 41.1434 4.15586ZM39.9421 4.18764C39.9421 3.3514 39.7224 2.71023 39.2832 2.26307C38.844 1.81699 38.2025 1.59341 37.3578 1.59341C36.999 1.59341 36.6935 1.61752 36.4402 1.66794V7.02629C36.5804 7.04821 36.837 7.05807 37.2099 7.05807C38.0818 7.05807 38.7548 6.81366 39.2288 6.32485C39.7029 5.83603 39.9421 5.12363 39.9421 4.18764Z" fill="white"/>
<path d="M47.5118 5.28246C47.5118 6.07707 47.2867 6.72809 46.8366 7.23883C46.3648 7.76381 45.7397 8.02576 44.9591 8.02576C44.2067 8.02576 43.6077 7.77477 43.1608 7.27061C42.7151 6.76755 42.4922 6.13296 42.4922 5.36795C42.4922 4.56787 42.7216 3.91137 43.1826 3.40173C43.6435 2.89209 44.2632 2.63672 45.0439 2.63672C45.7962 2.63672 46.4007 2.8877 46.8584 3.39077C47.2933 3.87958 47.5118 4.51088 47.5118 5.28246ZM46.33 5.31973C46.33 4.84297 46.2278 4.43416 46.0245 4.0933C45.7853 3.68121 45.445 3.47516 45.0025 3.47516C44.5448 3.47516 44.1969 3.68121 43.9577 4.0933C43.7533 4.43416 43.6522 4.84954 43.6522 5.34055C43.6522 5.81731 43.7544 6.22612 43.9577 6.56698C44.2045 6.97907 44.5481 7.18512 44.9917 7.18512C45.4265 7.18512 45.7679 6.97579 46.0136 6.55602C46.2246 6.20859 46.33 5.79649 46.33 5.31973Z" fill="white"/>
<path d="M56.0545 2.7417L54.4509 7.90825H53.4072L52.7429 5.66473C52.5744 5.10468 52.4374 4.54791 52.3308 3.99552H52.3102C52.2112 4.56325 52.0743 5.11893 51.8981 5.66473L51.1925 7.90825H50.1369L48.6289 2.7417H49.7998L50.3793 5.19784C50.5195 5.77872 50.6348 6.3322 50.7272 6.85609H50.7479C50.8327 6.42426 50.9729 5.87407 51.1708 5.2088L51.8981 2.7428H52.8266L53.5235 5.15619C53.692 5.74474 53.829 6.31138 53.9345 6.85718H53.966C54.0432 6.32562 54.1595 5.75899 54.3139 5.15619L54.9358 2.7428H56.0545V2.7417Z" fill="white"/>
<path d="M61.9611 7.90835H60.8217V4.94915C60.8217 4.03728 60.4781 3.58134 59.7888 3.58134C59.4507 3.58134 59.1778 3.70629 58.9658 3.95727C58.756 4.20825 58.6495 4.50417 58.6495 4.84284V7.90726H57.5101V4.21812C57.5101 3.76437 57.4959 3.27227 57.4688 2.73961H58.4701L58.5233 3.54737H58.5549C58.6875 3.29638 58.8854 3.08924 59.1452 2.92374C59.454 2.73085 59.7997 2.6333 60.1781 2.6333C60.6564 2.6333 61.0543 2.78893 61.3707 3.10129C61.7643 3.4838 61.9611 4.05481 61.9611 4.81325V7.90835Z" fill="white"/>
<path d="M65.1024 7.90854H63.9648V0.371338H65.1024V7.90854Z" fill="white"/>
<path d="M71.8126 5.28246C71.8126 6.07707 71.5875 6.72809 71.1374 7.23883C70.6656 7.76381 70.0394 8.02576 69.2598 8.02576C68.5064 8.02576 67.9073 7.77477 67.4616 7.27061C67.0158 6.76755 66.793 6.13296 66.793 5.36795C66.793 4.56787 67.0224 3.91137 67.4833 3.40173C67.9443 2.89209 68.564 2.63672 69.3435 2.63672C70.097 2.63672 70.7004 2.8877 71.1592 3.39077C71.5941 3.87958 71.8126 4.51088 71.8126 5.28246ZM70.6297 5.31973C70.6297 4.84297 70.5275 4.43416 70.3242 4.0933C70.0861 3.68121 69.7447 3.47516 69.3033 3.47516C68.8445 3.47516 68.4966 3.68121 68.2585 4.0933C68.0541 4.43416 67.953 4.84954 67.953 5.34055C67.953 5.81731 68.0552 6.22612 68.2585 6.56698C68.5053 6.97907 68.8489 7.18512 69.2925 7.18512C69.7273 7.18512 70.0676 6.97579 70.3133 6.55602C70.5253 6.20859 70.6297 5.79649 70.6297 5.31973Z" fill="white"/>
<path d="M77.3247 7.90848H76.3016L76.2168 7.31336H76.1853C75.8352 7.78792 75.3362 8.02576 74.6882 8.02576C74.2044 8.02576 73.813 7.86903 73.5184 7.55776C73.2509 7.27499 73.1172 6.92318 73.1172 6.5056C73.1172 5.87431 73.3781 5.39316 73.9032 5.05998C74.4273 4.72679 75.1644 4.56349 76.1135 4.57116V4.47471C76.1135 3.7941 75.7591 3.45434 75.0491 3.45434C74.5436 3.45434 74.0978 3.58257 73.713 3.83684L73.4814 3.08279C73.9576 2.78577 74.5458 2.63672 75.2394 2.63672C76.5788 2.63672 77.2507 3.34912 77.2507 4.77392V6.67658C77.2507 7.19279 77.2757 7.6038 77.3247 7.90848ZM76.1418 6.13296V5.33617C74.885 5.31425 74.2566 5.66168 74.2566 6.37737C74.2566 6.64699 74.3283 6.84865 74.4751 6.98346C74.6219 7.11827 74.8089 7.18512 75.0318 7.18512C75.2818 7.18512 75.5156 7.10511 75.7286 6.9462C75.9428 6.78618 76.0744 6.58342 76.1233 6.33463C76.1353 6.27873 76.1418 6.21078 76.1418 6.13296Z" fill="white"/>
<path d="M83.7987 7.90854H82.7876L82.7343 7.07886H82.7028C82.3799 7.71016 81.8297 8.02581 81.0567 8.02581C80.4392 8.02581 79.925 7.7814 79.5173 7.29259C79.1096 6.80377 78.9062 6.16918 78.9062 5.38993C78.9062 4.55368 79.127 3.87635 79.5705 3.35904C80 2.8768 80.5262 2.63568 81.1524 2.63568C81.8406 2.63568 82.3222 2.86912 82.5962 3.33712H82.618V0.371338H83.7584V6.51662C83.7584 7.01968 83.7715 7.48329 83.7987 7.90854ZM82.618 5.72969V4.86823C82.618 4.71917 82.6071 4.59861 82.5864 4.50655C82.5223 4.23036 82.3842 3.99801 82.1744 3.81059C81.9624 3.62317 81.7069 3.52892 81.4122 3.52892C80.9871 3.52892 80.6545 3.6988 80.4098 4.03965C80.1674 4.38051 80.0445 4.81562 80.0445 5.34718C80.0445 5.85792 80.1609 6.27221 80.3946 6.59114C80.6414 6.9309 80.9741 7.10078 81.3905 7.10078C81.7645 7.10078 82.0635 6.9594 82.2907 6.67554C82.5103 6.41359 82.618 6.09794 82.618 5.72969Z" fill="white"/>
<path d="M93.5431 5.28246C93.5431 6.07707 93.318 6.72809 92.8679 7.23883C92.3961 7.76381 91.772 8.02576 90.9903 8.02576C90.239 8.02576 89.64 7.77477 89.1921 7.27061C88.7463 6.76755 88.5234 6.13296 88.5234 5.36795C88.5234 4.56787 88.7528 3.91137 89.2138 3.40173C89.6748 2.89209 90.2945 2.63672 91.0762 2.63672C91.8274 2.63672 92.433 2.8877 92.8897 3.39077C93.3245 3.87958 93.5431 4.51088 93.5431 5.28246ZM92.3624 5.31973C92.3624 4.84297 92.2602 4.43416 92.0568 4.0933C91.8166 3.68121 91.4774 3.47516 91.0338 3.47516C90.5772 3.47516 90.2293 3.68121 89.989 4.0933C89.7846 4.43416 89.6835 4.84954 89.6835 5.34055C89.6835 5.81731 89.7857 6.22612 89.989 6.56698C90.2358 6.97907 90.5793 7.18512 91.0229 7.18512C91.4578 7.18512 91.8003 6.97579 92.046 6.55602C92.2558 6.20859 92.3624 5.79649 92.3624 5.31973Z" fill="white"/>
<path d="M99.6709 7.90835H98.5326V4.94915C98.5326 4.03728 98.1891 3.58134 97.4987 3.58134C97.1606 3.58134 96.8877 3.70629 96.6768 3.95727C96.4658 4.20825 96.3604 4.50417 96.3604 4.84284V7.90726H95.2199V4.21812C95.2199 3.76437 95.2069 3.27227 95.1797 2.73961H96.1799L96.2332 3.54737H96.2647C96.3984 3.29638 96.5963 3.08924 96.8551 2.92374C97.1649 2.73085 97.5096 2.6333 97.889 2.6333C98.3663 2.6333 98.7642 2.78893 99.0806 3.10129C99.4752 3.4838 99.6709 4.05481 99.6709 4.81325V7.90835Z" fill="white"/>
<path d="M107.34 3.60214H106.085V6.11199C106.085 6.74986 106.308 7.0688 106.75 7.0688C106.954 7.0688 107.124 7.05126 107.257 7.01509L107.287 7.88641C107.062 7.9719 106.766 8.01465 106.402 8.01465C105.952 8.01465 105.602 7.87655 105.348 7.60036C105.094 7.32417 104.968 6.85946 104.968 6.20734V3.60214H104.219V2.74178H104.968V1.79484L106.084 1.45508V2.74069H107.339V3.60214H107.34Z" fill="white"/>
<path d="M113.369 7.90854H112.228V4.97125C112.228 4.04513 111.885 3.58152 111.197 3.58152C110.668 3.58152 110.307 3.85005 110.11 4.38709C110.076 4.49997 110.056 4.63807 110.056 4.80028V7.90744H108.918V0.371338H110.056V3.48508H110.078C110.437 2.91844 110.951 2.63568 111.617 2.63568C112.089 2.63568 112.48 2.79131 112.789 3.10367C113.175 3.49275 113.369 4.07144 113.369 4.83645V7.90854Z" fill="white"/>
<path d="M119.592 5.0809C119.592 5.28695 119.576 5.46012 119.549 5.6015H116.132C116.147 6.11224 116.31 6.50132 116.627 6.77093C116.916 7.01205 117.289 7.13261 117.746 7.13261C118.251 7.13261 118.712 7.05151 119.127 6.88821L119.306 7.68609C118.82 7.89872 118.248 8.00503 117.586 8.00503C116.792 8.00503 116.167 7.76939 115.715 7.29811C115.26 6.82683 115.035 6.19444 115.035 5.40093C115.035 4.62168 115.245 3.97284 115.668 3.45553C116.109 2.90314 116.706 2.62695 117.46 2.62695C118.197 2.62695 118.757 2.90314 119.135 3.45553C119.441 3.89393 119.592 4.43645 119.592 5.0809ZM118.504 4.78388C118.513 4.44303 118.438 4.1493 118.284 3.9016C118.086 3.58267 117.785 3.42265 117.377 3.42265C117.005 3.42265 116.702 3.57828 116.47 3.89064C116.281 4.13943 116.169 4.43645 116.132 4.78388H118.504Z" fill="white"/>
</svg>
