<svg width="1080" height="200" viewBox="0 0 1080 200" fill="none" xmlns="http://www.w3.org/2000/svg">
<g clip-path="url(#clip0_15_2294)">
<rect width="1080" height="200" fill="#3A85F3"/>
<g clip-path="url(#clip1_15_2294)">
<path d="M-209.33 174.307C-209.33 174.307 82.555 153.648 180.804 275.33C274.303 391.14 568.987 364.591 568.987 364.591" stroke="url(#paint0_linear_15_2294)" stroke-miterlimit="10"/>
<path d="M-213 154.402C-213 154.402 97.7985 132.141 202.379 261.517C301.824 384.522 615.573 356.001 615.573 356.001" stroke="url(#paint1_linear_15_2294)" stroke-miterlimit="10"/>
<path d="M-216.681 134.44C-216.681 134.44 113.042 110.633 223.933 247.594C329.345 377.903 662.09 347.423 662.09 347.423" stroke="url(#paint2_linear_15_2294)" stroke-miterlimit="10"/>
<path d="M-220.352 114.531C-220.352 114.531 128.215 89.1383 245.437 233.795C356.876 371.34 708.677 338.833 708.677 338.833" stroke="url(#paint3_linear_15_2294)" stroke-miterlimit="10"/>
<path d="M-224.023 94.6227C-224.023 94.6227 143.459 67.6305 267.002 219.927C384.396 364.722 755.263 330.243 755.263 330.243" stroke="url(#paint4_linear_15_2294)" stroke-miterlimit="10"/>
<path d="M-227.704 74.6603C-227.704 74.6603 158.693 46.069 288.495 206.072C411.916 358.104 801.849 321.653 801.849 321.653" stroke="url(#paint5_linear_15_2294)" stroke-miterlimit="10"/>
<path d="M-231.374 54.7559C-231.374 54.7559 173.875 24.6282 310.06 192.204C439.448 351.541 848.367 313.076 848.367 313.076" stroke="url(#paint6_linear_15_2294)" stroke-miterlimit="10"/>
<path d="M-351.651 -104.056C-351.651 -104.056 -208.537 3.24323 -211.773 100.13C-214.858 192.429 -68.1022 298.325 -68.1022 298.325" stroke="url(#paint7_linear_15_2294)" stroke-miterlimit="10"/>
<path d="M-341.53 -121.587C-341.53 -121.587 -183.012 -3.18593 -186.365 103.567C-189.621 205.247 -27.0771 322.011 -27.0771 322.011" stroke="url(#paint8_linear_15_2294)" stroke-miterlimit="10"/>
<path d="M-331.409 -139.117C-331.409 -139.117 -157.458 -9.66386 -161.048 107.016C-164.384 218.064 13.9484 345.697 13.9484 345.697" stroke="url(#paint9_linear_15_2294)" stroke-miterlimit="10"/>
<path d="M-321.26 -156.697C-321.26 -156.697 -131.939 -16.2271 -135.613 110.404C-139.175 230.931 54.9112 369.347 54.9112 369.347" stroke="url(#paint10_linear_15_2294)" stroke-miterlimit="10"/>
<path d="M-311.139 -174.226C-311.139 -174.226 -106.385 -22.7049 -110.267 113.805C-113.939 243.748 95.9363 393.033 95.9363 393.033" stroke="url(#paint11_linear_15_2294)" stroke-miterlimit="10"/>
<path d="M-300.99 -191.805C-300.99 -191.805 -80.8321 -29.1826 -84.8595 117.241C-88.7015 256.565 136.961 416.718 136.961 416.718" stroke="url(#paint12_linear_15_2294)" stroke-miterlimit="10"/>
<path d="M-290.868 -209.337C-290.868 -209.337 -55.3406 -35.697 -59.5144 120.641C-63.4928 269.431 177.985 440.404 177.985 440.404" stroke="url(#paint13_linear_15_2294)" stroke-miterlimit="10"/>
<path d="M-280.748 -226.865C-280.748 -226.865 -29.7872 -42.1751 -34.135 124.127C-38.2557 282.249 219.01 464.089 219.01 464.089" stroke="url(#paint14_linear_15_2294)" stroke-miterlimit="10"/>
<path d="M-270.598 -244.445C-270.598 -244.445 -4.23332 -48.653 -8.69924 127.515C-13.0192 295.066 259.975 487.74 259.975 487.74" stroke="url(#paint15_linear_15_2294)" stroke-miterlimit="10"/>
<path d="M-260.476 -261.976C-260.476 -261.976 21.2576 -55.1672 16.6178 130.964C12.1899 307.933 301 511.426 301 511.426" stroke="url(#paint16_linear_15_2294)" stroke-miterlimit="10"/>
<path d="M-250.354 -279.508C-250.354 -279.508 46.8115 -61.6451 42.0254 134.401C37.4265 320.75 342.025 535.112 342.025 535.112" stroke="url(#paint17_linear_15_2294)" stroke-miterlimit="10"/>
<path d="M-240.205 -297.088C-240.205 -297.088 72.3922 -68.1707 67.3705 137.801C62.6631 333.567 383.05 558.798 383.05 558.798" stroke="url(#paint18_linear_15_2294)" stroke-miterlimit="10"/>
<path d="M-230.085 -314.616C-230.085 -314.616 97.8561 -74.6373 92.7781 141.238C87.872 346.434 424.014 582.448 424.014 582.448" stroke="url(#paint19_linear_15_2294)" stroke-miterlimit="10"/>
</g>
</g>
<defs>
<linearGradient id="paint0_linear_15_2294" x1="209.591" y1="430.86" x2="150.066" y2="108.037" gradientUnits="userSpaceOnUse">
<stop offset="0.15625" stop-color="#4F93DA"/>
<stop offset="0.880208" stop-color="white" stop-opacity="0"/>
</linearGradient>
<linearGradient id="paint1_linear_15_2294" x1="232.884" y1="426.565" x2="169.688" y2="83.8377" gradientUnits="userSpaceOnUse">
<stop offset="0.15625" stop-color="#4F93DA"/>
<stop offset="0.880208" stop-color="white" stop-opacity="0"/>
</linearGradient>
<linearGradient id="paint2_linear_15_2294" x1="256.143" y1="422.277" x2="189.266" y2="59.5866" gradientUnits="userSpaceOnUse">
<stop offset="0.15625" stop-color="#4F93DA"/>
<stop offset="0.880208" stop-color="white" stop-opacity="0"/>
</linearGradient>
<linearGradient id="paint3_linear_15_2294" x1="279.436" y1="417.981" x2="208.888" y2="35.383" gradientUnits="userSpaceOnUse">
<stop offset="0.15625" stop-color="#4F93DA"/>
<stop offset="0.880208" stop-color="white" stop-opacity="0"/>
</linearGradient>
<linearGradient id="paint4_linear_15_2294" x1="302.729" y1="413.686" x2="228.511" y2="11.1795" gradientUnits="userSpaceOnUse">
<stop offset="0.15625" stop-color="#4F93DA"/>
<stop offset="0.880208" stop-color="white" stop-opacity="0"/>
</linearGradient>
<linearGradient id="paint5_linear_15_2294" x1="326.022" y1="409.391" x2="248.123" y2="-13.078" gradientUnits="userSpaceOnUse">
<stop offset="0.15625" stop-color="#4F93DA"/>
<stop offset="0.880208" stop-color="white" stop-opacity="0"/>
</linearGradient>
<linearGradient id="paint6_linear_15_2294" x1="349.281" y1="405.103" x2="267.711" y2="-37.2711" gradientUnits="userSpaceOnUse">
<stop offset="0.15625" stop-color="#4F93DA"/>
<stop offset="0.880208" stop-color="white" stop-opacity="0"/>
</linearGradient>
<linearGradient id="paint7_linear_15_2294" x1="-261.551" y1="186.637" x2="-158.202" y2="7.63171" gradientUnits="userSpaceOnUse">
<stop offset="0.244792" stop-color="#4F93DA" stop-opacity="0.22"/>
<stop offset="0.755208" stop-color="white" stop-opacity="0"/>
</linearGradient>
<linearGradient id="paint8_linear_15_2294" x1="-241.039" y1="198.48" x2="-127.569" y2="1.94411" gradientUnits="userSpaceOnUse">
<stop offset="0.244792" stop-color="#4F93DA" stop-opacity="0.22"/>
<stop offset="0.755208" stop-color="white" stop-opacity="0"/>
</linearGradient>
<linearGradient id="paint9_linear_15_2294" x1="-220.526" y1="210.323" x2="-96.9347" y2="-3.7433" gradientUnits="userSpaceOnUse">
<stop offset="0.244792" stop-color="#4F93DA" stop-opacity="0.22"/>
<stop offset="0.755208" stop-color="white" stop-opacity="0"/>
</linearGradient>
<linearGradient id="paint10_linear_15_2294" x1="-200.044" y1="222.148" x2="-66.3037" y2="-9.49779" gradientUnits="userSpaceOnUse">
<stop offset="0.244792" stop-color="#4F93DA" stop-opacity="0.22"/>
<stop offset="0.755208" stop-color="white" stop-opacity="0"/>
</linearGradient>
<linearGradient id="paint11_linear_15_2294" x1="-179.532" y1="233.991" x2="-35.6708" y2="-15.1839" gradientUnits="userSpaceOnUse">
<stop offset="0.244792" stop-color="#4F93DA" stop-opacity="0.22"/>
<stop offset="0.755208" stop-color="white" stop-opacity="0"/>
</linearGradient>
<linearGradient id="paint12_linear_15_2294" x1="-159.019" y1="245.834" x2="-5.0089" y2="-20.9203" gradientUnits="userSpaceOnUse">
<stop offset="0.244792" stop-color="#4F93DA" stop-opacity="0.22"/>
<stop offset="0.755208" stop-color="white" stop-opacity="0"/>
</linearGradient>
<linearGradient id="paint13_linear_15_2294" x1="-138.507" y1="257.676" x2="25.6252" y2="-26.6097" gradientUnits="userSpaceOnUse">
<stop offset="0.244792" stop-color="#4F93DA" stop-opacity="0.22"/>
<stop offset="0.755208" stop-color="white" stop-opacity="0"/>
</linearGradient>
<linearGradient id="paint14_linear_15_2294" x1="-117.995" y1="269.519" x2="56.2577" y2="-32.295" gradientUnits="userSpaceOnUse">
<stop offset="0.244792" stop-color="#4F93DA" stop-opacity="0.22"/>
<stop offset="0.755208" stop-color="white" stop-opacity="0"/>
</linearGradient>
<linearGradient id="paint15_linear_15_2294" x1="-97.5129" y1="281.345" x2="86.8892" y2="-38.0492" gradientUnits="userSpaceOnUse">
<stop offset="0.244792" stop-color="#4F93DA" stop-opacity="0.22"/>
<stop offset="0.755208" stop-color="white" stop-opacity="0"/>
</linearGradient>
<linearGradient id="paint16_linear_15_2294" x1="-77.0002" y1="293.188" x2="117.524" y2="-43.7381" gradientUnits="userSpaceOnUse">
<stop offset="0.244792" stop-color="#4F93DA" stop-opacity="0.22"/>
<stop offset="0.755208" stop-color="white" stop-opacity="0"/>
</linearGradient>
<linearGradient id="paint17_linear_15_2294" x1="-56.4877" y1="305.031" x2="148.158" y2="-49.4271" gradientUnits="userSpaceOnUse">
<stop offset="0.244792" stop-color="#4F93DA" stop-opacity="0.22"/>
<stop offset="0.755208" stop-color="white" stop-opacity="0"/>
</linearGradient>
<linearGradient id="paint18_linear_15_2294" x1="-35.9752" y1="316.873" x2="178.82" y2="-55.1637" gradientUnits="userSpaceOnUse">
<stop offset="0.244792" stop-color="#4F93DA" stop-opacity="0.22"/>
<stop offset="0.755208" stop-color="white" stop-opacity="0"/>
</linearGradient>
<linearGradient id="paint19_linear_15_2294" x1="-15.4931" y1="328.699" x2="209.423" y2="-60.8666" gradientUnits="userSpaceOnUse">
<stop offset="0.244792" stop-color="#4F93DA" stop-opacity="0.22"/>
<stop offset="0.755208" stop-color="white" stop-opacity="0"/>
</linearGradient>
<clipPath id="clip0_15_2294">
<rect width="1080" height="200" fill="white"/>
</clipPath>
<clipPath id="clip1_15_2294">
<rect width="1080" height="200" rx="12" fill="white"/>
</clipPath>
</defs>
</svg>
