<svg width="251" height="251" viewBox="0 0 251 251" fill="none" xmlns="http://www.w3.org/2000/svg">
<ellipse cx="42.7287" cy="231.931" rx="30.9919" ry="10.3351" fill="#1D7B44"/>
<path d="M11.7368 221.596V231.931H73.7206V221.596H11.7368Z" fill="#1D7B44"/>
<ellipse cx="42.7287" cy="221.596" rx="30.9919" ry="10.3351" fill="white"/>
<path fill-rule="evenodd" clip-rule="evenodd" d="M73.7206 221.596C73.7206 227.304 59.8451 231.931 42.7287 231.931C25.6124 231.931 11.7368 227.304 11.7368 221.596C11.7368 215.888 25.6124 211.261 42.7287 211.261C59.8451 211.261 73.7206 215.888 73.7206 221.596ZM42.7284 215.69C33.5194 215.69 28.3393 216.331 25.0856 216.89C19.7058 217.887 13.9502 219.303 13.9502 221.916C13.9502 224.53 18.8293 226.68 25.0856 226.943C28.8865 227.219 37.1664 227.501 42.7284 227.501C48.266 227.501 56.2923 227.222 60.2815 226.946C66.5808 226.7 71.5066 224.542 71.5066 221.916C71.5066 219.29 64.8876 217.613 60.2815 216.886C56.5419 216.331 52.2252 215.69 42.7284 215.69ZM42.7292 217.167C35.6453 217.167 31.6607 217.647 29.1579 218.066C25.0196 218.815 20.5921 219.876 20.5921 221.836C20.5921 223.796 24.3453 225.409 29.1579 225.606C32.0816 225.814 38.4508 226.025 42.7292 226.025C46.9889 226.025 53.163 225.815 56.2316 225.609C61.0772 225.424 64.8663 223.806 64.8663 221.836C64.8663 219.867 59.7748 218.609 56.2316 218.064C53.355 217.647 50.0344 217.167 42.7292 217.167ZM29.9244 223.436C32.6793 223.684 35.6132 223.015 36.4776 221.943C37.342 220.871 35.8095 219.802 33.0546 219.555C30.2998 219.308 27.3658 219.977 26.5015 221.048C25.6371 222.12 27.1696 223.189 29.9244 223.436ZM55.1196 223.468C57.8745 223.221 59.4072 222.152 58.5429 221.08C57.6787 220.008 54.7449 219.339 51.99 219.586C49.2351 219.833 47.7025 220.903 48.5667 221.974C49.4309 223.046 52.3647 223.715 55.1196 223.468Z" fill="url(#paint0_linear_984_33324)"/>
<ellipse cx="42.7287" cy="220.087" rx="30.9919" ry="10.3351" fill="#1D7B44"/>
<path d="M11.7368 209.752V220.087H73.7206V209.752H11.7368Z" fill="#1D7B44"/>
<ellipse cx="42.7287" cy="209.752" rx="30.9919" ry="10.3351" fill="white"/>
<path fill-rule="evenodd" clip-rule="evenodd" d="M73.7206 209.752C73.7206 215.46 59.8451 220.087 42.7287 220.087C25.6124 220.087 11.7368 215.46 11.7368 209.752C11.7368 204.044 25.6124 199.417 42.7287 199.417C59.8451 199.417 73.7206 204.044 73.7206 209.752ZM42.7284 203.846C33.5194 203.846 28.3393 204.487 25.0856 205.046C19.7058 206.044 13.9502 207.459 13.9502 210.072C13.9502 212.686 18.8293 214.836 25.0856 215.099C28.8865 215.376 37.1664 215.658 42.7284 215.658C48.266 215.658 56.2923 215.378 60.2815 215.102C66.5808 214.857 71.5066 212.698 71.5066 210.072C71.5066 207.446 64.8876 205.769 60.2815 205.042C56.5419 204.487 52.2252 203.846 42.7284 203.846ZM42.7292 205.323C35.6453 205.323 31.6607 205.803 29.1579 206.223C25.0196 206.971 20.5921 208.032 20.5921 209.992C20.5921 211.953 24.3453 213.565 29.1579 213.762C32.0816 213.97 38.4508 214.181 42.7292 214.181C46.9889 214.181 53.163 213.972 56.2316 213.765C61.0772 213.581 64.8663 211.962 64.8663 209.992C64.8663 208.023 59.7748 206.765 56.2316 206.22C53.355 205.803 50.0344 205.323 42.7292 205.323ZM29.9244 211.593C32.6793 211.84 35.6132 211.171 36.4776 210.099C37.342 209.028 35.8095 207.958 33.0546 207.711C30.2998 207.464 27.3658 208.133 26.5015 209.205C25.6371 210.276 27.1696 211.346 29.9244 211.593ZM55.1196 211.624C57.8745 211.377 59.4072 210.308 58.5429 209.236C57.6787 208.164 54.7449 207.496 51.99 207.743C49.2351 207.99 47.7025 209.059 48.5667 210.131C49.4309 211.202 52.3647 211.871 55.1196 211.624Z" fill="url(#paint1_linear_984_33324)"/>
<ellipse cx="31.6267" cy="207.857" rx="30.9919" ry="10.3351" fill="#1D7B44"/>
<path d="M0.634766 197.521V207.857H62.6186V197.521H0.634766Z" fill="#1D7B44"/>
<ellipse cx="31.6267" cy="197.521" rx="30.9919" ry="10.3351" fill="white"/>
<path fill-rule="evenodd" clip-rule="evenodd" d="M62.6186 197.521C62.6186 203.229 48.743 207.856 31.6267 207.856C14.5103 207.856 0.634766 203.229 0.634766 197.521C0.634766 191.813 14.5103 187.186 31.6267 187.186C48.743 187.186 62.6186 191.813 62.6186 197.521ZM31.6263 191.615C22.4173 191.615 17.2372 192.256 13.9836 192.815C8.60377 193.813 2.84813 195.228 2.84813 197.841C2.84813 200.455 7.72726 202.605 13.9836 202.868C17.7845 203.145 26.0644 203.427 31.6263 203.427C37.164 203.427 45.1902 203.147 49.1795 202.872C55.4787 202.626 60.4045 200.468 60.4045 197.841C60.4045 195.215 53.7855 193.538 49.1795 192.811C45.4399 192.256 41.1231 191.615 31.6263 191.615ZM31.6272 193.092C24.5433 193.092 20.5586 193.573 18.0558 193.992C13.9175 194.74 9.49009 195.801 9.49009 197.761C9.49009 199.722 13.2433 201.334 18.0558 201.531C20.9796 201.739 27.3488 201.95 31.6272 201.95C35.8869 201.95 42.0609 201.741 45.1296 201.534C49.9752 201.35 53.7642 199.731 53.7642 197.761C53.7642 195.792 48.6727 194.534 45.1296 193.989C42.253 193.573 38.9324 193.092 31.6272 193.092ZM18.8224 199.362C21.5772 199.609 24.5112 198.94 25.3756 197.868C26.2399 196.797 24.7074 195.728 21.9526 195.48C19.1977 195.233 16.2638 195.902 15.3994 196.974C14.535 198.046 16.0676 199.115 18.8224 199.362ZM44.0175 199.393C46.7724 199.146 48.3051 198.077 47.4409 197.005C46.5767 195.933 43.6429 195.265 40.888 195.512C38.1331 195.759 36.6004 196.828 37.4646 197.9C38.3288 198.971 41.2626 199.64 44.0175 199.393Z" fill="url(#paint2_linear_984_33324)"/>
<path d="M132.972 234.992C120.05 234.356 117.428 211.059 117.341 201.08C117.862 190.483 127.501 189.688 142.09 192.602C156.679 195.516 158.242 213.532 155.376 220.686C152.511 227.839 149.124 235.787 132.972 234.992Z" fill="#2B495F" stroke="#1B2E3B" stroke-width="4.43715"/>
<ellipse cx="140.327" cy="233.464" rx="14.7331" ry="4.47256" transform="rotate(-1.4975 140.327 233.464)" fill="#1B2E3B"/>
<path d="M82.2162 235.635C67.6984 234.932 64.7519 209.194 64.6543 198.169C65.2397 186.461 76.0696 185.583 92.4607 188.802C108.852 192.022 110.608 211.926 107.388 219.829C104.169 227.731 100.364 236.513 82.2162 235.635Z" fill="#2B495F" stroke="#1B2E3B" stroke-width="4.43715"/>
<ellipse cx="90.9978" cy="234.17" rx="16.3911" ry="4.97589" transform="rotate(-0.446353 90.9978 234.17)" fill="#1B2E3B"/>
<path d="M129.319 126.216C143.837 127.152 157.223 138.314 162.101 143.778C188.444 137.046 187.273 166.023 160.638 173.34C134.002 180.658 120.538 170.999 112.928 157.534C105.318 144.07 111.172 125.045 129.319 126.216Z" fill="#2B495F" stroke="#1B2E3B" stroke-width="4.43715" stroke-linejoin="round"/>
<ellipse cx="170.253" cy="156.421" rx="4.97589" ry="7.61018" transform="rotate(52.1484 170.253 156.421)" fill="#1B2E3B"/>
<path d="M159.197 203.143C169.032 189.796 170.266 171.532 160.607 152.506C150.363 136.407 132.801 127.626 118.751 123.236C96.6037 119.626 72.7338 108.718 69.9239 117.382C67.114 126.046 64.8504 132.115 64.0698 134.066C62.1185 144.506 58.1627 165.97 61.6751 180.605C65.979 198.538 81.0464 208.704 99.4864 216.315C117.926 223.925 146.904 219.827 159.197 203.143Z" fill="#2B495F" stroke="#1B2E3B" stroke-width="4.43715"/>
<path d="M93.9239 160.701C106.803 165.384 126.428 149.315 142.507 150.164C159.142 151.043 164.118 169.191 163.826 179.435C163.399 194.368 153.874 209.583 131.922 214.559C114.498 218.508 94.4032 211.633 80.4065 200.802C72.4701 194.661 66.6497 186.753 65.1862 178.264C63.681 169.534 62.7676 157.513 62.3123 148.408C62.0197 142.555 67.8737 146.653 69.9226 148.116C77.24 153.97 83.6209 156.955 93.9239 160.701Z" fill="white"/>
<ellipse cx="136.124" cy="200.943" rx="21.9524" ry="8.53811" transform="rotate(-24.3349 136.124 200.943)" fill="#DFE9F1"/>
<path d="M62.9608 66.6696C57.9012 77.1467 47.6086 81.5893 40.3998 78.1051C33.1909 74.6208 30.2727 63.7929 35.3323 53.3158C40.3919 42.8387 50.6845 38.3961 57.8933 41.8804C65.1022 45.3647 68.0204 56.1925 62.9608 66.6696Z" fill="#2B495F" stroke="#1B2E3B" stroke-width="4.43715"/>
<ellipse cx="8.25619" cy="10.4989" rx="8.25619" ry="10.4989" transform="matrix(0.900349 0.435168 -0.434866 0.900495 49.1392 47.1348)" fill="#1B2E3B"/>
<ellipse cx="1.47758" cy="3.01558" rx="1.47758" ry="3.01558" transform="matrix(0.911724 0.410804 -0.410512 0.911855 46.6978 54.9421)" fill="#5F91B7"/>
<path d="M126.24 60.306C117.432 52.7088 115.802 41.6134 121.03 35.5465C126.258 29.4796 137.468 29.4587 146.276 37.0559C155.085 44.6531 156.715 55.7485 151.486 61.8154C146.258 67.8823 135.048 67.9032 126.24 60.306Z" fill="#2B495F" stroke="#1B2E3B" stroke-width="4.43715"/>
<ellipse cx="8.25696" cy="10.4979" rx="8.25696" ry="10.4979" transform="matrix(-0.768641 0.63968 -0.639357 -0.76891 150.917 53.3274)" fill="#1B2E3B"/>
<ellipse cx="1.47811" cy="3.0158" rx="1.47811" ry="3.0158" transform="matrix(-0.796487 0.604655 -0.604327 -0.796737 145.428 49.0139)" fill="#5F91B7"/>
<path d="M165.35 95.4304C165.35 125.159 138.048 149.703 103.787 149.703C69.5266 149.703 42.2249 125.159 42.2249 95.4304C42.2249 65.702 69.5266 41.158 103.787 41.158C138.048 41.158 165.35 65.702 165.35 95.4304Z" fill="white" stroke="#1B2E3B" stroke-width="4.43715"/>
<ellipse cx="16.0969" cy="8.33675" rx="16.0969" ry="8.33675" transform="matrix(-0.325817 -0.945433 0.945347 -0.326066 54.5923 123.401)" fill="#DFE9F1"/>
<path d="M126.313 123.529C135.271 120.927 135.968 111.235 135.091 107.723C130.41 108.601 126.606 107.138 124.851 104.503C123.095 107.138 121.106 109.889 115.488 110.357C109.871 110.826 109.052 108.601 107.881 106.845C108.466 110.943 108.174 110.592 109.344 113.87C110.807 117.968 117.244 126.163 126.313 123.529Z" fill="#1B2E3B"/>
<path d="M125.438 114.748C119.918 114.057 115.783 116.504 114.028 117.968C117.246 122.066 121.981 122.944 125.491 122.359C129.002 121.773 130.119 115.334 125.438 114.748Z" fill="#EF4062"/>
<path d="M124.56 103.918C124.56 105.967 121.049 110.65 114.905 110.943C109.347 111.235 106.713 106.26 106.713 103.918" stroke="#1B2E3B" stroke-width="4.43715" stroke-linecap="round"/>
<path d="M124.562 104.212C125.177 105.661 128.658 109.188 133.632 108.017C138.313 106.846 139.776 103.919 139.776 101.87" stroke="#1B2E3B" stroke-width="4.43715" stroke-linecap="round"/>
<path d="M113.743 96.9356C113.434 102.694 123.635 103.013 123.944 103.333C137.236 99.4944 135.691 91.4976 130.126 90.2181C124.562 88.9386 114.052 91.1778 113.743 96.9356Z" fill="#1B2E3B"/>
<path d="M124.267 93.7932C126.048 93.179 128.694 93.268 130.119 93.9682" stroke="white" stroke-width="4.43715" stroke-linecap="round"/>
<ellipse cx="14.3135" cy="20.3807" rx="14.3135" ry="20.3807" transform="matrix(0.948608 0.316452 -0.316208 0.94869 83.5029 66.3704)" fill="#39627F"/>
<ellipse cx="95.4916" cy="99.5243" rx="5.85147" ry="6.43938" fill="#1B2E3B"/>
<ellipse cx="2.63352" cy="3.21925" rx="2.63352" ry="3.21925" transform="matrix(0.826411 -0.563068 0.562738 0.826635 93.3076 99.7188)" fill="white"/>
<ellipse cx="11.0172" cy="19.2028" rx="11.0172" ry="19.2028" transform="matrix(0.853628 -0.520884 0.520559 0.853826 123.098 70.0562)" fill="#39627F"/>
<ellipse cx="146.4" cy="91.33" rx="5.85147" ry="6.43938" fill="#1B2E3B"/>
<ellipse cx="2.63379" cy="3.21892" rx="2.63379" ry="3.21892" transform="matrix(0.664109 -0.747636 0.747353 0.664427 144.216 92.4973)" fill="white"/>
<path d="M83.6602 133.24C98.1781 134.176 111.564 145.338 116.443 150.801C142.786 144.07 141.615 173.047 114.979 180.364C88.3433 187.681 74.8793 178.023 67.2691 164.558C59.6589 151.094 65.5129 132.069 83.6602 133.24Z" fill="#BFD3E2"/>
<g clip-path="url(#clip0_984_33324)">
<ellipse cx="33.1967" cy="33.2001" rx="33.1967" ry="33.2001" transform="matrix(0.78708 -0.616851 0.616524 0.787336 96.4878 149.106)" fill="white"/>
<path fill-rule="evenodd" clip-rule="evenodd" d="M169.213 134.291C180.518 148.727 177.984 169.598 163.554 180.908C149.123 192.217 128.261 189.682 116.956 175.246C105.652 160.809 108.186 139.938 122.616 128.629C137.047 117.319 157.909 119.854 169.213 134.291ZM131.388 139.831C123.624 145.916 120.526 150.96 118.89 154.523C116.331 160.601 114.281 167.983 119.457 174.594C124.633 181.204 133.005 183.418 138.8 179.949C142.553 178.138 150.092 173.38 154.781 169.705C159.449 166.046 165.662 160.036 168.48 156.703C173.304 151.919 173.182 143.206 167.981 136.564C162.78 129.922 153.878 130.053 148.556 131.259C144.303 132.325 139.395 133.556 131.388 139.831ZM134.313 143.565C128.341 148.246 125.934 152.094 124.654 154.808C122.647 159.435 121.016 165.045 124.898 170.003C128.78 174.96 135.138 176.559 139.586 173.877C142.462 172.471 148.251 168.798 151.858 165.971C155.449 163.156 160.239 158.546 162.416 155.996C166.136 152.328 166.125 145.73 162.225 140.749C158.324 135.768 151.54 135.95 147.473 136.913C144.223 137.76 140.472 138.738 134.313 143.565ZM135.935 167.884C138.747 166.688 139.897 163.059 138.503 159.777C137.109 156.495 133.699 154.804 130.887 155.999C128.076 157.194 126.926 160.824 128.32 164.106C129.714 167.388 133.124 169.079 135.935 167.884ZM157.239 151.316C159.072 148.871 158.247 145.154 155.396 143.014C152.544 140.874 148.747 141.122 146.913 143.567C145.08 146.012 145.905 149.729 148.756 151.868C151.608 154.008 155.405 153.761 157.239 151.316Z" fill="url(#paint3_linear_984_33324)"/>
</g>
<ellipse cx="6.5942" cy="12.9088" rx="6.5942" ry="12.9088" transform="matrix(0.959575 -0.281453 0.281231 0.95964 165.368 138.15)" fill="#2B495F" stroke="#1B2E3B" stroke-width="4.44191"/>
<path d="M80.1445 125.284C94.6562 126.221 108.037 137.382 112.913 142.846C139.245 136.114 138.074 165.091 111.45 172.408C84.8256 179.726 71.3673 170.067 63.7604 156.603C56.1535 143.139 62.0049 124.113 80.1445 125.284Z" fill="#2B495F" stroke="#1B2E3B" stroke-width="4.43715" stroke-linejoin="round"/>
<path d="M117.245 148.812C118.712 148.349 122.67 147.803 124.816 150.2" stroke="white" stroke-width="4.43715" stroke-linecap="round"/>
<path d="M97.1788 45.3371C100.216 42.9414 100.965 40.3223 98.4121 37.6415" stroke="#1B2E3B" stroke-width="4.43715" stroke-linecap="round"/>
<path d="M98.1882 44.6165C104.813 43.6896 109.767 33.5941 100.971 29.3218" stroke="#1B2E3B" stroke-width="4.43715" stroke-linecap="round"/>
<path d="M98.5025 44.7121C108.951 45.6203 111.681 35.6049 109.596 29.7929" stroke="#1B2E3B" stroke-width="4.43715" stroke-linecap="round"/>
<path d="M180.205 45.8467L184.471 57.3809L196.001 61.649L184.471 65.9171L180.205 77.4513L175.939 65.9171L164.41 61.649L175.939 57.3809L180.205 45.8467Z" fill="#FFCB2C"/>
<path d="M64.1425 0.5L66.7394 7.52085L73.7572 10.1188L66.7394 12.7168L64.1425 19.7376L61.5457 12.7168L54.5278 10.1188L61.5457 7.52085L64.1425 0.5Z" fill="#FFCB2C"/>
<path d="M139.686 19.7363L142.654 27.7602L150.675 30.7292L142.654 33.6983L139.686 41.7222L136.719 33.6983L128.698 30.7292L136.719 27.7602L139.686 19.7363Z" fill="#FFCB2C"/>
<path d="M38.7324 131.728L40.2163 135.739L44.2265 137.224L40.2163 138.709L38.7324 142.72L37.2485 138.709L33.2383 137.224L37.2485 135.739L38.7324 131.728Z" fill="#FFCB2C"/>
<ellipse cx="181.379" cy="231.931" rx="30.9919" ry="10.3351" fill="#1D7B44"/>
<path d="M150.387 221.596V231.931H212.371V221.596H150.387Z" fill="#1D7B44"/>
<ellipse cx="181.379" cy="221.596" rx="30.9919" ry="10.3351" fill="white"/>
<path fill-rule="evenodd" clip-rule="evenodd" d="M212.371 221.596C212.371 227.304 198.495 231.931 181.379 231.931C164.262 231.931 150.387 227.304 150.387 221.596C150.387 215.888 164.262 211.261 181.379 211.261C198.495 211.261 212.371 215.888 212.371 221.596ZM181.378 215.69C172.169 215.69 166.989 216.331 163.736 216.89C158.356 217.887 152.6 219.303 152.6 221.916C152.6 224.53 157.479 226.68 163.736 226.943C167.536 227.219 175.816 227.501 181.378 227.501C186.916 227.501 194.942 227.222 198.931 226.946C205.231 226.7 210.156 224.542 210.156 221.916C210.156 219.29 203.537 217.613 198.931 216.886C195.192 216.331 190.875 215.69 181.378 215.69ZM181.379 217.167C174.295 217.167 170.311 217.647 167.808 218.066C163.669 218.815 159.242 219.876 159.242 221.836C159.242 223.796 162.995 225.409 167.808 225.606C170.732 225.814 177.101 226.025 181.379 226.025C185.639 226.025 191.813 225.815 194.882 225.609C199.727 225.424 203.516 223.806 203.516 221.836C203.516 219.867 198.425 218.609 194.882 218.064C192.005 217.647 188.684 217.167 181.379 217.167ZM168.574 223.436C171.329 223.684 174.263 223.015 175.128 221.943C175.992 220.871 174.459 219.802 171.705 219.555C168.95 219.308 166.016 219.977 165.151 221.048C164.287 222.12 165.82 223.189 168.574 223.436ZM193.769 223.468C196.524 223.221 198.057 222.152 197.193 221.08C196.329 220.008 193.395 219.339 190.64 219.586C187.885 219.833 186.352 220.903 187.217 221.974C188.081 223.046 191.015 223.715 193.769 223.468Z" fill="url(#paint4_linear_984_33324)"/>
<ellipse cx="181.379" cy="221.596" rx="30.9919" ry="10.3351" fill="url(#paint5_linear_984_33324)"/>
<ellipse cx="30.9949" cy="10.334" rx="30.9949" ry="10.334" transform="matrix(0.877837 0.47896 -0.478644 0.878009 191.271 199.663)" fill="#1D7B44"/>
<path d="M191.271 199.663L186.325 208.736L240.742 238.427L245.688 229.354L191.271 199.663Z" fill="#1D7B44"/>
<ellipse cx="30.9949" cy="10.334" rx="30.9949" ry="10.334" transform="matrix(0.877837 0.47896 -0.478644 0.878009 196.218 190.589)" fill="white"/>
<path fill-rule="evenodd" clip-rule="evenodd" d="M245.688 229.353C242.957 234.365 228.56 231.78 213.534 223.581C198.507 215.383 188.54 204.674 191.271 199.663C194.003 194.652 208.399 197.236 223.426 205.435C238.453 213.634 248.42 224.342 245.688 229.353ZM221.306 209.323C213.221 204.912 208.367 202.993 205.243 201.925C200.042 200.224 194.312 198.71 193.061 201.004C191.81 203.299 195.065 207.524 200.432 210.751C203.636 212.815 210.77 217.028 215.653 219.693C220.515 222.345 227.695 225.944 231.329 227.613C236.977 230.415 242.335 230.88 243.591 228.574C244.848 226.269 239.84 221.626 236.144 218.781C233.127 216.503 229.644 213.872 221.306 209.323ZM220.6 210.62C214.381 207.227 210.653 205.74 208.255 204.909C204.264 203.584 199.869 202.395 198.931 204.116C197.993 205.836 200.516 209.05 204.647 211.528C207.114 213.111 212.604 216.348 216.361 218.397C220.1 220.437 225.621 223.211 228.414 224.499C232.756 226.658 236.857 227.052 237.8 225.323C238.743 223.594 234.875 220.051 232.025 217.875C229.699 216.132 227.014 214.119 220.6 210.62ZM206.358 209.991C208.658 211.527 211.554 212.346 212.826 211.819C214.098 211.292 213.264 209.619 210.963 208.083C208.663 206.546 205.767 205.728 204.496 206.255C203.224 206.781 204.058 208.454 206.358 209.991ZM228.462 222.087C230.999 223.19 232.856 222.985 232.611 221.63C232.365 220.275 230.109 218.283 227.572 217.18C225.036 216.077 223.178 216.282 223.424 217.637C223.67 218.992 225.925 220.984 228.462 222.087Z" fill="url(#paint6_linear_984_33324)"/>
<defs>
<linearGradient id="paint0_linear_984_33324" x1="11.7368" y1="211.261" x2="24.1431" y2="248.464" gradientUnits="userSpaceOnUse">
<stop offset="0.311654" stop-color="#44BE2E"/>
<stop offset="0.75983" stop-color="#27AE60"/>
</linearGradient>
<linearGradient id="paint1_linear_984_33324" x1="11.7368" y1="199.417" x2="24.1431" y2="236.62" gradientUnits="userSpaceOnUse">
<stop offset="0.311654" stop-color="#44BE2E"/>
<stop offset="0.75983" stop-color="#27AE60"/>
</linearGradient>
<linearGradient id="paint2_linear_984_33324" x1="0.634766" y1="187.186" x2="13.0411" y2="224.389" gradientUnits="userSpaceOnUse">
<stop offset="0.311654" stop-color="#44BE2E"/>
<stop offset="0.75983" stop-color="#27AE60"/>
</linearGradient>
<linearGradient id="paint3_linear_984_33324" x1="96.4878" y1="149.106" x2="189.683" y2="160.421" gradientUnits="userSpaceOnUse">
<stop offset="0.311654" stop-color="#44BE2E"/>
<stop offset="0.75983" stop-color="#27AE60"/>
</linearGradient>
<linearGradient id="paint4_linear_984_33324" x1="150.387" y1="211.261" x2="162.793" y2="248.464" gradientUnits="userSpaceOnUse">
<stop offset="0.311654" stop-color="#44BE2E"/>
<stop offset="0.75983" stop-color="#27AE60"/>
</linearGradient>
<linearGradient id="paint5_linear_984_33324" x1="191.522" y1="204.961" x2="172.073" y2="223.654" gradientUnits="userSpaceOnUse">
<stop offset="0.360467" stop-color="#175C34"/>
<stop offset="0.663534" stop-color="#1D7B44" stop-opacity="0"/>
</linearGradient>
<linearGradient id="paint6_linear_984_33324" x1="196.218" y1="190.589" x2="189.289" y2="229.191" gradientUnits="userSpaceOnUse">
<stop offset="0.311654" stop-color="#44BE2E"/>
<stop offset="0.75983" stop-color="#27AE60"/>
</linearGradient>
<clipPath id="clip0_984_33324">
<rect width="66.3934" height="66.4002" fill="white" transform="matrix(0.78708 -0.616851 0.616524 0.787336 96.4878 149.106)"/>
</clipPath>
</defs>
</svg>
