<svg width="223" height="24" viewBox="0 0 223 24" fill="none" xmlns="http://www.w3.org/2000/svg">
<path d="M6.24 6.608C7.33867 6.608 8.31467 6.85333 9.168 7.344C10.0213 7.824 10.6827 8.50133 11.152 9.376C11.632 10.2507 11.872 11.2427 11.872 12.352C11.872 13.4613 11.632 14.4533 11.152 15.328C10.6827 16.2027 10.0213 16.8853 9.168 17.376C8.31467 17.8667 7.33867 18.112 6.24 18.112C5.14133 18.112 4.16533 17.8667 3.312 17.376C2.45867 16.8853 1.792 16.2027 1.312 15.328C0.842667 14.4533 0.608 13.4613 0.608 12.352C0.608 11.2427 0.842667 10.2507 1.312 9.376C1.792 8.50133 2.45867 7.824 3.312 7.344C4.16533 6.85333 5.14133 6.608 6.24 6.608ZM6.24 7.504C5.29067 7.504 4.464 7.70133 3.76 8.096C3.056 8.49067 2.512 9.056 2.128 9.792C1.75467 10.5173 1.568 11.3707 1.568 12.352C1.568 13.3227 1.75467 14.176 2.128 14.912C2.512 15.648 3.056 16.2187 3.76 16.624C4.464 17.0187 5.29067 17.216 6.24 17.216C7.18933 17.216 8.016 17.0187 8.72 16.624C9.424 16.2187 9.96267 15.648 10.336 14.912C10.72 14.176 10.912 13.3227 10.912 12.352C10.912 11.3707 10.72 10.5173 10.336 9.792C9.96267 9.056 9.424 8.49067 8.72 8.096C8.016 7.70133 7.18933 7.504 6.24 7.504ZM6.256 8.752C5.57333 8.752 4.96 8.90133 4.416 9.2C3.88267 9.488 3.46133 9.904 3.152 10.448C2.85333 10.992 2.704 11.6267 2.704 12.352C2.704 13.0773 2.85333 13.712 3.152 14.256C3.46133 14.8 3.88267 15.2213 4.416 15.52C4.96 15.808 5.57333 15.952 6.256 15.952C7.09867 15.952 7.824 15.712 8.432 15.232C9.04 14.752 9.42933 14.1173 9.6 13.328H7.248C7.06667 13.8507 6.70933 14.112 6.176 14.112C5.78133 14.112 5.472 13.9627 5.248 13.664C5.024 13.3653 4.912 12.928 4.912 12.352C4.912 11.776 5.024 11.3387 5.248 11.04C5.472 10.7413 5.78133 10.592 6.176 10.592C6.44267 10.592 6.66667 10.6613 6.848 10.8C7.04 10.9387 7.17333 11.1307 7.248 11.376H9.6C9.42933 10.5653 9.04 9.92533 8.432 9.456C7.83467 8.98667 7.10933 8.752 6.256 8.752Z" fill="white"/>
<path fill-rule="evenodd" clip-rule="evenodd" d="M16 6V18H27.4407V15.5422H18.9661V12.9398H22.6384V10.7711H18.9661V7.73494C18.9661 6.46265 17.742 6.04819 17.1299 6H16ZM29.8418 6V18H39.1638V15.5422H32.8079V6H29.8418ZM41.1412 6V18H50.4633V15.5422H44.1073V6H41.1412ZM52.5819 18V11.3494C52.629 9.56627 53.7401 6 57.8079 6H66V13.3735C66 14.9157 65.096 18 61.4802 18H52.5819ZM55.1243 15.5422V11.5515C55.153 10.5202 55.9726 8.45783 58.4561 8.45783H63.4576V12.8666C63.4576 13.7585 62.9057 15.5422 60.6982 15.5422H55.1243ZM21.3672 6H27.2994V7.73494C27.2994 8.54458 26.5461 8.74699 26.1695 8.74699H20.2373V7.01205C20.2373 6.20241 20.9906 6 21.3672 6Z" fill="white"/>
<path d="M70.696 18.096C70.4187 18.096 70.184 18 69.992 17.808C69.8 17.616 69.704 17.3813 69.704 17.104C69.704 16.8267 69.8 16.592 69.992 16.4C70.184 16.208 70.4187 16.112 70.696 16.112C70.9627 16.112 71.1867 16.208 71.368 16.4C71.56 16.592 71.656 16.8267 71.656 17.104C71.656 17.3813 71.56 17.616 71.368 17.808C71.1867 18 70.9627 18.096 70.696 18.096ZM84.449 15.52H79.585L78.689 18H77.153L81.185 6.912H82.865L86.881 18H85.345L84.449 15.52ZM84.033 14.336L82.017 8.704L80.001 14.336H84.033ZM90.0943 6.16V18H88.6383V6.16H90.0943ZM94.0318 6.16V18H92.5758V6.16H94.0318ZM102.235 10.656C102.491 10.1547 102.854 9.76533 103.323 9.488C103.803 9.21067 104.384 9.072 105.067 9.072V10.576H104.683C103.051 10.576 102.235 11.4613 102.235 13.232V18H100.779V9.232H102.235V10.656ZM107.5 7.808C107.222 7.808 106.988 7.712 106.796 7.52C106.604 7.328 106.508 7.09333 106.508 6.816C106.508 6.53867 106.604 6.304 106.796 6.112C106.988 5.92 107.222 5.824 107.5 5.824C107.766 5.824 107.99 5.92 108.172 6.112C108.364 6.304 108.46 6.53867 108.46 6.816C108.46 7.09333 108.364 7.328 108.172 7.52C107.99 7.712 107.766 7.808 107.5 7.808ZM108.204 9.232V18H106.748V9.232H108.204ZM114.301 9.088C115.058 9.088 115.72 9.25333 116.285 9.584C116.861 9.91467 117.288 10.3307 117.565 10.832V9.232H119.037V18.192C119.037 18.992 118.866 19.7013 118.525 20.32C118.184 20.9493 117.693 21.44 117.053 21.792C116.424 22.144 115.688 22.32 114.845 22.32C113.693 22.32 112.733 22.048 111.965 21.504C111.197 20.96 110.744 20.2187 110.605 19.28H112.045C112.205 19.8133 112.536 20.24 113.037 20.56C113.538 20.8907 114.141 21.056 114.845 21.056C115.645 21.056 116.296 20.8053 116.797 20.304C117.309 19.8027 117.565 19.0987 117.565 18.192V16.352C117.277 16.864 116.85 17.2907 116.285 17.632C115.72 17.9733 115.058 18.144 114.301 18.144C113.522 18.144 112.813 17.952 112.173 17.568C111.544 17.184 111.048 16.6453 110.685 15.952C110.322 15.2587 110.141 14.4693 110.141 13.584C110.141 12.688 110.322 11.904 110.685 11.232C111.048 10.5493 111.544 10.0213 112.173 9.648C112.813 9.27467 113.522 9.088 114.301 9.088ZM117.565 13.6C117.565 12.9387 117.432 12.3627 117.165 11.872C116.898 11.3813 116.536 11.008 116.077 10.752C115.629 10.4853 115.133 10.352 114.589 10.352C114.045 10.352 113.549 10.48 113.101 10.736C112.653 10.992 112.296 11.3653 112.029 11.856C111.762 12.3467 111.629 12.9227 111.629 13.584C111.629 14.256 111.762 14.8427 112.029 15.344C112.296 15.8347 112.653 16.2133 113.101 16.48C113.549 16.736 114.045 16.864 114.589 16.864C115.133 16.864 115.629 16.736 116.077 16.48C116.536 16.2133 116.898 15.8347 117.165 15.344C117.432 14.8427 117.565 14.2613 117.565 13.6ZM125.85 9.072C126.511 9.072 127.108 9.216 127.642 9.504C128.175 9.78133 128.591 10.2027 128.89 10.768C129.199 11.3333 129.354 12.0213 129.354 12.832V18H127.914V13.04C127.914 12.1653 127.695 11.4987 127.258 11.04C126.82 10.5707 126.223 10.336 125.466 10.336C124.698 10.336 124.084 10.576 123.626 11.056C123.178 11.536 122.954 12.2347 122.954 13.152V18H121.498V6.16H122.954V10.48C123.242 10.032 123.636 9.68533 124.138 9.44C124.65 9.19467 125.22 9.072 125.85 9.072ZM133.508 10.432V15.6C133.508 16.0267 133.599 16.3307 133.78 16.512C133.961 16.6827 134.276 16.768 134.724 16.768H135.796V18H134.484C133.673 18 133.065 17.8133 132.66 17.44C132.255 17.0667 132.052 16.4533 132.052 15.6V10.432H130.916V9.232H132.052V7.024H133.508V9.232H135.796V10.432H133.508ZM140.664 18.144C139.992 18.144 139.389 18.032 138.856 17.808C138.323 17.5733 137.901 17.2533 137.592 16.848C137.283 16.432 137.112 15.9573 137.08 15.424H138.584C138.627 15.8613 138.829 16.2187 139.192 16.496C139.565 16.7733 140.051 16.912 140.648 16.912C141.203 16.912 141.64 16.7893 141.96 16.544C142.28 16.2987 142.44 15.9893 142.44 15.616C142.44 15.232 142.269 14.9493 141.928 14.768C141.587 14.576 141.059 14.3893 140.344 14.208C139.693 14.0373 139.16 13.8667 138.744 13.696C138.339 13.5147 137.987 13.2533 137.688 12.912C137.4 12.56 137.256 12.1013 137.256 11.536C137.256 11.088 137.389 10.6773 137.656 10.304C137.923 9.93067 138.301 9.63733 138.792 9.424C139.283 9.2 139.843 9.088 140.472 9.088C141.443 9.088 142.227 9.33333 142.824 9.824C143.421 10.3147 143.741 10.9867 143.784 11.84H142.328C142.296 11.3813 142.109 11.0133 141.768 10.736C141.437 10.4587 140.989 10.32 140.424 10.32C139.901 10.32 139.485 10.432 139.176 10.656C138.867 10.88 138.712 11.1733 138.712 11.536C138.712 11.824 138.803 12.064 138.984 12.256C139.176 12.4373 139.411 12.5867 139.688 12.704C139.976 12.8107 140.371 12.9333 140.872 13.072C141.501 13.2427 142.013 13.4133 142.408 13.584C142.803 13.744 143.139 13.9893 143.416 14.32C143.704 14.6507 143.853 15.0827 143.864 15.616C143.864 16.096 143.731 16.528 143.464 16.912C143.197 17.296 142.819 17.6 142.328 17.824C141.848 18.0373 141.293 18.144 140.664 18.144ZM151.641 10.656C151.897 10.1547 152.26 9.76533 152.729 9.488C153.209 9.21067 153.79 9.072 154.473 9.072V10.576H154.089C152.457 10.576 151.641 11.4613 151.641 13.232V18H150.185V9.232H151.641V10.656ZM164.154 13.28C164.154 13.5573 164.138 13.8507 164.106 14.16H157.098C157.151 15.024 157.445 15.7013 157.978 16.192C158.522 16.672 159.178 16.912 159.946 16.912C160.575 16.912 161.098 16.768 161.514 16.48C161.941 16.1813 162.239 15.7867 162.41 15.296H163.978C163.743 16.1387 163.274 16.8267 162.57 17.36C161.866 17.8827 160.991 18.144 159.946 18.144C159.114 18.144 158.367 17.9573 157.706 17.584C157.055 17.2107 156.543 16.6827 156.17 16C155.797 15.3067 155.61 14.5067 155.61 13.6C155.61 12.6933 155.791 11.8987 156.154 11.216C156.517 10.5333 157.023 10.0107 157.674 9.648C158.335 9.27467 159.093 9.088 159.946 9.088C160.778 9.088 161.514 9.26933 162.154 9.632C162.794 9.99467 163.285 10.496 163.626 11.136C163.978 11.7653 164.154 12.48 164.154 13.28ZM162.65 12.976C162.65 12.4213 162.527 11.9467 162.282 11.552C162.037 11.1467 161.701 10.8427 161.274 10.64C160.858 10.4267 160.394 10.32 159.882 10.32C159.146 10.32 158.517 10.5547 157.994 11.024C157.482 11.4933 157.189 12.144 157.114 12.976H162.65ZM169.18 18.144C168.508 18.144 167.905 18.032 167.372 17.808C166.838 17.5733 166.417 17.2533 166.108 16.848C165.798 16.432 165.628 15.9573 165.596 15.424H167.1C167.142 15.8613 167.345 16.2187 167.708 16.496C168.081 16.7733 168.566 16.912 169.164 16.912C169.718 16.912 170.156 16.7893 170.476 16.544C170.796 16.2987 170.956 15.9893 170.956 15.616C170.956 15.232 170.785 14.9493 170.444 14.768C170.102 14.576 169.574 14.3893 168.86 14.208C168.209 14.0373 167.676 13.8667 167.26 13.696C166.854 13.5147 166.502 13.2533 166.204 12.912C165.916 12.56 165.772 12.1013 165.772 11.536C165.772 11.088 165.905 10.6773 166.172 10.304C166.438 9.93067 166.817 9.63733 167.308 9.424C167.798 9.2 168.358 9.088 168.988 9.088C169.958 9.088 170.742 9.33333 171.34 9.824C171.937 10.3147 172.257 10.9867 172.3 11.84H170.844C170.812 11.3813 170.625 11.0133 170.284 10.736C169.953 10.4587 169.505 10.32 168.94 10.32C168.417 10.32 168.001 10.432 167.692 10.656C167.382 10.88 167.228 11.1733 167.228 11.536C167.228 11.824 167.318 12.064 167.5 12.256C167.692 12.4373 167.926 12.5867 168.204 12.704C168.492 12.8107 168.886 12.9333 169.388 13.072C170.017 13.2427 170.529 13.4133 170.924 13.584C171.318 13.744 171.654 13.9893 171.932 14.32C172.22 14.6507 172.369 15.0827 172.38 15.616C172.38 16.096 172.246 16.528 171.98 16.912C171.713 17.296 171.334 17.6 170.844 17.824C170.364 18.0373 169.809 18.144 169.18 18.144ZM182.435 13.28C182.435 13.5573 182.419 13.8507 182.387 14.16H175.379C175.432 15.024 175.726 15.7013 176.259 16.192C176.803 16.672 177.459 16.912 178.227 16.912C178.856 16.912 179.379 16.768 179.795 16.48C180.222 16.1813 180.52 15.7867 180.691 15.296H182.259C182.024 16.1387 181.555 16.8267 180.851 17.36C180.147 17.8827 179.272 18.144 178.227 18.144C177.395 18.144 176.648 17.9573 175.987 17.584C175.336 17.2107 174.824 16.6827 174.451 16C174.078 15.3067 173.891 14.5067 173.891 13.6C173.891 12.6933 174.072 11.8987 174.435 11.216C174.798 10.5333 175.304 10.0107 175.955 9.648C176.616 9.27467 177.374 9.088 178.227 9.088C179.059 9.088 179.795 9.26933 180.435 9.632C181.075 9.99467 181.566 10.496 181.907 11.136C182.259 11.7653 182.435 12.48 182.435 13.28ZM180.931 12.976C180.931 12.4213 180.808 11.9467 180.563 11.552C180.318 11.1467 179.982 10.8427 179.555 10.64C179.139 10.4267 178.675 10.32 178.163 10.32C177.427 10.32 176.798 10.5547 176.275 11.024C175.763 11.4933 175.47 12.144 175.395 12.976H180.931ZM185.813 10.656C186.069 10.1547 186.432 9.76533 186.901 9.488C187.381 9.21067 187.962 9.072 188.645 9.072V10.576H188.261C186.629 10.576 185.813 11.4613 185.813 13.232V18H184.357V9.232H185.813V10.656ZM193.59 16.656L196.31 9.232H197.862L194.422 18H192.726L189.286 9.232H190.854L193.59 16.656ZM207.295 13.28C207.295 13.5573 207.279 13.8507 207.247 14.16H200.239C200.292 15.024 200.585 15.7013 201.119 16.192C201.663 16.672 202.319 16.912 203.087 16.912C203.716 16.912 204.239 16.768 204.655 16.48C205.081 16.1813 205.38 15.7867 205.551 15.296H207.119C206.884 16.1387 206.415 16.8267 205.711 17.36C205.007 17.8827 204.132 18.144 203.087 18.144C202.255 18.144 201.508 17.9573 200.847 17.584C200.196 17.2107 199.684 16.6827 199.311 16C198.937 15.3067 198.751 14.5067 198.751 13.6C198.751 12.6933 198.932 11.8987 199.295 11.216C199.657 10.5333 200.164 10.0107 200.815 9.648C201.476 9.27467 202.233 9.088 203.087 9.088C203.919 9.088 204.655 9.26933 205.295 9.632C205.935 9.99467 206.425 10.496 206.767 11.136C207.119 11.7653 207.295 12.48 207.295 13.28ZM205.791 12.976C205.791 12.4213 205.668 11.9467 205.423 11.552C205.177 11.1467 204.841 10.8427 204.415 10.64C203.999 10.4267 203.535 10.32 203.023 10.32C202.287 10.32 201.657 10.5547 201.135 11.024C200.623 11.4933 200.329 12.144 200.255 12.976H205.791ZM208.672 13.584C208.672 12.688 208.854 11.904 209.216 11.232C209.579 10.5493 210.075 10.0213 210.704 9.648C211.344 9.27467 212.059 9.088 212.848 9.088C213.531 9.088 214.166 9.248 214.752 9.568C215.339 9.87733 215.787 10.288 216.096 10.8V6.16H217.568V18H216.096V16.352C215.808 16.8747 215.382 17.3067 214.816 17.648C214.251 17.9787 213.59 18.144 212.832 18.144C212.054 18.144 211.344 17.952 210.704 17.568C210.075 17.184 209.579 16.6453 209.216 15.952C208.854 15.2587 208.672 14.4693 208.672 13.584ZM216.096 13.6C216.096 12.9387 215.963 12.3627 215.696 11.872C215.43 11.3813 215.067 11.008 214.608 10.752C214.16 10.4853 213.664 10.352 213.12 10.352C212.576 10.352 212.08 10.48 211.632 10.736C211.184 10.992 210.827 11.3653 210.56 11.856C210.294 12.3467 210.16 12.9227 210.16 13.584C210.16 14.256 210.294 14.8427 210.56 15.344C210.827 15.8347 211.184 16.2133 211.632 16.48C212.08 16.736 212.576 16.864 213.12 16.864C213.664 16.864 214.16 16.736 214.608 16.48C215.067 16.2133 215.43 15.8347 215.696 15.344C215.963 14.8427 216.096 14.2613 216.096 13.6ZM220.493 18.096C220.216 18.096 219.981 18 219.789 17.808C219.597 17.616 219.501 17.3813 219.501 17.104C219.501 16.8267 219.597 16.592 219.789 16.4C219.981 16.208 220.216 16.112 220.493 16.112C220.76 16.112 220.984 16.208 221.165 16.4C221.357 16.592 221.453 16.8267 221.453 17.104C221.453 17.3813 221.357 17.616 221.165 17.808C220.984 18 220.76 18.096 220.493 18.096Z" fill="white"/>
</svg>
