<svg width="128" height="32" viewBox="0 0 128 32" fill="none" xmlns="http://www.w3.org/2000/svg">
<path d="M64.2712 17.5325C63.3434 17.5369 62.4377 17.8182 61.6684 18.3409C60.8991 18.8635 60.3007 19.6042 59.9487 20.4693C59.5966 21.3344 59.5068 22.2852 59.6905 23.2017C59.8742 24.1182 60.3231 24.9594 60.9807 25.619C61.6383 26.2786 62.475 26.7271 63.3853 26.9079C64.2955 27.0887 65.2386 26.9937 66.0953 26.6349C66.952 26.2761 67.6841 25.6695 68.1991 24.8918C68.7141 24.114 68.989 23.1999 68.989 22.2649C68.998 21.639 68.8819 21.0178 68.6478 20.438C68.4136 19.8583 68.066 19.332 67.6258 18.8904C67.1856 18.4489 66.6618 18.1011 66.0855 17.8678C65.5091 17.6345 64.8921 17.5205 64.2712 17.5325ZM64.2712 25.1377C63.7006 25.178 63.1312 25.0443 62.637 24.754C62.1428 24.4638 61.7467 24.0304 61.5002 23.5103C61.2536 22.9902 61.168 22.4073 61.2545 21.8375C61.341 21.2677 61.5956 20.7373 61.9851 20.3152C62.3747 19.8931 62.8813 19.5989 63.4389 19.4709C63.9966 19.3428 64.5796 19.3868 65.1122 19.597C65.6447 19.8073 66.1022 20.1742 66.4251 20.65C66.748 21.1258 66.9215 21.6885 66.9229 22.2649C66.9407 22.6301 66.8857 22.9953 66.7612 23.3388C66.6368 23.6823 66.4453 23.9972 66.1982 24.265C65.9511 24.5327 65.6532 24.7479 65.3223 24.8978C64.9913 25.0477 64.6339 25.1293 64.2712 25.1377ZM53.9848 17.5325C53.0565 17.5347 52.1498 17.8141 51.379 18.3355C50.6083 18.8568 50.0081 19.5967 49.6544 20.4616C49.3007 21.3265 49.2093 22.2777 49.3917 23.195C49.5741 24.1122 50.0222 24.9544 50.6794 25.6151C51.3365 26.2759 52.1732 26.7255 53.0838 26.9072C53.9944 27.0889 54.938 26.9945 55.7954 26.636C56.6527 26.2775 57.3855 25.6709 57.9009 24.8929C58.4164 24.1149 58.6915 23.2004 58.6915 22.2649C58.7006 21.639 58.5845 21.0178 58.3503 20.438C58.1162 19.8583 57.7686 19.332 57.3284 18.8904C56.8882 18.4489 56.3644 18.1011 55.788 17.8678C55.2117 17.6345 54.5947 17.5205 53.9737 17.5325H53.9848ZM53.9848 25.1377C53.4139 25.1802 52.8436 25.0485 52.3481 24.7598C51.8525 24.471 51.4547 24.0386 51.2064 23.5188C50.9581 22.999 50.8709 22.4159 50.956 21.8455C51.0411 21.275 51.2947 20.7436 51.6837 20.3204C52.0727 19.8972 52.5791 19.6018 53.137 19.4727C53.6949 19.3436 54.2784 19.3868 54.8116 19.5966C55.3448 19.8064 55.803 20.1731 56.1265 20.6491C56.45 21.125 56.6239 21.688 56.6254 22.2649C56.6432 22.6301 56.5883 22.9953 56.4638 23.3388C56.3394 23.6823 56.1479 23.9972 55.9008 24.265C55.6537 24.5327 55.3558 24.7479 55.0249 24.8978C54.6939 25.0477 54.3365 25.1293 53.9737 25.1377H53.9848ZM41.7318 18.9912V20.9955H46.5048C46.43 21.9395 46.0406 22.8303 45.3999 23.5232C44.9224 24.0134 44.3483 24.3974 43.7147 24.6505C43.081 24.9037 42.4018 25.0203 41.7207 24.993C40.3142 24.993 38.9652 24.4299 37.9706 23.4275C36.9761 22.4252 36.4173 21.0657 36.4173 19.6482C36.4173 18.2306 36.9761 16.8712 37.9706 15.8688C38.9652 14.8665 40.3142 14.3033 41.7207 14.3033C43.0662 14.2812 44.3655 14.7978 45.3336 15.7398L46.7368 14.3256C46.0833 13.6587 45.3035 13.1307 44.4438 12.773C43.5841 12.4153 42.6618 12.2352 41.7318 12.2434C40.7495 12.2048 39.7697 12.3665 38.8509 12.7188C37.9322 13.071 37.0935 13.6066 36.385 14.2933C35.6765 14.9801 35.1129 15.8039 34.728 16.7154C34.343 17.6269 34.1445 18.6074 34.1445 19.5981C34.1445 20.5887 34.343 21.5692 34.728 22.4807C35.1129 23.3922 35.6765 24.216 36.385 24.9028C37.0935 25.5895 37.9322 26.1251 38.8509 26.4773C39.7697 26.8296 40.7495 26.9913 41.7318 26.9528C42.6775 26.9958 43.6214 26.8343 44.4999 26.4789C45.3785 26.1236 46.1714 25.5828 46.8252 24.8928C47.9828 23.611 48.6008 21.9261 48.5488 20.1938C48.5524 19.7718 48.5154 19.3504 48.4383 18.9355L41.7318 18.9912ZM91.7935 20.5501C91.5054 19.6958 90.9666 18.9498 90.2484 18.4109C89.5302 17.872 88.6666 17.5657 87.7718 17.5325C87.1674 17.5313 86.5692 17.6551 86.0142 17.8961C85.4592 18.1371 84.9591 18.4904 84.5449 18.9339C84.1307 19.3774 83.8111 19.9019 83.606 20.4748C83.4009 21.0478 83.3145 21.657 83.3523 22.2649C83.3389 22.8873 83.4501 23.5059 83.6792 24.084C83.9083 24.6621 84.2507 25.1877 84.6859 25.6294C85.1212 26.0712 85.6403 26.42 86.2122 26.655C86.7842 26.89 87.3973 27.0064 88.0149 26.9973C88.7877 27.0015 89.5496 26.8125 90.2321 26.4471C90.9147 26.0818 91.4968 25.5516 91.9261 24.9039L90.3241 23.7904C90.0849 24.1921 89.7464 24.5244 89.3417 24.7547C88.9369 24.9851 88.4797 25.1055 88.0149 25.1043C87.5363 25.1227 87.0633 24.9956 86.6574 24.7394C86.2514 24.4832 85.9314 24.1099 85.7388 23.6679L92.0256 21.0512L91.7935 20.5501ZM85.3853 22.1313C85.3629 21.7869 85.4089 21.4414 85.5206 21.1151C85.6324 20.7889 85.8076 20.4884 86.036 20.2312C86.2644 19.974 86.5415 19.7654 86.8509 19.6175C87.1604 19.4695 87.496 19.3853 87.8381 19.3698C88.1945 19.3461 88.5499 19.4285 88.8603 19.6066C89.1706 19.7848 89.4222 20.0509 89.5838 20.3719L85.3853 22.1313ZM80.2808 26.7189H82.3469V12.8001H80.2808V26.7189ZM76.8999 18.5903H76.8225C76.5111 18.2395 76.1297 17.9589 75.7031 17.767C75.2766 17.5751 74.8147 17.4762 74.3476 17.4768C73.1402 17.5358 72.0016 18.0608 71.1677 18.9429C70.3339 19.8249 69.8688 20.9965 69.8688 22.2148C69.8688 23.4331 70.3339 24.6047 71.1677 25.4867C72.0016 26.3688 73.1402 26.8937 74.3476 26.9528C74.8158 26.9607 75.28 26.8651 75.7076 26.6727C76.1352 26.4803 76.5158 26.1958 76.8225 25.8393H76.8888V26.5185C76.8888 28.3335 75.9276 29.3023 74.3807 29.3023C73.8656 29.2901 73.3656 29.1237 72.9446 28.8243C72.5235 28.5249 72.2004 28.106 72.0163 27.6209L70.2154 28.378C70.5544 29.2091 71.132 29.9192 71.8742 30.4172C72.6163 30.9151 73.4892 31.1783 74.3807 31.1729C76.8004 31.1729 78.8002 29.7365 78.8002 26.2401V17.8109H76.8999V18.5903ZM74.5354 25.1377C73.8227 25.0744 73.1594 24.7444 72.6762 24.2126C72.193 23.6808 71.925 22.986 71.925 22.2649C71.925 21.5439 72.193 20.849 72.6762 20.3172C73.1594 19.7854 73.8227 19.4554 74.5354 19.3921C74.8888 19.4103 75.235 19.4997 75.5535 19.6549C75.8721 19.8101 76.1566 20.0279 76.3903 20.2957C76.6241 20.5634 76.8023 20.8755 76.9144 21.2137C77.0266 21.5519 77.0705 21.9093 77.0435 22.2649C77.0736 22.622 77.0316 22.9815 76.9199 23.3218C76.8083 23.662 76.6293 23.9759 76.3938 24.2445C76.1583 24.513 75.8712 24.7306 75.5499 24.8842C75.2286 25.0377 74.8797 25.124 74.5244 25.1377H74.5354ZM101.472 12.8001H96.5334V26.7189H98.5996V21.4409H101.483C102.072 21.4835 102.663 21.4035 103.22 21.2057C103.777 21.0079 104.287 20.6966 104.719 20.2912C105.152 19.8859 105.496 19.3951 105.732 18.8496C105.968 18.3041 106.089 17.7155 106.089 17.1205C106.089 16.5255 105.968 15.9369 105.732 15.3914C105.496 14.8459 105.152 14.3552 104.719 13.9498C104.287 13.5445 103.777 13.2332 103.22 13.0354C102.663 12.8376 102.072 12.7575 101.483 12.8001H101.472ZM101.472 19.4811H98.5885V14.7376H101.516C102.145 14.7376 102.748 14.9893 103.192 15.4372C103.637 15.8851 103.886 16.4926 103.886 17.1261C103.886 17.7595 103.637 18.3671 103.192 18.815C102.748 19.2629 102.145 19.5145 101.516 19.5145L101.472 19.4811ZM114.211 17.4768C113.459 17.4315 112.71 17.6087 112.057 17.9865C111.403 18.3643 110.873 18.9264 110.532 19.6036L112.366 20.3719C112.547 20.0361 112.821 19.7604 113.154 19.5785C113.488 19.3966 113.867 19.3164 114.245 19.3475C114.507 19.3166 114.773 19.3387 115.026 19.4125C115.28 19.4862 115.517 19.6101 115.722 19.777C115.928 19.9439 116.099 20.1504 116.224 20.3844C116.35 20.6185 116.428 20.8754 116.454 21.1403V21.285C115.791 20.9309 115.051 20.7473 114.3 20.7505C112.322 20.7505 110.322 21.864 110.322 23.8795C110.342 24.3092 110.447 24.7307 110.631 25.1189C110.814 25.5071 111.074 25.8542 111.393 26.1397C111.712 26.4252 112.085 26.6432 112.49 26.781C112.894 26.9187 113.322 26.9733 113.747 26.9416C114.268 26.9793 114.788 26.8751 115.255 26.64C115.722 26.4049 116.117 26.0475 116.399 25.6054H116.465V26.7189H118.454V21.363C118.454 18.9244 116.62 17.5102 114.267 17.5102L114.211 17.4768ZM113.957 25.1043C113.283 25.1043 112.344 24.7592 112.344 23.924C112.344 22.8105 113.515 22.4431 114.554 22.4431C115.21 22.4267 115.859 22.5883 116.432 22.9107C116.363 23.5136 116.08 24.071 115.636 24.4802C115.191 24.8894 114.615 25.123 114.013 25.1377L113.957 25.1043ZM125.702 17.8109L123.338 23.8461H123.271L120.819 17.8109H118.609L122.288 26.2513L120.189 30.9391H122.343L128 17.8109H125.702ZM107.129 26.7189H109.195V12.8001H107.129V26.7189Z" fill="white"/>
<path d="M41.3855 4.78569C41.4043 5.19411 41.3405 5.60212 41.198 5.98495C41.0556 6.36777 40.8374 6.71743 40.5568 7.0127C40.2435 7.34073 39.8651 7.59853 39.4463 7.76928C39.0274 7.94004 38.5776 8.01992 38.1261 8.00372C37.4411 7.99832 36.7728 7.78929 36.2052 7.40282C35.6375 7.01635 35.1956 6.46964 34.9349 5.83118C34.6742 5.19272 34.6062 4.49091 34.7395 3.8137C34.8728 3.13649 35.2015 2.51399 35.6843 2.0242C36.0017 1.6977 36.3821 1.4403 36.8021 1.26793C37.2221 1.09555 37.6727 1.01187 38.1261 1.02205C38.5932 1.02048 39.0557 1.11521 39.4851 1.30042C39.8849 1.46294 40.2408 1.71861 40.5237 2.04647L39.9381 2.63663C39.7176 2.37228 39.4391 2.16323 39.1246 2.02602C38.8101 1.88881 38.4683 1.8272 38.1261 1.84604C37.781 1.84434 37.4391 1.91288 37.1209 2.04757C36.8027 2.18226 36.5148 2.38033 36.2744 2.62988C36.034 2.87944 35.8461 3.17535 35.7219 3.49987C35.5977 3.82439 35.5398 4.17084 35.5517 4.51845C35.5445 5.03749 35.69 5.54707 35.9698 5.9829C36.2496 6.41872 36.6512 6.76128 37.1239 6.96734C37.5967 7.1734 38.1194 7.23374 38.6261 7.14074C39.1328 7.04775 39.6009 6.80559 39.9712 6.44481C40.3112 6.0735 40.5073 5.59132 40.5237 5.08634H38.1261V4.28462H41.3413C41.3708 4.44999 41.3855 4.61768 41.3855 4.78569ZM46.4458 2.00193H43.4626V4.11759H46.1806V4.91931H43.4626V7.03497H46.4458V7.85897H42.5787V1.17794H46.4458V2.00193ZM50.0698 7.85897H49.219V2.00193H47.3628V1.17794H51.9702V2.00193H50.0698V7.85897ZM55.2185 7.85897V1.17794H56.0692V7.85897H55.2185ZM59.8479 7.85897H58.9971V2.00193H57.141V1.17794H61.693V2.00193H59.8479V7.85897ZM70.3221 6.99043C69.6762 7.63776 68.8023 8.00113 67.8914 8.00113C66.9805 8.00113 66.1066 7.63776 65.4607 6.99043C64.8328 6.32068 64.4831 5.43424 64.4831 4.51289C64.4831 3.59153 64.8328 2.70508 65.4607 2.03534C65.779 1.71214 66.1577 1.45562 66.5749 1.28057C66.9921 1.10552 67.4395 1.0154 67.8914 1.0154C68.3433 1.0154 68.7907 1.10552 69.2079 1.28057C69.625 1.45562 70.0037 1.71214 70.3221 2.03534C70.9524 2.70381 71.3039 3.59073 71.3039 4.51289C71.3039 5.43504 70.9524 6.32196 70.3221 6.99043ZM66.0904 6.43368C66.5688 6.91374 67.2163 7.18326 67.8914 7.18326C68.5664 7.18326 69.214 6.91374 69.6923 6.43368C70.1644 5.90924 70.4258 5.22652 70.4258 4.51845C70.4258 3.81039 70.1644 3.12766 69.6923 2.60323C69.214 2.12317 68.5664 1.85364 67.8914 1.85364C67.2163 1.85364 66.5688 2.12317 66.0904 2.60323C65.6184 3.12766 65.3569 3.81039 65.3569 4.51845C65.3569 5.22652 65.6184 5.90924 66.0904 6.43368ZM72.4987 7.85897V1.17794H73.5373L76.7635 6.378V1.17794H77.6143V7.85897H76.7304L73.3605 2.41393V7.85897H72.4987Z" fill="white"/>
<path fill-rule="evenodd" clip-rule="evenodd" d="M67.8914 1.12675C67.4541 1.12675 67.0211 1.21397 66.6173 1.38337C66.2141 1.55259 65.8479 1.80049 65.54 2.11281C64.9322 2.76176 64.5935 3.62042 64.5935 4.51289C64.5935 5.40523 64.9321 6.26378 65.5398 6.91271C66.1649 7.53852 67.0102 7.88978 67.8914 7.88978C68.7726 7.88978 69.618 7.53847 70.2431 6.91257C70.8532 6.26494 71.1934 5.40596 71.1934 4.51289C71.1934 3.6197 70.8531 2.76062 70.2429 2.11295C69.9349 1.80057 69.5688 1.55262 69.1654 1.38337C68.7617 1.21397 68.3287 1.12675 67.8914 1.12675ZM66.5324 1.17777C66.9631 0.99708 67.4249 0.904053 67.8914 0.904053C68.3578 0.904053 68.8197 0.99708 69.2503 1.17777C69.681 1.35847 70.0719 1.62326 70.4005 1.95689L70.4022 1.95862C71.052 2.64778 71.4143 3.56218 71.4143 4.51289C71.4143 5.46359 71.052 6.37797 70.4022 7.06714L70.4 7.06942C69.7334 7.7375 68.8315 8.11248 67.8914 8.11248C66.9513 8.11248 66.0494 7.73747 65.3827 7.06939L65.3803 7.06694C64.7331 6.37652 64.3726 5.46268 64.3726 4.51289C64.3726 3.56309 64.7331 2.64929 65.3803 1.95887L65.3822 1.95686C65.7109 1.62324 66.1018 1.35847 66.5324 1.17777ZM38.1236 1.13337C37.6854 1.12353 37.2498 1.20442 36.8438 1.37105C36.4378 1.53769 36.07 1.78651 35.7633 2.10212L35.7627 2.10268C35.2952 2.57692 34.977 3.17966 34.8479 3.83537C34.7188 4.49109 34.7846 5.17061 35.0371 5.7888C35.2895 6.40699 35.7174 6.93635 36.267 7.31055C36.8167 7.68475 37.4637 7.88714 38.127 7.89237L38.13 7.8924C38.566 7.90804 39.0004 7.83095 39.4048 7.66606C39.8092 7.50119 40.1746 7.25229 40.4771 6.93559C40.7473 6.65124 40.9574 6.31451 41.0946 5.94585C41.2318 5.57715 41.2932 5.1842 41.2751 4.79085L41.3855 4.78569L41.275 4.78565C41.275 4.65521 41.2658 4.52498 41.2473 4.39597H38.2366V4.97499H40.6378L40.6341 5.08998C40.6169 5.62167 40.4104 6.12937 40.0524 6.52033L40.0482 6.52501C39.6621 6.90107 39.1741 7.15336 38.6459 7.25029C38.1177 7.34723 37.5728 7.28433 37.08 7.06954C36.5873 6.85475 36.1686 6.49768 35.877 6.04339C35.5858 5.58985 35.4342 5.05969 35.4412 4.51959C35.4292 4.15791 35.4896 3.79747 35.6188 3.45981C35.7483 3.12129 35.9443 2.81263 36.1951 2.55232C36.4459 2.29201 36.7462 2.08541 37.0781 1.94491C37.409 1.80484 37.7645 1.73335 38.1234 1.73468C38.4815 1.71547 38.8393 1.78021 39.1685 1.92384C39.4618 2.05184 39.7254 2.23937 39.9429 2.47428L40.3713 2.04261C40.1119 1.76482 39.7955 1.54668 39.4438 1.40369L39.4416 1.40282C39.026 1.22358 38.5785 1.13188 38.1265 1.1334L38.1236 1.13337ZM41.496 4.78314C41.515 5.20576 41.4489 5.6279 41.3015 6.02405C41.1538 6.421 40.9276 6.78356 40.6366 7.08972C40.3125 7.42903 39.9209 7.69588 39.4877 7.87251C39.0549 8.04894 38.5902 8.13158 38.1237 8.11505C37.4175 8.10918 36.7286 7.89354 36.1433 7.49509C35.5576 7.09635 35.1017 6.53228 34.8327 5.87355C34.5637 5.21483 34.4936 4.49074 34.6312 3.79203C34.7687 3.09345 35.1077 2.45129 35.6057 1.946C35.9335 1.60875 36.3265 1.34287 36.7604 1.1648C37.194 0.986858 37.6591 0.900378 38.1271 0.910694C38.6084 0.909272 39.085 1.0069 39.5275 1.1976C39.9431 1.36672 40.313 1.63257 40.6071 1.97341L40.6747 2.05178L39.931 2.80121L39.8535 2.70828C39.644 2.45715 39.3794 2.25856 39.0807 2.12821C38.7819 1.99786 38.4572 1.93932 38.1321 1.95723L38.1256 1.95759C37.7953 1.95596 37.4682 2.02135 37.1637 2.15024C36.8592 2.27912 36.5837 2.46865 36.3536 2.70744C36.1236 2.94624 35.9438 3.2294 35.825 3.53993C35.7061 3.85047 35.6508 4.18199 35.6622 4.51461L35.6624 4.52002C35.6554 5.01707 35.7946 5.50505 36.0625 5.92241C36.3305 6.33977 36.715 6.66781 37.1678 6.86514C37.6205 7.06247 38.121 7.12025 38.6063 7.03119C39.0905 6.94233 39.5379 6.71124 39.8922 6.36697C40.187 6.04395 40.3671 5.63273 40.4062 5.19769H38.0156V4.17327H41.4337L41.45 4.26493C41.4805 4.43596 41.4959 4.60938 41.496 4.78314ZM42.4682 1.06659H46.5563V2.11328H43.5731V4.00624H46.2911V5.03066H43.5731V6.92362H46.5563V7.97032H42.4682V1.06659ZM42.6892 1.28929V7.74761H46.3353V7.14632H43.3521V4.80796H46.0701V4.22894H43.3521V1.89058H46.3353V1.28929H42.6892ZM47.2524 1.06659H52.0806V2.11328H50.1803V7.97032H49.1085V2.11328H47.2524V1.06659ZM47.4733 1.28929V1.89058H49.3295V7.74761H49.9593V1.89058H51.8597V1.28929H47.4733ZM55.108 1.06659H56.1797V7.97032H55.108V1.06659ZM55.329 1.28929V7.74761H55.9587V1.28929H55.329ZM57.0305 1.06659H61.8035V2.11328H59.9584V7.97032H58.8867V2.11328H57.0305V1.06659ZM57.2514 1.28929V1.89058H59.1076V7.74761H59.7374V1.89058H61.5826V1.28929H57.2514ZM72.3882 1.06659H73.5985L76.653 5.98989V1.06659H77.7247V7.97032H76.6691L73.471 2.80286V7.97032H72.3882V1.06659ZM72.6092 1.28929V7.74761H73.25V2.025L76.7917 7.74761H77.5038V1.28929H76.874V6.76612L73.476 1.28929H72.6092ZM66.0125 2.52432C66.5115 2.02349 67.1871 1.74229 67.8914 1.74229C68.5957 1.74229 69.2712 2.02349 69.7703 2.52432L69.7743 2.52832C70.2647 3.07324 70.5363 3.78273 70.5363 4.51845C70.5363 5.25418 70.2646 5.96357 69.7742 6.50849L69.7704 6.51268C69.2713 7.01352 68.5957 7.29461 67.8914 7.29461C67.1871 7.29461 66.5115 7.01342 66.0125 6.51258L66.0904 6.43368L66.0086 6.50849C65.5181 5.96357 65.2464 5.25418 65.2464 4.51845C65.2464 3.78273 65.5181 3.07334 66.0086 2.52841L66.0125 2.52432ZM66.1704 6.35678C66.6278 6.8148 67.2465 7.07191 67.8914 7.07191C68.5363 7.07191 69.1549 6.8148 69.6124 6.35678C70.0648 5.8531 70.3153 5.19792 70.3153 4.51845C70.3153 3.83898 70.0648 3.1838 69.6124 2.68012C69.1549 2.2221 68.5363 1.96499 67.8914 1.96499C67.2465 1.96499 66.6278 2.2221 66.1704 2.68012C65.718 3.1838 65.4674 3.83898 65.4674 4.51845C65.4674 5.19792 65.718 5.8531 66.1704 6.35678Z" fill="white"/>
<path d="M0.520013 1.70954C0.159896 2.14504 -0.021869 2.70256 0.0117704 3.26845V27.8992C-0.021869 28.4651 0.159896 29.0226 0.520013 29.4581L0.597354 29.536L14.2867 15.7508V15.4279L0.597354 1.63159L0.520013 1.70954Z" fill="url(#paint0_linear_2598_11320)"/>
<path d="M18.8151 20.3497L14.2852 15.7509V15.428L18.8151 10.8181L18.9146 10.8738L24.3395 13.9805C25.8863 14.8601 25.8863 16.3077 24.3395 17.1985L18.9367 20.294L18.8151 20.3497Z" fill="url(#paint1_linear_2598_11320)"/>
<path d="M18.9488 20.283L14.2862 15.584L0.519531 29.4583C0.83482 29.7376 1.23703 29.8971 1.65664 29.9093C2.07626 29.9215 2.48692 29.7856 2.81767 29.5251L18.9599 20.283" fill="url(#paint2_linear_2598_11320)"/>
<path d="M18.9481 10.8849L2.80595 1.64283C2.47521 1.38229 2.06454 1.24637 1.64493 1.25857C1.22531 1.27077 0.823102 1.43032 0.507812 1.70964L14.2856 15.5839L18.9481 10.8849Z" fill="url(#paint3_linear_2598_11320)"/>
<path opacity="0.2" d="M18.8162 20.1826L2.80662 29.369C2.48763 29.6094 2.10003 29.7393 1.70174 29.7393C1.30346 29.7393 0.91586 29.6094 0.596872 29.369L0.519531 29.447L0.596872 29.5249C0.915137 29.767 1.30301 29.898 1.70174 29.898C2.10048 29.898 2.48835 29.767 2.80662 29.5249L18.9488 20.2828L18.8162 20.1826Z" fill="white"/>
<path opacity="0.12" d="M0.520013 29.3024C0.159896 28.8669 -0.021869 28.3093 0.0117704 27.7435V27.9105C-0.021869 28.4764 0.159896 29.0339 0.520013 29.4694L0.597354 29.3914L0.520013 29.3024ZM24.3411 17.0315L18.8167 20.1828L18.9161 20.283L24.3411 17.1874C24.6489 17.0417 24.9131 16.8167 25.1071 16.5352C25.3011 16.2537 25.418 15.9256 25.4459 15.584C25.3838 15.8943 25.2519 16.1862 25.0604 16.4371C24.8688 16.6881 24.6228 16.8914 24.3411 17.0315Z" fill="white"/>
<path opacity="0.25" d="M2.80638 1.79824L24.3403 14.1359C24.622 14.276 24.8681 14.4794 25.0596 14.7303C25.2512 14.9812 25.3831 15.2731 25.4452 15.5834C25.4172 15.2418 25.3004 14.9137 25.1064 14.6322C24.9124 14.3507 24.6482 14.1257 24.3403 13.98L2.80638 1.64235C1.25956 0.762684 0 1.4976 0 3.27921V3.44623C0.0331462 1.65349 1.2706 0.918576 2.80638 1.79824Z" fill="white"/>
<defs>
<linearGradient id="paint0_linear_2598_11320" x1="13.0714" y1="3.01234" x2="-5.61267" y2="21.5515" gradientUnits="userSpaceOnUse">
<stop stop-color="#00A0FF"/>
<stop offset="0.01" stop-color="#00A1FF"/>
<stop offset="0.26" stop-color="#00BEFF"/>
<stop offset="0.51" stop-color="#00D2FF"/>
<stop offset="0.76" stop-color="#00DFFF"/>
<stop offset="1" stop-color="#00E3FF"/>
</linearGradient>
<linearGradient id="paint1_linear_2598_11320" x1="26.3614" y1="15.5839" x2="-0.365455" y2="15.5839" gradientUnits="userSpaceOnUse">
<stop stop-color="#FFE000"/>
<stop offset="0.41" stop-color="#FFBD00"/>
<stop offset="0.78" stop-color="#FFA500"/>
<stop offset="1" stop-color="#FF9C00"/>
</linearGradient>
<linearGradient id="paint2_linear_2598_11320" x1="16.4186" y1="18.145" x2="-8.92386" y2="43.2801" gradientUnits="userSpaceOnUse">
<stop stop-color="#FF3A44"/>
<stop offset="1" stop-color="#C31162"/>
</linearGradient>
<linearGradient id="paint3_linear_2598_11320" x1="-2.95044" y1="-6.48575" x2="8.36242" y2="4.73941" gradientUnits="userSpaceOnUse">
<stop stop-color="#32A071"/>
<stop offset="0.07" stop-color="#2DA771"/>
<stop offset="0.48" stop-color="#15CF74"/>
<stop offset="0.8" stop-color="#06E775"/>
<stop offset="1" stop-color="#00F076"/>
</linearGradient>
</defs>
</svg>
