<svg width="160" height="160" viewBox="0 0 160 160" fill="none" xmlns="http://www.w3.org/2000/svg">
<path d="M95.986 156.552C86.1583 156.068 84.1637 138.349 84.0977 130.759C84.4939 122.699 91.8251 122.095 102.921 124.311C114.017 126.528 115.205 140.23 113.026 145.67C110.846 151.111 108.271 157.156 95.986 156.552Z" fill="#2B495F" stroke="#1B2E3B" stroke-width="3.69096"/>
<ellipse cx="102.917" cy="155.389" rx="11.2054" ry="3.40164" transform="rotate(-1.4975 102.917 155.389)" fill="#1B2E3B"/>
<path d="M57.3842 157.039C46.3425 156.504 44.1015 136.929 44.0273 128.544C44.4726 119.639 52.7093 118.971 65.1757 121.42C77.6421 123.869 78.9778 139.007 76.529 145.017C74.0803 151.028 71.1863 157.707 57.3842 157.039Z" fill="#2B495F" stroke="#1B2E3B" stroke-width="3.69096"/>
<ellipse cx="64.0346" cy="155.926" rx="12.4664" ry="3.78444" transform="rotate(-0.446353 64.0346 155.926)" fill="#1B2E3B"/>
<path d="M118.972 77.6274C124.433 83.7995 124.33 89.2157 123.584 93.5189C132.499 107.345 122.518 113.306 109.215 104.91C95.9111 96.5143 94.8133 83.906 98.9081 78.1195C104.29 70.514 112.846 70.704 118.972 77.6274Z" fill="#2B495F" stroke="#1B2E3B" stroke-width="3.69096" stroke-linejoin="round"/>
<path d="M115.931 132.328C123.411 122.177 123.699 105.491 115.724 94.0426C103.123 79.276 93.7264 87.5374 83.0409 84.1982C71.2277 80.6542 73.5903 71.0067 61.5802 73.96C54.8533 75.6142 51.539 78.2915 44.4508 86.5608C39.7256 92.4674 36.8626 101.607 39.5339 112.738C42.8073 126.377 50.2194 135.89 64.2441 141.678C78.2688 147.466 106.581 145.017 115.931 132.328Z" fill="#2B495F" stroke="#1B2E3B" stroke-width="3.69096"/>
<path d="M66.2881 100.048C76.0832 103.61 91.0095 91.3882 103.238 92.0342C115.891 92.7027 119.675 106.505 119.452 114.296C119.128 125.654 112.774 138.339 93.4066 140.565C80.8258 142.011 67.8059 142.568 54.8943 132.773C48.8138 128.16 42.8072 119.793 41.6942 113.337C40.5494 106.698 40.3159 102.706 41.3005 97.3896C42.1123 93.0068 46.4754 89.3632 48.0337 90.4765C53.5991 94.9288 58.4521 97.1986 66.2881 100.048Z" fill="white"/>
<ellipse cx="96.1522" cy="131.381" rx="16.6961" ry="6.49372" transform="rotate(-17.8415 96.1522 131.381)" fill="#DFE9F1"/>
<path d="M98.1201 30.8411C90.8467 25.8887 88.7252 17.737 92.0862 12.8007C95.4473 7.86446 103.809 6.85098 111.083 11.8034C118.356 16.7558 120.478 24.9075 117.117 29.8438C113.756 34.7801 105.394 35.7935 98.1201 30.8411Z" fill="#2B495F" stroke="#1B2E3B" stroke-width="3.69096"/>
<ellipse cx="105.973" cy="22.5865" rx="6.28148" ry="7.98568" transform="rotate(133.729 105.973 22.5865)" fill="#1B2E3B"/>
<ellipse cx="109.165" cy="19.9" rx="1.12419" ry="2.29369" transform="rotate(136.293 109.165 19.9)" fill="#5F91B7"/>
<path d="M124.685 51.2712C124.685 73.7758 104.001 92.3903 78.0006 92.3903C51.9998 92.3903 31.3162 73.7758 31.3162 51.2712C31.3162 28.7666 51.9998 10.1521 78.0006 10.1521C104.001 10.1521 124.685 28.7666 124.685 51.2712Z" fill="white" stroke="#1B2E3B" stroke-width="3.69096"/>
<ellipse cx="41.012" cy="49.9131" rx="12.2432" ry="6.343" transform="rotate(-94.4878 41.012 49.9131)" fill="#DFE9F1"/>
<path d="M82.3531 57.5197C81.7924 61.8692 89.5147 62.6898 89.7311 62.9499C100.034 60.7914 99.3146 54.6387 95.165 53.353C91.0155 52.0673 82.9137 53.1701 82.3531 57.5197Z" fill="#1B2E3B"/>
<path d="M83.7153 71.713C80.7005 73.8449 77.0096 75.229 70.7809 73.3835" stroke="#1B2E3B" stroke-width="3.69096" stroke-linecap="round"/>
<path d="M90.5178 55.7319C91.9038 55.367 93.9064 55.5844 94.9478 56.1962" stroke="white" stroke-width="3.69096" stroke-linecap="round"/>
<ellipse cx="66.7818" cy="49.806" rx="10.8905" ry="15.5013" transform="rotate(22.7114 66.7818 49.806)" fill="#39627F"/>
<ellipse cx="71.4818" cy="54.8698" rx="3.93104" ry="4.32414" fill="#1B2E3B"/>
<ellipse cx="73.1767" cy="56.5319" rx="1.76897" ry="2.16207" transform="rotate(-4.53949 73.1767 56.5319)" fill="white"/>
<ellipse cx="107.504" cy="47.5281" rx="8.38181" ry="14.6065" transform="rotate(-27.1104 107.504 47.5281)" fill="#39627F"/>
<ellipse cx="107.929" cy="54.8698" rx="3.93104" ry="4.32414" fill="#1B2E3B"/>
<ellipse cx="108.702" cy="56.5319" rx="1.76897" ry="2.16207" transform="rotate(-4.53949 108.702 56.5319)" fill="white"/>
<path d="M127.862 115.073L84.0528 128.448C80.6605 129.484 77.0804 127.51 76.1472 124.086L67.0991 90.919C66.1954 87.8638 68.0272 84.0607 71.5892 82.6964L109.83 72.2504L115.001 70.8397C117.528 70.1488 120.119 71.7098 120.69 74.2678L121.275 76.8786C122.795 77.3481 124.032 78.5925 124.406 80.2633L130.997 109.691C131.519 112.029 130.155 114.375 127.862 115.073Z" fill="#E77E23"/>
<g opacity="0.3">
<path d="M77.3775 87.8132C74.964 89.3799 66.6623 87.2591 73.3161 84.4755L110.714 74.236L115.446 72.9454C117.973 72.2545 120.564 73.8155 121.136 76.3709" fill="#650000"/>
</g>
<g opacity="0.6">
<path d="M118.543 71.3115C117.877 71.1833 117.176 71.2027 116.475 71.3939L111.304 72.8045L73.0635 83.2505C69.501 84.6175 67.6698 88.418 68.5734 91.4732L77.6236 124.644C78.1025 126.397 79.2713 127.768 80.7572 128.552C78.5995 128.035 76.7755 126.39 76.1489 124.089L67.0987 90.9188C66.195 87.8636 68.0268 84.0605 71.5887 82.6961L109.829 72.2501L115 70.8395C116.252 70.4958 117.516 70.7052 118.543 71.3115Z" fill="white"/>
</g>
<g opacity="0.3">
<path d="M127.862 115.073L84.0537 128.447C81.7598 129.147 79.3776 128.471 77.7903 126.9C78.9466 127.253 80.2145 127.278 81.4599 126.9L125.269 113.525C127.559 112.827 128.926 110.481 128.401 108.143L127.431 103.806L119.582 106.021C116.657 106.846 113.633 105.061 112.946 102.097C112.766 101.327 112.764 100.554 112.914 99.8238C113.302 97.9303 114.712 96.3209 116.686 95.7628L125.099 93.3872L127.214 92.7915L129.544 103.205L130.996 109.685C131.52 112.029 130.156 114.375 127.862 115.073Z" fill="#650000"/>
</g>
<g opacity="0.3">
<path d="M127.214 92.7974L125.099 93.3931L121.812 78.7127C121.632 77.9148 121.611 77.6698 121.446 77.264C121.471 77.145 121.114 77.0718 121.221 76.6266L121.278 76.8736C122.798 77.3431 124.035 78.5875 124.409 80.2583L127.214 92.7974Z" fill="#650000"/>
</g>
<path d="M70.9292 91.8018C70.9133 91.7985 70.8947 91.7947 70.8799 91.7861C70.3449 91.5878 69.9273 91.3306 69.6443 91.0234C69.5174 90.8867 69.5254 90.6725 69.6621 90.5456C69.7988 90.4186 70.0131 90.4266 70.14 90.5633C70.3483 90.7887 70.686 90.9908 71.1153 91.1508C71.2899 91.2171 71.3804 91.41 71.3136 91.5873C71.256 91.747 71.0912 91.835 70.9292 91.8018Z" fill="#650000"/>
<path d="M82.1882 126.18C82.0315 126.148 81.9141 126.005 81.9176 125.84C81.9228 125.653 82.0777 125.505 82.2648 125.51C82.9777 125.529 83.7487 125.413 84.5548 125.166L84.7614 125.103C84.9414 125.049 85.1307 125.151 85.1824 125.331C85.2368 125.511 85.1344 125.7 84.9549 125.752L84.7489 125.812C83.8751 126.078 83.0302 126.204 82.2456 126.184C82.2285 126.186 82.2094 126.185 82.1882 126.18ZM87.333 125.005C87.2135 124.981 87.1124 124.894 87.0769 124.77C87.0225 124.59 87.1249 124.401 87.3044 124.349L89.8447 123.594C90.0246 123.54 90.2139 123.642 90.2657 123.822C90.3201 124.002 90.2176 124.191 90.0382 124.243L87.4979 124.997C87.442 125.014 87.3861 125.016 87.333 125.005ZM92.411 123.495C92.2915 123.471 92.1904 123.384 92.1548 123.26C92.1004 123.08 92.2029 122.891 92.3823 122.839L94.9226 122.084C95.1026 122.03 95.2919 122.132 95.3436 122.312C95.3954 122.491 95.2956 122.681 95.1161 122.733L92.5758 123.488C92.5199 123.504 92.4641 123.506 92.411 123.495ZM97.4895 121.983C97.37 121.958 97.2688 121.871 97.2333 121.747C97.1789 121.567 97.2814 121.378 97.4608 121.326L100.001 120.572C100.181 120.517 100.37 120.62 100.422 120.799C100.477 120.979 100.374 121.168 100.195 121.22L97.6543 121.975C97.5984 121.991 97.5426 121.993 97.4895 121.983ZM102.568 120.47C102.448 120.445 102.347 120.358 102.312 120.235C102.257 120.055 102.36 119.865 102.539 119.814L105.08 119.059C105.26 119.005 105.449 119.107 105.501 119.286C105.555 119.466 105.453 119.656 105.273 119.708L102.733 120.462C102.676 120.481 102.621 120.481 102.568 120.47ZM107.646 118.96C107.526 118.935 107.425 118.848 107.39 118.725C107.335 118.545 107.438 118.355 107.617 118.304L110.158 117.549C110.338 117.495 110.527 117.597 110.579 117.777C110.633 117.956 110.53 118.146 110.351 118.198L107.811 118.952C107.755 118.968 107.699 118.971 107.646 118.96ZM112.724 117.447C112.605 117.423 112.504 117.336 112.468 117.212C112.414 117.032 112.516 116.843 112.696 116.791L115.236 116.036C115.416 115.982 115.605 116.084 115.657 116.264C115.711 116.444 115.609 116.633 115.43 116.685L112.889 117.44C112.833 117.456 112.778 117.458 112.724 117.447ZM117.803 115.935C117.683 115.91 117.582 115.823 117.547 115.7C117.492 115.52 117.595 115.33 117.774 115.278L120.315 114.524C120.494 114.469 120.684 114.572 120.736 114.751C120.79 114.931 120.687 115.121 120.508 115.172L117.968 115.927C117.911 115.946 117.856 115.946 117.803 115.935ZM122.881 114.425C122.761 114.4 122.66 114.313 122.625 114.19C122.57 114.01 122.673 113.82 122.852 113.768L125.119 113.093C125.201 113.069 125.285 113.039 125.366 113.008C125.54 112.942 125.737 113.032 125.801 113.206C125.868 113.38 125.778 113.577 125.604 113.641C125.508 113.677 125.41 113.709 125.313 113.739L123.046 114.414C122.99 114.433 122.934 114.436 122.881 114.425ZM127.501 112.082C127.454 112.072 127.411 112.052 127.37 112.022C127.218 111.91 127.187 111.699 127.298 111.548C127.66 111.055 127.915 110.482 128.038 109.884C128.079 109.682 128.105 109.477 128.117 109.272C128.127 109.086 128.287 108.942 128.473 108.952C128.659 108.962 128.803 109.122 128.793 109.308C128.78 109.546 128.747 109.786 128.699 110.02C128.558 110.71 128.26 111.377 127.841 111.95C127.76 112.06 127.626 112.108 127.501 112.082ZM127.97 107.02C127.845 106.994 127.737 106.897 127.707 106.764L127.113 104.181C127.07 103.998 127.185 103.817 127.368 103.774C127.551 103.732 127.732 103.846 127.775 104.029L128.369 106.612C128.412 106.795 128.297 106.976 128.114 107.019C128.065 107.028 128.015 107.029 127.97 107.02ZM73.5348 92.2087C73.3808 92.1771 73.265 92.0398 73.2653 91.8766C73.2652 91.6884 73.418 91.5371 73.6056 91.5396C74.4217 91.541 75.2824 91.4463 76.1649 91.2593C76.3474 91.2192 76.5281 91.3365 76.5676 91.5218C76.6077 91.7043 76.4903 91.885 76.3051 91.9245C75.3764 92.1215 74.4678 92.2202 73.6049 92.2175C73.5778 92.2147 73.5561 92.213 73.5348 92.2087ZM126.779 101.855C126.655 101.829 126.547 101.732 126.516 101.599L125.922 99.0167C125.88 98.8336 125.994 98.6523 126.178 98.6096C126.361 98.5669 126.542 98.6816 126.585 98.8647L127.178 101.447C127.221 101.63 127.107 101.811 126.923 101.854C126.877 101.864 126.827 101.865 126.779 101.855ZM78.7244 91.2474C78.6022 91.2223 78.499 91.132 78.4645 91.0031C78.416 90.8216 78.5206 90.6355 78.7021 90.5869L81.2586 89.8881C81.4401 89.8396 81.6262 89.9442 81.6748 90.1257C81.7233 90.3072 81.6187 90.4934 81.4372 90.5419L78.8807 91.2407C78.828 91.2548 78.7748 91.2577 78.7244 91.2474ZM83.8347 89.8492C83.7126 89.8242 83.6093 89.7338 83.5749 89.605C83.5263 89.4234 83.6309 89.2373 83.8125 89.1888L86.369 88.49C86.5505 88.4414 86.7366 88.546 86.7851 88.7275C86.8337 88.9091 86.7291 89.0952 86.5476 89.1437L83.9911 89.8425C83.941 89.8572 83.8852 89.8596 83.8347 89.8492ZM125.592 96.6906C125.467 96.665 125.359 96.5682 125.329 96.4346L124.735 93.8525C124.692 93.6694 124.807 93.4881 124.99 93.4454C125.173 93.4027 125.354 93.5174 125.397 93.7005L125.991 96.2826C126.033 96.4657 125.919 96.647 125.736 96.6897C125.686 96.7017 125.637 96.6998 125.592 96.6906ZM88.9477 88.4516C88.8256 88.4265 88.7223 88.3362 88.6879 88.2073C88.6393 88.0258 88.7439 87.8397 88.9255 87.7911L91.482 87.0923C91.6635 87.0438 91.8496 87.1484 91.8982 87.3299C91.9467 87.5115 91.8421 87.6976 91.6606 87.7461L89.1041 88.4449C89.0508 88.4617 88.9982 88.462 88.9477 88.4516ZM94.0581 87.0534C93.9359 87.0284 93.8327 86.938 93.7982 86.8092C93.7497 86.6276 93.8543 86.4415 94.0358 86.393L96.5923 85.6942C96.7739 85.6456 96.96 85.7502 97.0085 85.9318C97.0571 86.1133 96.9525 86.2994 96.7709 86.348L94.2144 87.0468C94.1612 87.0635 94.1085 87.0638 94.0581 87.0534ZM124.401 91.5285C124.276 91.5029 124.168 91.4061 124.138 91.2725L123.544 88.6904C123.501 88.5073 123.616 88.326 123.799 88.2833C123.982 88.2406 124.163 88.3553 124.206 88.5384L124.8 91.1205C124.842 91.3036 124.728 91.4849 124.545 91.5276C124.496 91.5369 124.448 91.5383 124.401 91.5285ZM99.1684 85.6553C99.0463 85.6302 98.9431 85.5399 98.9086 85.411C98.86 85.2295 98.9646 85.0434 99.1462 84.9948L101.703 84.296C101.884 84.2475 102.07 84.352 102.119 84.5336C102.167 84.7151 102.063 84.9012 101.881 84.9498L99.3248 85.6486C99.2742 85.6659 99.2189 85.6656 99.1684 85.6553ZM104.281 84.2603C104.159 84.2352 104.056 84.1449 104.021 84.0161C103.973 83.8345 104.077 83.6484 104.259 83.5999L106.815 82.901C106.997 82.8525 107.183 82.9571 107.231 83.1386C107.28 83.3202 107.175 83.5063 106.994 83.5548L104.437 84.2536C104.385 84.2677 104.331 84.2707 104.281 84.2603ZM123.213 86.3643C123.088 86.3387 122.98 86.2419 122.95 86.1083L122.356 83.5262C122.313 83.3431 122.428 83.1618 122.611 83.1191C122.794 83.0764 122.975 83.1911 123.018 83.3742L123.612 85.9563C123.655 86.1394 123.54 86.3207 123.357 86.3634C123.308 86.3727 123.258 86.3735 123.213 86.3643ZM109.391 82.8621C109.269 82.8371 109.166 82.7467 109.131 82.6179C109.083 82.4363 109.187 82.2502 109.369 82.2017L111.926 81.5029C112.107 81.4543 112.293 81.5589 112.342 81.7405C112.39 81.922 112.286 82.1081 112.104 82.1567L109.548 82.8555C109.495 82.8696 109.442 82.8725 109.391 82.8621ZM114.502 81.464C114.379 81.4389 114.276 81.3486 114.242 81.2197C114.193 81.0382 114.298 80.8521 114.479 80.8035L117.036 80.1047C117.217 80.0562 117.404 80.1607 117.452 80.3423C117.501 80.5238 117.396 80.7099 117.214 80.7585L114.658 81.4573C114.607 81.4746 114.552 81.4743 114.502 81.464ZM121.882 81.2509C121.797 81.2335 121.716 81.1837 121.665 81.1042C121.352 80.622 120.85 80.2782 120.284 80.1622C120.096 80.1235 119.905 80.1093 119.714 80.1227C119.526 80.134 119.367 79.9934 119.353 79.8051C119.341 79.6173 119.482 79.458 119.67 79.444C119.92 79.4261 120.174 79.4449 120.421 79.4956C121.162 79.6476 121.825 80.099 122.234 80.7337C122.335 80.89 122.292 81.0998 122.135 81.2033C122.056 81.2534 121.964 81.2678 121.882 81.2509Z" fill="#650000"/>
<path d="M79.6723 125.443C79.6324 125.435 79.5942 125.419 79.5577 125.395C79.1692 125.143 78.815 124.833 78.5079 124.468C78.388 124.324 78.4039 124.112 78.5448 123.991C78.6885 123.871 78.901 123.887 79.0216 124.028C79.2869 124.34 79.5918 124.607 79.9236 124.825C80.0799 124.926 80.1252 125.137 80.0239 125.294C79.9462 125.416 79.805 125.47 79.6723 125.443Z" fill="#650000"/>
<g opacity="0.6">
<path d="M121.09 77.1907C119.512 77.3956 118.854 77.6879 117.319 78.1147L79.5084 88.6628C78.3787 88.9762 77.1948 89.0544 76.0372 88.8695C75.2387 88.7417 74.2403 88.5231 73.0884 88.1484C75.0848 88.4666 76.9633 88.4423 78.7067 88.0112C78.7067 88.0112 118.154 76.9853 118.247 76.9602C118.341 76.9378 121.09 77.1907 121.09 77.1907Z" fill="white"/>
</g>
<path d="M129.682 101.105L118.86 104.16C115.935 104.985 112.911 103.2 112.223 100.239C111.58 97.4668 113.228 94.6804 115.966 93.908L127.151 90.7506C127.868 90.5489 128.609 90.9859 128.775 91.7119L130.597 99.5605C130.755 100.232 130.352 100.916 129.682 101.105Z" fill="#E77E23"/>
<g opacity="0.6">
<path d="M118.956 101.322C120.037 100.609 120.335 99.1543 119.622 98.0732C118.909 96.9921 117.455 96.6937 116.374 97.4068C115.292 98.1199 114.994 99.5744 115.707 100.656C116.42 101.737 117.875 102.035 118.956 101.322Z" fill="white"/>
</g>
<g opacity="0.3">
<path d="M129.684 101.105L118.862 104.16C115.936 104.986 112.913 103.2 112.225 100.236C112.177 100.027 112.142 99.8207 112.121 99.6143C113.194 101.938 115.833 103.221 118.401 102.497L129.222 99.4416C129.892 99.2525 130.295 98.5712 130.138 97.8915L128.608 91.2954C128.685 91.4165 128.745 91.5561 128.781 91.7046L130.603 99.5505C130.759 100.233 130.353 100.916 129.684 101.105Z" fill="#650000"/>
</g>
<g opacity="0.6">
<path d="M128.775 91.7039C128.498 91.5696 128.173 91.5335 127.856 91.6233L116.67 94.7807C114.693 95.3383 113.287 96.9482 112.898 98.8417C112.748 99.5721 112.751 100.342 112.93 101.115C113.073 101.728 113.315 102.29 113.638 102.79C112.963 102.115 112.461 101.245 112.229 100.24C112.05 99.4703 112.048 98.6977 112.198 97.9674C112.586 96.0739 113.995 94.4645 115.97 93.9064L127.155 90.749C127.867 90.5462 128.605 90.98 128.775 91.7039Z" fill="white"/>
</g>
<path d="M118.612 100.974C119.693 100.261 119.991 98.8068 119.278 97.7257C118.565 96.6446 117.111 96.3462 116.03 97.0593C114.949 97.7724 114.65 99.2269 115.363 100.308C116.076 101.389 117.531 101.687 118.612 100.974Z" fill="#650000"/>
<g opacity="0.19">
<path d="M90.0311 105.901L84.3101 107.484C83.1803 107.797 82.0129 107.121 81.7229 105.985L79.9337 99.0034C79.6494 97.8935 80.3079 96.761 81.4126 96.4618L87.1011 94.9166C88.2239 94.61 89.3817 95.2792 89.6766 96.4052L91.4984 103.349C91.7885 104.457 91.1348 105.593 90.0311 105.901Z" fill="white"/>
</g>
<g opacity="0.19">
<path d="M92.8942 114.165L85.7245 116.024C84.9851 116.215 84.2297 115.77 84.0409 115.031L83.7305 113.819C83.5443 113.094 83.9701 112.354 84.6904 112.148L91.8093 110.118C92.5531 109.905 93.3261 110.346 93.5239 111.095L93.8856 112.476C94.0765 113.218 93.6336 113.974 92.8942 114.165Z" fill="white"/>
</g>
<g opacity="0.19">
<path d="M116.984 98.524C117.406 98.184 117.595 97.7193 117.408 97.4861C117.22 97.2529 116.725 97.3395 116.303 97.6795C115.881 98.0195 115.691 98.4842 115.879 98.7174C116.067 98.9506 116.561 98.864 116.984 98.524Z" fill="white"/>
</g>
<path d="M60.9106 84.1841C71.574 88.691 78.8803 99.9781 81.2005 105.058C102.618 107.397 94.6315 127.153 72.8511 125.142C51.0707 123.131 43.3374 112.864 40.9298 101.517C38.5222 90.1704 47.5812 78.5505 60.9106 84.1841Z" fill="#2B495F" stroke="#1B2E3B" stroke-width="3.69096" stroke-linejoin="round"/>
<path d="M83.6478 110.464C84.8203 110.513 87.8086 111.14 88.758 113.372" stroke="white" stroke-width="3.69096" stroke-linecap="round"/>
<path d="M68.2507 12.0485C70.0321 10.2815 70.322 8.53902 68.4794 6.99981" stroke="#1B2E3B" stroke-width="3.69096" stroke-linecap="round"/>
<path d="M69.3451 12.3937C73.5464 11.309 75.9968 4.44023 70.013 2.33522" stroke="#1B2E3B" stroke-width="3.69096" stroke-linecap="round"/>
<path d="M70.8481 12.4315C77.6492 12.2475 78.6717 5.59414 76.9008 2.00314" stroke="#1B2E3B" stroke-width="3.69096" stroke-linecap="round"/>
<path d="M44.506 33.0108C41.6018 41.3171 34.2755 45.4736 28.6382 43.5026C23.0009 41.5316 19.8606 33.7157 22.7647 25.4093C25.6689 17.103 32.9952 12.9466 38.6325 14.9176C44.2698 16.8886 47.4102 24.7045 44.506 33.0108Z" fill="#2B495F" stroke="#1B2E3B" stroke-width="3.69096"/>
<ellipse cx="35.8134" cy="29.1061" rx="6.28148" ry="7.98568" transform="rotate(19.2714 35.8134 29.1061)" fill="#1B2E3B"/>
<ellipse cx="31.7199" cy="28.1324" rx="1.12419" ry="2.29369" transform="rotate(17.7312 31.7199 28.1324)" fill="#5F91B7"/>
<ellipse cx="126.42" cy="94.7698" rx="5.1971" ry="9.99443" transform="rotate(-13.4637 126.42 94.7698)" fill="#2B495F" stroke="#1B2E3B" stroke-width="3.19822"/>
</svg>
