<svg width="72" height="72" viewBox="0 0 72 72" fill="none" xmlns="http://www.w3.org/2000/svg">
<g id="android">
<path id="Subtract" d="M0 24C0 10.7452 10.7452 0 24 0H48C61.2548 0 72 10.7452 72 24V48C72 61.2548 61.2548 72 48 72H24C10.7452 72 0 61.2548 0 48V24Z" fill="url(#paint0_linear_1631_15297)"/>
<path id="Vector" d="M48.4268 40.4131C47.187 40.4131 46.1784 39.4178 46.1784 38.1952C46.1784 36.9727 47.187 35.9782 48.4268 35.9782C49.6669 35.9782 50.6755 36.9725 50.6755 38.1952C50.6755 39.418 49.6669 40.4131 48.4268 40.4131ZM23.5732 40.4131C22.3333 40.4131 21.3248 39.4178 21.3248 38.1952C21.3248 36.9727 22.3331 35.9782 23.5732 35.9782C24.813 35.9782 25.8216 36.9725 25.8216 38.1952C25.8216 39.418 24.8132 40.4131 23.5732 40.4131ZM49.2333 27.0571L53.7273 19.3824C53.851 19.1706 53.8844 18.919 53.8203 18.6829C53.7561 18.4468 53.5996 18.2455 53.385 18.1231C53.1702 18.0011 52.9152 17.9682 52.6757 18.0315C52.4363 18.0947 52.2321 18.249 52.1079 18.4605L47.5578 26.2323C44.0779 24.6665 40.1701 23.7942 36 23.7942C31.8299 23.7942 27.9221 24.6665 24.4424 26.2323L19.8921 18.4605C19.7679 18.249 19.5637 18.0947 19.3243 18.0315C19.0849 17.9682 18.8298 18.0011 18.615 18.1231C18.4003 18.2454 18.2437 18.4467 18.1795 18.6829C18.1153 18.919 18.1489 19.1706 18.2727 19.3824L22.7667 27.0571C15.0499 31.1956 9.77211 38.899 9 48H63C62.2273 38.8992 56.9495 31.1958 49.2333 27.0571Z" fill="white"/>
</g>
<defs>
<linearGradient id="paint0_linear_1631_15297" x1="0" y1="0" x2="72" y2="72" gradientUnits="userSpaceOnUse">
<stop offset="0.311654" stop-color="#44BE2E"/>
<stop offset="0.75983" stop-color="#27AE60"/>
</linearGradient>
</defs>
</svg>
