<svg width="72" height="72" viewBox="0 0 72 72" fill="none" xmlns="http://www.w3.org/2000/svg">
<g id="brave">
<path id="Rectangle 982" d="M0 24C0 10.7452 10.7452 0 24 0H48C61.2548 0 72 10.7452 72 24V48C72 61.2548 61.2548 72 48 72H24C10.7452 72 0 61.2548 0 48V24Z" fill="url(#paint0_linear_1631_15303)"/>
<path id="Face" d="M49.847 17.595C49.847 17.595 57 26.4711 57 28.405C57 30.3388 56.0817 30.7851 55.1634 31.7769C54.2451 32.7686 50.2819 37.0826 49.7986 37.6281C49.267 38.1736 48.252 39.0165 48.832 40.5537C49.4603 42.0413 50.3786 43.9752 49.3636 45.9587C48.3487 47.8926 46.6087 49.2314 45.4971 48.9835C44.3855 48.7851 41.7273 47.3471 40.7606 46.7025C39.794 46.0579 36.7491 43.4793 36.7491 42.4876C36.7491 41.4959 39.939 39.7107 40.519 39.314C41.099 38.9174 43.7572 37.3306 43.8055 36.7355C43.8539 36.1405 43.8539 35.9421 43.0322 34.405C42.2589 32.8678 40.809 30.8347 41.0506 29.4959C41.2923 28.157 43.5639 27.4628 45.2071 26.8182C46.8504 26.1736 49.9919 24.9835 50.3786 24.7851C50.7653 24.5868 50.6686 24.438 49.4603 24.2893C48.252 24.1901 44.9171 23.6942 43.3705 24.1405C41.8239 24.5868 39.2624 25.2314 39.0207 25.5785C38.8274 25.9256 38.6341 25.9256 38.8274 27.1653C39.0207 28.3554 40.1807 34.2066 40.2773 35.2479C40.374 36.2893 40.6157 36.9835 39.504 37.2314C38.4407 37.4793 36.6041 37.9256 35.9758 37.9256C35.3475 37.9256 33.5109 37.4793 32.4476 37.2314C31.3843 36.9835 31.5777 36.2893 31.6743 35.2479C31.771 34.2066 32.8826 28.405 33.1243 27.1653C33.3176 25.9752 33.1726 25.9256 32.931 25.5785C32.7376 25.2314 30.1277 24.5868 28.5811 24.1405C27.0345 23.6942 23.6997 24.1405 22.4914 24.2893C21.2831 24.3884 21.1864 24.5868 21.5731 24.7851C21.9597 24.9835 25.1013 26.1736 26.7445 26.8182C28.3878 27.4628 30.6594 28.157 30.901 29.4959C31.1427 30.8347 29.7411 32.8678 28.9194 34.405C28.1461 35.9421 28.0978 36.0909 28.1461 36.7355C28.1945 37.3306 30.8527 38.9174 31.4327 39.314C32.0127 39.7107 35.2025 41.4959 35.2025 42.4876C35.2025 43.4793 32.1577 46.0579 31.191 46.7025C30.2244 47.3471 27.6145 48.7355 26.4545 48.9835C25.3429 49.1818 23.603 47.8926 22.588 45.9587C21.5731 44.0248 22.4914 42.0909 23.1197 40.5537C23.748 39.0661 22.6847 38.2231 22.153 37.6281C21.6214 37.0826 17.7066 32.7686 16.7883 31.7769C15.87 30.7851 15 30.2893 15 28.405C15 26.5207 22.153 17.595 22.153 17.595C22.153 17.595 28.1945 18.7851 29.0161 18.7851C29.8377 18.7851 31.5777 18.0909 33.2209 17.5455C34.8642 17 35.9275 17 35.9275 17C35.9275 17 36.9908 17 38.6341 17.5455C40.2773 18.0909 42.0173 18.7851 42.8389 18.7851C43.6605 18.7851 49.847 17.595 49.847 17.595ZM44.4822 51.562C44.9171 51.8595 44.6755 52.405 44.2405 52.6529C43.8539 52.9504 38.3924 57.2645 37.9091 57.7603C37.3774 58.2562 36.6041 59 36.0725 59C35.5409 59 34.7675 58.2066 34.2359 57.7603C33.7043 57.2645 28.2911 52.9504 27.9045 52.6529C27.5178 52.3554 27.2278 51.8099 27.6628 51.562C28.0978 51.2645 29.4994 50.5703 31.3843 49.5289C33.3176 48.4876 35.6858 47.6446 36.0725 47.6446C36.4591 47.6446 38.8274 48.4876 40.7606 49.5289C42.6456 50.5703 44.0472 51.314 44.4822 51.562Z" fill="white"/>
</g>
<defs>
<linearGradient id="paint0_linear_1631_15303" x1="0" y1="0" x2="72" y2="72" gradientUnits="userSpaceOnUse">
<stop offset="0.311654" stop-color="#FFA500"/>
<stop offset="0.75983" stop-color="#D88B00"/>
</linearGradient>
</defs>
</svg>
