<svg width="72" height="72" viewBox="0 0 72 72" fill="none" xmlns="http://www.w3.org/2000/svg">
<g id="apple">
<path id="Subtract" d="M0 24C0 10.7452 10.7452 0 24 0H48C61.2548 0 72 10.7452 72 24V48C72 61.2548 61.2548 72 48 72H24C10.7452 72 0 61.2548 0 48V24Z" fill="url(#paint0_linear_1631_15298)"/>
<path id="Union" fill-rule="evenodd" clip-rule="evenodd" d="M35.9693 24.9998C33.8172 24.9995 31.7125 25.6322 29.9164 26.8194C28.1201 28.0064 26.7116 29.6955 25.8655 31.677L19.7821 21.1259C21.8379 18.8773 24.339 17.0823 27.126 15.8552C29.9131 14.6284 32.9249 13.9966 35.9693 14C39.8267 13.9985 43.6165 15.0143 46.9573 16.9452C50.2981 18.8762 53.072 21.6542 55 24.9998H35.9693ZM26.3515 41.3176C27.4087 43.2363 29.0143 44.795 30.9622 45.7937C32.91 46.7925 35.1114 47.1858 37.284 46.9234L31.198 57.4787H31.196C21.3598 55.2961 14 46.5094 14 36.0005C14 31.9921 15.07 28.2348 16.9418 24.9961L26.3515 41.3176ZM39.037 30.8252C38.133 30.2946 37.1057 30.0101 36.0576 30.0003C35.0095 29.99 33.9768 30.2548 33.0627 30.768C32.1487 31.2812 31.3851 32.025 30.8479 32.9249C30.3107 33.8249 30.0186 34.85 30.0009 35.8979C29.9831 36.9459 30.2402 37.9803 30.7466 38.898L30.8048 38.9978C31.3264 39.9028 32.0755 40.6559 32.9779 41.1824C33.8801 41.709 34.9042 41.9907 35.9488 41.9998C36.9937 42.0091 38.0226 41.7453 38.9338 41.2344C39.8451 40.7237 40.6071 39.9839 41.1445 39.0882V39.0878L41.1965 38.9978C41.7206 38.09 41.9976 37.0608 42 36.0126C42.0024 34.9645 41.73 33.934 41.2101 33.0238C40.6903 32.1137 39.941 31.3556 39.037 30.8252ZM58 36.4615C58 34.2106 57.6483 32.0394 56.9925 30H44.7998C46.2311 31.8624 47.0035 34.1308 47 36.4615C47.0031 38.4156 46.4612 40.3334 45.4314 42.0078L36 58C48.1509 57.9995 58 48.3572 58 36.4615Z" fill="white"/>
</g>
<defs>
<linearGradient id="paint0_linear_1631_15298" x1="0" y1="0" x2="72" y2="72" gradientUnits="userSpaceOnUse">
<stop offset="0.311654" stop-color="#44BE2E"/>
<stop offset="0.75983" stop-color="#27AE60"/>
</linearGradient>
</defs>
</svg>
