<svg width="72" height="72" viewBox="0 0 72 72" fill="none" xmlns="http://www.w3.org/2000/svg">
<g id="edge">
<path id="Rectangle 982" d="M0 24C0 10.7452 10.7452 0 24 0H48C61.2548 0 72 10.7452 72 24V48C72 61.2548 61.2548 72 48 72H24C10.7452 72 0 61.2548 0 48V24Z" fill="url(#paint0_linear_1631_15306)"/>
<path id="Vector" d="M53.7839 47.4288C48.8421 55.0955 40.8365 57.1864 37.6738 56.9873C18.7963 56.0912 21.6625 30.9007 33.0285 31.0003C24.9241 36.1778 35.9936 53.3033 52.3013 46.6323C53.9815 45.4375 54.278 46.931 53.7839 47.4288Z" fill="white"/>
<path id="Vector_2" d="M41.2781 36.0145C43.0107 28.1222 38.2941 23.0212 28.861 23.0212C19.4278 23.0212 15 31.8759 15 36.3994C15 48.334 27.0321 60.7498 42.6257 55.9375C29.7273 59.6911 22.0267 44.7729 28.5722 35.7257C33 29.3734 40.4118 29.181 41.2781 36.0145ZM50.9037 21H51H50.9037Z" fill="#F7F7F7"/>
<g id="Vector_3">
<path d="M15 36.4296C16.1604 9.56955 51.7469 8.06618 56.8721 31.3182C58.226 42.0422 48.5557 46.2516 40.8195 42.844C36.758 40.2382 43.3338 40.8395 40.5294 32.9218C35.8877 21.6967 16.2571 22.5987 15 36.4296Z" fill="url(#paint1_linear_1631_15306)"/>
<path d="M15 36.4296C16.1604 9.56955 51.7469 8.06618 56.8721 31.3182C58.226 42.0422 48.5557 46.2516 40.8195 42.844C36.758 40.2382 43.3338 40.8395 40.5294 32.9218C35.8877 21.6967 16.2571 22.5987 15 36.4296Z" fill="white"/>
</g>
</g>
<defs>
<linearGradient id="paint0_linear_1631_15306" x1="0" y1="0" x2="72" y2="72" gradientUnits="userSpaceOnUse">
<stop offset="0.311654" stop-color="#AE9DF3"/>
<stop offset="0.75983" stop-color="#9789D1"/>
</linearGradient>
<linearGradient id="paint1_linear_1631_15306" x1="15" y1="29.5" x2="49.4403" y2="54.4395" gradientUnits="userSpaceOnUse">
<stop offset="0.1" stop-color="#55AADD"/>
<stop offset="0.6" stop-color="#55CC88"/>
<stop offset="0.8" stop-color="#77DD55"/>
</linearGradient>
</defs>
</svg>
