<svg width="72" height="72" viewBox="0 0 72 72" fill="none" xmlns="http://www.w3.org/2000/svg">
<g id="firefox">
<path id="Rectangle 982" d="M0 24C0 10.7452 10.7452 0 24 0H48C61.2548 0 72 10.7452 72 24V48C72 61.2548 61.2548 72 48 72H24C10.7452 72 0 61.2548 0 48V24Z" fill="url(#paint0_linear_1631_15304)"/>
<path id="firefox_2" fill-rule="evenodd" clip-rule="evenodd" d="M30.2971 25.3767C30.4692 23.9205 31.4485 22.0315 33.2923 21.1658C30.522 20.7459 28.2724 22.0317 27.1519 23.6845C25.3739 23.3042 24.2815 23.2834 22.4935 23.6146C21.3589 22.7622 20.0246 20.8196 20.1291 18.7871C17.9824 21.2936 17.54 23.1837 17.8046 25.4401C9.54217 40.0909 20.6586 57.7084 36.5035 57.7084C50.739 57.7083 59 46.9164 59 35.8582C59 28.4007 55.5946 21.9273 52.1177 20.5276C53.4149 21.9448 54.8887 25.6363 54.6063 28.1907C51.8 20.9476 44.7931 18.1482 42.4318 18.2973C50.194 21.2975 52.0515 31.5105 51.3629 34.5247C50.6881 30.9902 48.5347 27.9458 47.2464 27.141C54.7639 44.5987 36.6085 49.9625 31.069 43.9038C32.4975 44.271 35.3174 44.0905 37.4299 42.6881C39.4063 41.3761 39.5922 41.2992 40.862 41.2014C42.3703 41.0852 40.7711 38.1329 37.4764 38.6324C36.1207 38.838 33.8867 40.4182 31.139 39.3767C27.8235 38.1199 27.9278 33.6336 31.3515 34.9834C32.0926 34.0303 31.5456 32.2287 31.5456 32.2287C32.5403 31.3258 33.796 30.6896 34.5608 30.2424C35.0625 29.9491 36.3846 29.1373 36.3097 27.5586C36.0404 27.3499 35.6051 27.0831 34.6246 27.1389C30.804 27.379 30.5485 26.0106 30.2971 25.3767Z" fill="white"/>
</g>
<defs>
<linearGradient id="paint0_linear_1631_15304" x1="0" y1="0" x2="72" y2="72" gradientUnits="userSpaceOnUse">
<stop offset="0.311654" stop-color="#FFA500"/>
<stop offset="0.75983" stop-color="#D88B00"/>
</linearGradient>
</defs>
</svg>
