<svg width="72" height="72" viewBox="0 0 72 72" fill="none" xmlns="http://www.w3.org/2000/svg">
<g id="linux">
<path id="Rectangle 982" d="M0 24C0 10.7452 10.7452 0 24 0H48C61.2548 0 72 10.7452 72 24V48C72 61.2548 61.2548 72 48 72H24C10.7452 72 0 61.2548 0 48V24Z" fill="url(#paint0_linear_1631_15307)"/>
<path id="Vector" fill-rule="evenodd" clip-rule="evenodd" d="M36 13C23.2973 13 13 23.6312 13 36.7458C13 38.4327 13.1706 40.0801 13.4945 41.6671C13.6354 42.3567 14.2612 42.1905 14.15 41.4949C14.15 34.9381 19.2991 29.622 25.65 29.622C27.4088 29.6205 29.1444 30.0361 30.7229 30.8369C32.3015 31.6377 33.6807 32.8022 34.7542 34.2406C35.3416 35.0242 36.6584 35.0242 37.2458 34.2406C38.3193 32.8022 39.6985 31.6377 41.2771 30.8369C42.8556 30.0361 44.5912 29.6205 46.35 29.622C52.7009 29.622 57.85 34.9381 57.85 41.4949C57.7379 42.1905 58.3646 42.3567 58.5055 41.6671C58.8352 40.0488 59.0009 38.3995 59 36.7458C59 23.6312 48.7027 13 36 13ZM22.982 48.6088C26.3649 47.6273 31.8638 46.2441 36 46.2441C40.1362 46.2441 45.636 47.6273 49.018 48.6088C50.0587 48.9115 50.121 50.4075 49.1378 50.8695C45.89 52.3962 40.7351 55.1299 37.6694 58.3307C36.8155 59.2231 35.1845 59.2231 34.3306 58.3307C31.2649 55.1299 26.11 52.3962 22.8622 50.8705C21.879 50.4075 21.9412 48.9105 22.982 48.6088ZM29.1 39.3182C29.1 39.948 28.8577 40.552 28.4263 40.9973C27.995 41.4426 27.41 41.6928 26.8 41.6928C26.19 41.6928 25.605 41.4426 25.1737 40.9973C24.7423 40.552 24.5 39.948 24.5 39.3182C24.5 38.6884 24.7423 38.0845 25.1737 37.6391C25.605 37.1938 26.19 36.9436 26.8 36.9436C27.41 36.9436 27.995 37.1938 28.4263 37.6391C28.8577 38.0845 29.1 38.6884 29.1 39.3182ZM45.2 41.6928C45.502 41.6928 45.8011 41.6314 46.0802 41.512C46.3592 41.3927 46.6128 41.2178 46.8263 40.9973C47.0399 40.7768 47.2093 40.515 47.3249 40.2269C47.4405 39.9388 47.5 39.6301 47.5 39.3182C47.5 39.0064 47.4405 38.6976 47.3249 38.4095C47.2093 38.1214 47.0399 37.8596 46.8263 37.6391C46.6128 37.4186 46.3592 37.2437 46.0802 37.1244C45.8011 37.0051 45.502 36.9436 45.2 36.9436C44.59 36.9436 44.005 37.1938 43.5737 37.6391C43.1423 38.0845 42.9 38.6884 42.9 39.3182C42.9 39.948 43.1423 40.552 43.5737 40.9973C44.005 41.4426 44.59 41.6928 45.2 41.6928Z" fill="white"/>
</g>
<defs>
<linearGradient id="paint0_linear_1631_15307" x1="0" y1="0" x2="72" y2="72" gradientUnits="userSpaceOnUse">
<stop offset="0.311654" stop-color="#AE9DF3"/>
<stop offset="0.75983" stop-color="#9789D1"/>
</linearGradient>
</defs>
</svg>
