<svg width="72" height="72" viewBox="0 0 72 72" fill="none" xmlns="http://www.w3.org/2000/svg">
<g id="opera">
<path id="Rectangle 982" d="M0 24C0 10.7452 10.7452 0 24 0H48C61.2548 0 72 10.7452 72 24V48C72 61.2548 61.2548 72 48 72H24C10.7452 72 0 61.2548 0 48V24Z" fill="url(#paint0_linear_1631_15309)"/>
<path id="Vector" d="M51.9901 18.108C49.3121 16.262 45.9981 15.16 42.4261 15.16C42.4081 15.16 42.3901 15.16 42.3701 15.16C42.3601 15.16 42.3481 15.16 42.3361 15.16C39.4761 15.16 36.7861 15.886 34.4381 17.164L34.5241 17.12C31.9801 18.49 29.8421 20.286 28.1261 22.436L28.0941 22.478C26.7621 24.144 25.6781 26.08 24.9361 28.18L24.8941 28.318C24.1261 30.432 23.6541 32.872 23.5961 35.416V35.444V36.564C23.6561 39.132 24.1281 41.57 24.9461 43.844L24.8961 43.684C25.6801 45.922 26.7641 47.858 28.1261 49.564L28.0961 49.524C29.8421 51.716 31.9801 53.512 34.4161 54.83L34.5241 54.884C36.7821 56.116 39.4701 56.84 42.3261 56.84H42.3741H42.3721H42.4241C45.9961 56.84 49.3101 55.738 52.0461 53.856L51.9881 53.894C49.9081 55.762 47.4721 57.286 44.8001 58.348L44.6361 58.406C42.1081 59.418 39.1761 60.006 36.1081 60.006C36.0681 60.006 36.0281 60.006 35.9901 60.006H35.9961C35.4788 60.006 35.0948 59.9967 34.8441 59.978C31.5781 59.832 28.5321 59.038 25.7841 57.72L25.9241 57.78C20.3921 55.224 16.1061 50.756 13.8461 45.242L13.7881 45.084C12.6541 42.402 11.9941 39.284 11.9941 36.012C11.9941 32.642 12.6941 29.436 13.9541 26.53L13.8941 26.684C16.3381 20.878 20.8661 16.352 26.5161 13.964L26.6701 13.906C29.3981 12.704 32.5801 12.004 35.9241 12.004H35.9941H36.0701C42.1941 12.026 47.7761 14.34 52.0021 18.132L51.9801 18.112L51.9901 18.108ZM60.0001 36V36.122C60.0001 39.596 59.2401 42.894 57.8781 45.856L57.9381 45.712C56.5261 48.82 54.6021 51.46 52.2481 53.64L52.2321 53.654C50.5441 54.714 48.4941 55.342 46.2961 55.342C46.2921 55.342 46.2881 55.342 46.2861 55.342C43.7141 55.338 41.3421 54.494 39.4241 53.07L39.4541 53.092C42.4321 51.88 44.8021 49.69 46.2101 46.926L46.2441 46.852C47.9241 43.838 48.9141 40.238 48.9141 36.41C48.9141 36.266 48.9121 36.122 48.9101 35.98V36.002C48.9121 35.884 48.9141 35.744 48.9141 35.604C48.9141 31.782 47.9301 28.192 46.2021 25.07L46.2581 25.182C44.8181 22.34 42.4541 20.142 39.5681 18.946L39.4821 18.914C41.3661 17.534 43.7281 16.702 46.2821 16.69C48.5261 16.694 50.6181 17.342 52.3841 18.458L52.3361 18.43C54.6881 20.61 56.5921 23.236 57.9141 26.182L57.9741 26.332C59.2521 29.142 59.9961 32.424 59.9961 35.882V36.008V36.002L60.0001 36Z" fill="white"/>
</g>
<defs>
<linearGradient id="paint0_linear_1631_15309" x1="0" y1="0" x2="72" y2="72" gradientUnits="userSpaceOnUse">
<stop offset="0.270833" stop-color="#FF758F"/>
<stop offset="0.755208" stop-color="#EF4061"/>
</linearGradient>
</defs>
</svg>
