<svg width="72" height="72" viewBox="0 0 72 72" fill="none" xmlns="http://www.w3.org/2000/svg">
<g id="safari">
<path id="Subtract" d="M0 24C0 10.7452 10.7452 0 24 0H48C61.2548 0 72 10.7452 72 24V48C72 61.2548 61.2548 72 48 72H24C10.7452 72 0 61.2548 0 48V24Z" fill="url(#paint0_linear_1631_15302)"/>
<path id="Vector" fill-rule="evenodd" clip-rule="evenodd" d="M37.0823 35.6872C37.1257 34.8604 36.4227 34.1435 35.5324 34.1079C34.5925 34.0692 33.8787 34.7567 33.8632 35.712C33.8493 36.5574 34.5368 37.2279 35.4441 37.2558C36.3437 37.2836 37.0328 36.6225 37.0823 35.6872ZM46.4284 22.2426C46.3928 22.2147 46.3572 22.1884 46.3231 22.1621C46.2163 22.2519 46.1048 22.337 46.0041 22.433C42.1734 26.0067 38.3396 29.5758 34.5197 33.1618C34.08 33.5768 33.6557 34.0413 33.3445 34.5538C30.5419 39.168 27.7672 43.7992 24.9863 48.4258C24.8733 48.6132 24.7819 48.8145 24.6797 49.0096C24.8516 49.0034 24.9461 48.9461 25.025 48.8718C28.9037 45.247 32.7902 41.6299 36.6519 37.985C37.1551 37.5097 37.5902 36.9321 37.951 36.3376C40.6947 31.8256 43.4137 27.295 46.1373 22.7706C46.241 22.5987 46.3324 22.4191 46.4284 22.2426ZM46.289 20.0563C50.2854 22.8434 52.7907 26.5688 54.0681 31.2697C53.6021 31.3843 53.1685 31.4555 52.7644 31.6026C52.591 31.6676 52.4748 31.8906 52.3324 32.0408C52.5213 32.1244 52.7179 32.2901 52.8976 32.2746C53.3094 32.2359 53.7151 32.1089 54.209 31.999C55.1071 36.8129 54.3437 41.2568 51.8416 45.4576C51.4514 45.2207 51.1293 44.9745 50.7685 44.8243C50.5301 44.7236 50.2359 44.7577 49.9665 44.7329C50.0981 44.9512 50.1879 45.2176 50.3721 45.3786C50.6679 45.6372 51.0256 45.8276 51.4374 46.1001C48.689 50.1213 45.0085 52.7474 40.2379 54.0217C40.0986 53.489 39.9964 52.9688 39.8152 52.4764C39.7486 52.2952 39.4994 52.1807 39.3321 52.0351C39.2795 52.2364 39.1587 52.447 39.185 52.6359C39.2547 53.1205 39.3894 53.5959 39.5226 54.1827C34.6622 55.0901 30.1471 54.3732 25.855 51.8044C26.1832 51.2919 26.513 50.8367 26.7701 50.3427C26.8754 50.1414 26.8196 49.855 26.8382 49.6072C26.6121 49.728 26.321 49.7977 26.1739 49.9819C25.841 50.3985 25.5778 50.8738 25.2325 51.408C21.1572 48.6147 18.5512 44.8583 17.2692 40.049C17.8885 39.9035 18.4165 39.809 18.9197 39.6418C19.0901 39.5861 19.2015 39.3492 19.3394 39.1943C19.1396 39.1278 18.9321 38.9853 18.7432 39.0101C18.2369 39.0751 17.7383 39.2098 17.1484 39.3368C16.2519 34.4594 17.0245 29.9458 19.6506 25.68C20.0299 25.92 20.3582 26.1801 20.7298 26.3474C21.0178 26.479 21.3585 26.496 21.6759 26.5626C21.4839 26.2839 21.3321 25.9618 21.0875 25.7389C20.7979 25.4772 20.4294 25.3022 20.0392 25.0529C22.8883 21.0705 26.6075 18.4506 31.4539 17.2645C31.5654 17.7461 31.6289 18.2059 31.7853 18.6302C31.8736 18.8671 32.1151 19.0452 32.287 19.2511C32.3458 19.008 32.4712 18.7587 32.448 18.5249C32.4031 18.0867 32.273 17.6578 32.1569 17.1298C36.9863 16.2844 41.4503 17.0741 45.6588 19.6398C45.36 20.1229 45.0534 20.5595 44.8181 21.0302C44.7345 21.1943 44.8243 21.4452 44.8351 21.6558C45.0132 21.5768 45.2501 21.5443 45.3585 21.4096C45.6774 21.007 45.9453 20.5657 46.289 20.0563ZM35.6903 56.8398C47.4426 56.8119 56.863 47.3187 56.8444 35.5216C56.8274 23.9768 47.2785 14.5084 35.6671 14.5239C23.8715 14.5394 14.4991 24.017 14.5285 35.8994C14.5579 47.4039 24.1223 56.8676 35.6903 56.8398ZM35.6733 12C48.6844 11.9861 59.3621 22.6142 59.3729 35.5881C59.3837 48.7061 48.8439 59.3001 35.7213 59.3652C22.656 59.4287 12.0015 48.7556 12 35.6021C12 22.6065 22.6235 12.0139 35.6733 12Z" fill="white"/>
</g>
<defs>
<linearGradient id="paint0_linear_1631_15302" x1="0" y1="0" x2="72" y2="72" gradientUnits="userSpaceOnUse">
<stop offset="0.270833" stop-color="#6CA5F9"/>
<stop offset="0.755208" stop-color="#3A85F3"/>
</linearGradient>
</defs>
</svg>
