<svg width="72" height="72" viewBox="0 0 72 72" fill="none" xmlns="http://www.w3.org/2000/svg">
<g id="samsung">
<path id="Subtract" d="M0 24C0 10.7452 10.7452 0 24 0H48C61.2548 0 72 10.7452 72 24V48C72 61.2548 61.2548 72 48 72H24C10.7452 72 0 61.2548 0 48V24Z" fill="url(#paint0_linear_1631_15301)"/>
<path id="Vector" d="M46.0031 51.1423C43.8626 52.5501 41.4422 53.4902 38.904 53.8997C36.3658 54.3091 33.7683 54.1785 31.2853 53.5165C28.8023 52.8546 26.4912 51.6766 24.5066 50.0613C22.522 48.4461 20.9097 46.4309 19.7777 44.1506C18.2791 43.4107 16.8929 42.5599 15.6566 41.7461C16.6399 45.2422 18.5312 48.4241 21.1432 50.9764C23.7552 53.5288 26.9972 55.363 30.548 56.2975C34.0988 57.232 37.8353 57.2342 41.3873 56.304C44.9393 55.3739 48.1835 53.5435 50.7986 50.9943C49.3 51.1423 47.689 51.1793 46.0031 51.1053V51.1423ZM18.2791 39.8964C17.0428 39.1565 15.9188 38.4167 14.9447 37.6398C11.3106 34.7913 9.4374 31.7949 10.1492 29.2794C10.8236 26.7268 13.9707 25.0991 18.5414 24.4703C21.0085 20.8737 24.5528 18.1289 28.6782 16.62C32.8036 15.111 37.3035 14.9135 41.5482 16.0551C45.7929 17.1967 49.5699 19.6202 52.3504 22.9865C55.131 26.3527 56.776 30.4932 57.0553 34.8283C60.6894 37.6768 62.5626 40.6363 61.8508 43.1888C61.1764 45.7043 58.0293 47.332 53.4212 47.9979C52.1848 48.1459 50.7986 48.2568 49.375 48.2938C44.7293 48.3678 39.1096 47.628 33.2651 46.0743C28.0088 44.6966 22.9671 42.6182 18.2791 39.8964ZM55.3319 44.5205C57.1677 44.0026 58.3291 43.1518 58.6663 42.042C58.966 40.8952 58.3665 39.5635 57.0178 38.1577L56.9803 38.4167C56.753 40.5231 56.197 42.5821 55.3319 44.5205ZM16.8554 27.4667L17.0053 27.1338C14.8698 27.6517 13.4836 28.5395 13.1464 29.7973C12.8092 31.018 13.5211 32.4238 15.0571 33.9405C15.3194 31.6469 15.9188 29.5013 16.8554 27.4667Z" fill="white"/>
</g>
<defs>
<linearGradient id="paint0_linear_1631_15301" x1="0" y1="0" x2="72" y2="72" gradientUnits="userSpaceOnUse">
<stop offset="0.270833" stop-color="#6CA5F9"/>
<stop offset="0.755208" stop-color="#3A85F3"/>
</linearGradient>
</defs>
</svg>
