<svg width="72" height="72" viewBox="0 0 72 72" fill="none" xmlns="http://www.w3.org/2000/svg">
<g id="ubuntu">
<path id="Rectangle 982" d="M0 24C0 10.7452 10.7452 0 24 0H48C61.2548 0 72 10.7452 72 24V48C72 61.2548 61.2548 72 48 72H24C10.7452 72 0 61.2548 0 48V24Z" fill="url(#paint0_linear_1631_15305)"/>
<path id="linux_ubuntu-[#148]" fill-rule="evenodd" clip-rule="evenodd" d="M45.6888 21.1022C47.8447 22.3007 50.6006 21.5904 51.8443 19.513C53.0881 17.4356 52.3516 14.7803 50.1957 13.5818C48.0398 12.3833 45.2841 13.0959 44.0379 15.1733C42.7965 17.2484 43.5354 19.9037 45.6888 21.1022ZM36.4654 49.1864C34.4827 49.1864 32.6024 48.7611 30.9197 48.0068L27.7859 53.4147C30.4027 54.6626 33.3487 55.3677 36.4654 55.3677C38.2775 55.3677 40.0309 55.1257 41.6966 54.6815C41.9893 52.9355 43.0647 51.3304 44.7768 50.3763C46.4912 49.4222 48.4691 49.3301 50.1835 49.9529C53.5149 46.7945 55.683 42.4986 56 37.7163L49.5763 37.6245C48.9861 44.1059 43.3428 49.1864 36.4654 49.1864ZM36.4654 23.8137C43.3428 23.8137 48.9861 28.8942 49.5763 35.3755L56 35.2837C55.683 30.4991 53.5149 26.2033 50.1811 23.0449C48.4691 23.67 46.4888 23.5743 44.7768 22.6249C43.0647 21.6708 41.9893 20.0634 41.6942 18.3174C40.0285 17.8756 38.2775 17.6335 36.463 17.6335C33.3487 17.6335 30.4027 18.3386 27.7859 19.5865L30.9197 24.9933C32.6024 24.2366 34.4827 23.8137 36.4654 23.8137ZM23.2985 36.4989C23.2985 32.2078 25.5129 28.4149 28.8979 26.1189L25.6007 20.8016C21.6572 23.342 18.7234 27.2241 17.504 31.769C18.9282 32.8876 19.8379 34.5907 19.8379 36.4989C19.8379 38.4071 18.9282 40.1113 17.504 41.2299C18.7234 45.7771 21.6572 49.6592 25.6007 52.1996L28.8979 46.8788C25.5129 44.5829 23.2985 40.7923 23.2985 36.4989ZM45.6913 51.8967C43.5354 53.0952 42.7965 55.7505 44.0402 57.8279C45.284 59.9053 48.0398 60.6168 50.1957 59.416C52.3516 58.2175 53.0905 55.5622 51.8443 53.4847C50.6006 51.4097 47.8447 50.6982 45.6913 51.8967ZM13.5093 32.1569C11.0193 32.1569 9 34.0995 9 36.4989C9 38.8982 11.0193 40.842 13.5093 40.842C15.9993 40.842 18.0161 38.8982 18.0161 36.4989C18.0161 34.0995 15.9993 32.1569 13.5093 32.1569Z" fill="white"/>
</g>
<defs>
<linearGradient id="paint0_linear_1631_15305" x1="0" y1="0" x2="72" y2="72" gradientUnits="userSpaceOnUse">
<stop offset="0.311654" stop-color="#FFA500"/>
<stop offset="0.75983" stop-color="#D88B00"/>
</linearGradient>
</defs>
</svg>
