<svg width="72" height="72" viewBox="0 0 72 72" fill="none" xmlns="http://www.w3.org/2000/svg">
<g id="vivaldi">
<path id="Rectangle 982" d="M0 24C0 10.7452 10.7452 0 24 0H48C61.2548 0 72 10.7452 72 24V48C72 61.2548 61.2548 72 48 72H24C10.7452 72 0 61.2548 0 48V24Z" fill="url(#paint0_linear_1631_15311)"/>
<path id="Vector" fill-rule="evenodd" clip-rule="evenodd" d="M12.0361 53.9514C12.0361 53.0371 12.7847 52.2957 13.7081 52.2957H58.2929C59.2161 52.2957 59.9647 53.0371 59.9647 53.9514C59.9647 54.8658 59.2161 55.6071 58.2929 55.6071H13.7081C12.7847 55.6071 12.0361 54.8658 12.0361 53.9514Z" fill="white"/>
<path id="Vector_2" fill-rule="evenodd" clip-rule="evenodd" d="M17.8953 18.3327C15.9365 20.2724 15.9365 23.3945 15.9365 29.6386V40.6767C15.9365 44.8393 15.9365 46.9207 17.2424 48.2139C18.5482 49.5071 20.65 49.5071 24.8535 49.5071H47.1459C51.3492 49.5071 53.4511 49.5071 54.7569 48.2139C56.0628 46.9207 56.0628 44.8393 56.0628 40.6767V29.6386C56.0628 23.3945 56.0628 20.2724 54.104 18.3327C52.1452 16.3929 48.9926 16.3929 42.6874 16.3929H29.3119C23.0067 16.3929 19.8541 16.3929 17.8953 18.3327ZM27.64 42.8843C27.64 41.9699 28.3886 41.2286 29.3119 41.2286H42.6874C43.6107 41.2286 44.3593 41.9699 44.3593 42.8843C44.3593 43.7986 43.6107 44.54 42.6874 44.54H29.3119C28.3886 44.54 27.64 43.7986 27.64 42.8843Z" fill="white"/>
</g>
<defs>
<linearGradient id="paint0_linear_1631_15311" x1="0" y1="0" x2="72" y2="72" gradientUnits="userSpaceOnUse">
<stop offset="0.270833" stop-color="#FF758F"/>
<stop offset="0.755208" stop-color="#EF4061"/>
</linearGradient>
</defs>
</svg>
