<svg width="72" height="72" viewBox="0 0 72 72" fill="none" xmlns="http://www.w3.org/2000/svg">
<g id="vivaldi">
<path id="Rectangle 982" d="M0 24C0 10.7452 10.7452 0 24 0H48C61.2548 0 72 10.7452 72 24V48C72 61.2548 61.2548 72 48 72H24C10.7452 72 0 61.2548 0 48V24Z" fill="url(#paint0_linear_1631_15310)"/>
<path id="Vector" d="M56.2248 25.1729C51.0415 34.0769 45.8582 42.9805 40.6749 51.9026C39.7156 53.5663 38.314 54.5536 36.3957 54.7C34.2559 54.846 32.559 53.9502 31.4704 52.1221C28.187 46.5458 24.9405 40.9329 21.6942 35.3382C19.7206 31.9376 17.7283 28.5371 15.7547 25.1182C13.7624 21.6811 16.0127 17.4943 19.9971 17.2932C22.1 17.1835 23.7232 18.1524 24.793 19.9624C26.2503 22.4306 27.6891 24.9353 29.1463 27.4219C30.1978 29.2134 31.2121 31.0234 32.282 32.7787C33.8317 35.3566 36.1186 36.8008 39.1624 36.984C43.4604 37.2397 47.4629 34.15 47.9796 29.634C48.0164 29.305 48.0349 28.9577 48.0533 28.7929C48.0346 27.3303 47.7584 26.0871 47.168 24.9353C45.5633 21.7543 47.2786 18.189 50.765 17.4208C53.6055 16.7995 56.5568 18.8653 56.9258 21.7177C57.1104 22.9427 56.852 24.0942 56.2248 25.1729Z" fill="white"/>
</g>
<defs>
<linearGradient id="paint0_linear_1631_15310" x1="0" y1="0" x2="72" y2="72" gradientUnits="userSpaceOnUse">
<stop offset="0.270833" stop-color="#FF758F"/>
<stop offset="0.755208" stop-color="#EF4061"/>
</linearGradient>
</defs>
</svg>
