<svg width="72" height="72" viewBox="0 0 72 72" fill="none" xmlns="http://www.w3.org/2000/svg">
<g id="windows">
<path id="Rectangle 982" d="M0 24C0 10.7452 10.7452 0 24 0H48C61.2548 0 72 10.7452 72 24V48C72 61.2548 61.2548 72 48 72H24C10.7452 72 0 61.2548 0 48V24Z" fill="url(#paint0_linear_1631_15308)"/>
<path id="Vector" d="M22.0002 16.9161C22.0002 16.9161 31.5743 11.7106 39.765 17.9841L35.181 33.7336C35.181 33.7336 30.0476 30.202 26.2409 30.5834C22.4342 30.9658 17.4162 32.7873 17.4162 32.7873L22.0002 16.9161ZM12.0469 51.4281C14.16 50.3356 17.3317 49.7819 20.9859 49.4759C24.6432 49.1707 29.79 52.5198 29.79 52.5198L34.4213 36.6033C33.6885 36.0766 30.2806 33.782 26.0152 33.4769C21.7477 33.1717 16.607 35.5622 16.607 35.5622L12.0469 51.4281ZM32.2598 53.9217C33.0968 54.2516 35.8429 56.8636 40.4134 57.0955C44.9849 57.3223 50.0266 54.9628 50.0266 54.9628C50.0266 54.9628 54.5167 39.2503 54.6073 39.1895C54.6382 39.173 54.5507 39.2348 54.5166 39.2503C50.2419 40.9233 48.0598 41.1727 44.9076 41.248C41.7068 41.3253 36.8198 38.1454 36.8198 38.1454L32.2598 53.9217ZM42.1884 19.6477L37.5952 35.3055C37.5952 35.3055 41.3267 38.9617 46.5827 38.6587C51.8419 38.3525 54.6951 36.6952 55.3929 36.4611L59.9531 20.664C59.9531 20.664 53.8963 23.1936 49.9358 22.7349C45.9735 22.2762 43.5088 20.5928 42.1884 19.6477Z" fill="white"/>
</g>
<defs>
<linearGradient id="paint0_linear_1631_15308" x1="0" y1="0" x2="72" y2="72" gradientUnits="userSpaceOnUse">
<stop offset="0.311654" stop-color="#AE9DF3"/>
<stop offset="0.75983" stop-color="#9789D1"/>
</linearGradient>
</defs>
</svg>
