<svg width="72" height="72" viewBox="0 0 72 72" fill="none" xmlns="http://www.w3.org/2000/svg">
<g id="xbox">
<path id="Subtract" d="M0 24C0 10.7452 10.7452 0 24 0H48C61.2548 0 72 10.7452 72 24V48C72 61.2548 61.2548 72 48 72H24C10.7452 72 0 61.2548 0 48V24Z" fill="url(#paint0_linear_1631_15299)"/>
<path id="Vector" d="M20.204 55.066C24.422 58.762 29.954 61 36 61C42.052 61 47.578 58.762 51.804 55.066C55.558 51.242 43.172 37.648 36 32.232C28.836 37.648 16.442 51.242 20.204 55.066ZM42.524 26.254C47.524 32.176 57.492 46.88 54.676 52.078C58.004 47.96 60 42.722 60 37.008C60 30.328 57.27 24.284 52.86 19.936C52.86 19.936 52.806 19.892 52.696 19.852C52.57 19.808 52.392 19.762 52.134 19.762C50.95 19.762 48.164 20.63 42.524 26.254ZM19.308 19.852C19.194 19.892 19.144 19.934 19.136 19.936C14.73 24.284 12 30.328 12 37.008C12 42.716 13.996 47.954 17.322 52.074C14.52 46.864 24.48 32.172 29.482 26.254C23.842 20.628 21.05 19.764 19.87 19.764C19.608 19.764 19.424 19.806 19.308 19.856V19.852ZM36 20.102C36 20.102 30.11 16.656 25.51 16.492C23.704 16.426 22.602 17.082 22.468 17.17C26.758 14.292 31.318 13 35.968 13H36C40.668 13 45.21 14.292 49.532 17.17C49.396 17.078 48.302 16.426 46.492 16.492C41.892 16.656 36 20.09 36 20.09V20.102Z" fill="white"/>
</g>
<defs>
<linearGradient id="paint0_linear_1631_15299" x1="0" y1="0" x2="72" y2="72" gradientUnits="userSpaceOnUse">
<stop offset="0.311654" stop-color="#44BE2E"/>
<stop offset="0.75983" stop-color="#27AE60"/>
</linearGradient>
</defs>
</svg>
