<svg width="54" height="54" viewBox="0 0 54 54" fill="none" xmlns="http://www.w3.org/2000/svg">
<g clip-path="url(#clip0_706_60437)">
<path d="M0 -0.000183105H54V53.9998H0V-0.000183105Z" fill="#6C5BB6"/>
<g clip-path="url(#clip1_706_60437)">
<path d="M44.5546 21.0378L28.1813 13.501C27.6502 13.2563 27.0845 13.1329 26.5 13.1329C25.9155 13.1329 25.35 13.2563 24.8187 13.501L8.44537 21.0378C8.17474 21.1629 8 21.4356 8 21.7335C8 22.0315 8.17474 22.3041 8.44537 22.4292L24.8187 29.9661C25.3498 30.2107 25.9155 30.3347 26.5 30.3347C27.0845 30.3347 27.6502 30.2107 28.1814 29.9661L41.1034 24.0182V30.0076C40.5906 30.0655 40.1907 30.5019 40.1907 31.0293C40.1907 31.4889 40.4947 31.8867 40.9282 32.0135L40.0544 37.7796H44.0778L43.2041 32.0135C43.6374 31.8867 43.9415 31.4889 43.9415 31.0293C43.9415 30.5019 43.5416 30.0655 43.0288 30.0076V23.1317L44.5548 22.4292C44.8253 22.3041 45.0001 22.0315 45.0001 21.7335C45.0001 21.4356 44.8253 21.1629 44.5546 21.0378Z" fill="white"/>
<path d="M26.4999 33.0638C25.6872 33.0638 24.8998 32.891 24.1595 32.5504L16.151 28.8636V36.2086C16.151 37.8211 21.0236 39.8667 26.4999 39.8667C31.9764 39.8667 36.849 37.821 36.849 36.2086V28.8636L28.84 32.5504C28.1003 32.891 27.3129 33.0638 26.4999 33.0638Z" fill="white"/>
<path d="M26.8726 25.9998L26.1436 23.8169H22.7835L22.0545 25.9998H20L23.3203 16.9998H25.673L29 25.9998H26.8726ZM24.4404 18.7212L23.2143 22.4073H25.7128L24.4867 18.7212H24.4404Z" fill="#6C5BB6"/>
<path d="M29 21.9998C29 20.8952 29.8954 19.9998 31 19.9998V23.9998C31 25.1044 30.1046 25.9998 29 25.9998V21.9998Z" fill="#6C5BB6"/>
<circle cx="30" cy="17.9998" r="1" fill="#6C5BB6"/>
</g>
</g>
<defs>
<clipPath id="clip0_706_60437">
<rect y="-0.000183105" width="54" height="54" rx="24" fill="white"/>
</clipPath>
<clipPath id="clip1_706_60437">
<rect width="37" height="37" fill="white" transform="translate(8 7.99982)"/>
</clipPath>
</defs>
</svg>
