<svg width="54" height="54" viewBox="0 0 54 54" fill="none" xmlns="http://www.w3.org/2000/svg">
<g id="Phoenix_Suns_Logo" clip-path="url(#clip0_1_3732)">
<path id="Rectangle 8175" d="M0 23.9999C0 10.7451 10.7452 -6.10352e-05 24 -6.10352e-05H30C43.2548 -6.10352e-05 54 10.7451 54 23.9999V29.9999C54 43.2548 43.2548 53.9999 30 53.9999H24C10.7452 53.9999 0 43.2548 0 29.9999V23.9999Z" fill="#391366"/>
<g id="Group">
<g id="Clip path group">
<path id="Vector" d="M34.14 22.6509L37.3312 20.3982L37.8879 19.4541L33.775 19.6519L33.351 16.5808L36.2586 13.8674L35.4378 13.921L30.8126 15.5101L30.1943 11.4922L29.5812 11.9419L27.4221 15.4277L25.9593 16.3225L23.5563 12.3405L23.0946 13.8674L23.325 16.7118L23.3452 17.882L23.304 17.9397L19.9051 16.4543L20.3297 18.1267L21.8556 20.0592L19.5323 19.9444L20.0799 20.9633L21.3231 21.5131L11.5369 28.6853L13.267 28.0166L19.302 23.9231L11.5436 30.7019L10.7823 31.6486L21.2492 23.9079L20.779 24.9896L11.0541 33.9941L10.001 35.3749L20.9481 27.1294L22.0222 27.2542L15.258 33.7687L14.1106 35.3774L24.082 27.6001L25.8954 27.1599L18.2876 33.7255L17.0562 35.3809L27.9285 27.4811L29.762 30.413L31.4669 31.4463L32.012 26.0357L35.5498 26.0467L36.543 25.4459L34.14 22.6509Z" fill="#051922"/>
</g>
<g id="Clip path group_2">
<path id="Vector_2" d="M37.8882 19.4541L34.2882 18.1573L36.2582 13.8674L31.834 15.5714L30.1938 11.4922L28.1767 14.7556L23.5566 12.3405L23.9014 16.7569L19.9046 16.4543L22.0022 19.1236L19.5326 19.9444L21.1115 20.6914L11.5372 28.6853L22.1982 21.5759L10.7826 31.6486L21.1678 25.1892L10.0005 35.3749L22.6298 27.3189L14.1118 35.3774L26.5535 27.3053L17.0565 35.3809L29.1332 27.8806L31.468 31.4463L33.3993 25.4442L36.5425 25.4459L35.0033 21.6041L37.8882 19.4541Z" fill="#F9A01B"/>
</g>
<g id="Clip path group_3">
<path id="Vector_3" d="M37.8882 19.4541L34.2882 18.1573L36.2582 13.8674L31.834 15.5714L30.1938 11.4922L28.1767 14.7556L23.5566 12.3405L23.9014 16.7569L19.9046 16.4543L22.0022 19.1236L19.5326 19.9444L21.1115 20.6914L11.5372 28.6853L22.1982 21.5759L10.7826 31.6486L21.1678 25.1892L10.0005 35.3749L22.6298 27.3189L14.1118 35.3774L26.5535 27.3053L17.0565 35.3809L29.1332 27.8806L31.468 31.4463L33.3993 25.4442L36.5425 25.4459L35.0033 21.6041L37.8882 19.4541Z" stroke="#F9A01B" stroke-width="0.27382"/>
</g>
</g>
<g id="Group_2">
<g id="Clip path group_4">
<mask id="mask0_1_3732" style="mask-type:luminance" maskUnits="userSpaceOnUse" x="22" y="14" width="14" height="14">
<g id="SVGID_6_">
<path id="Vector_4" d="M22.4204 20.7731C22.4204 24.4577 25.3786 27.4473 29.0281 27.4473C32.676 27.4473 35.636 24.4577 35.636 20.7731C35.636 17.0859 32.6762 14.097 29.0281 14.097C25.3786 14.097 22.4204 17.0857 22.4204 20.7731Z" fill="white"/>
</g>
</mask>
<g mask="url(#mask0_1_3732)">
<path id="Vector_5" d="M29.0229 27.7099C32.8187 27.7099 35.8956 24.6014 35.8956 20.7687C35.8956 16.9354 32.8189 13.8276 29.0229 13.8276C25.2303 13.8276 22.1543 16.9354 22.1543 20.7687C22.1543 24.6014 25.2303 27.7099 29.0229 27.7099Z" fill="#BF2F38"/>
</g>
</g>
<g id="Clip path group_5">
<mask id="mask1_1_3732" style="mask-type:luminance" maskUnits="userSpaceOnUse" x="22" y="14" width="14" height="14">
<g id="SVGID_6__2">
<path id="Vector_6" d="M22.4204 20.7731C22.4204 24.4577 25.3786 27.4473 29.0281 27.4473C32.676 27.4473 35.636 24.4577 35.636 20.7731C35.636 17.0859 32.6762 14.097 29.0281 14.097C25.3786 14.097 22.4204 17.0857 22.4204 20.7731Z" fill="white"/>
</g>
</mask>
<g mask="url(#mask1_1_3732)">
<path id="Vector_7" d="M29.0168 25.8225C32.1667 26.5007 35.2695 24.4714 35.9408 21.2846C36.6145 18.0988 34.6042 14.9673 31.451 14.2874C28.3002 13.6068 25.1992 15.6386 24.5261 18.8236C23.8531 22.0087 25.8625 25.1434 29.0168 25.8225Z" fill="#E56020"/>
</g>
</g>
<g id="Clip path group_6">
<mask id="mask2_1_3732" style="mask-type:luminance" maskUnits="userSpaceOnUse" x="22" y="14" width="14" height="14">
<g id="SVGID_6__3">
<path id="Vector_8" d="M22.4204 20.7731C22.4204 24.4577 25.3786 27.4473 29.0281 27.4473C32.676 27.4473 35.636 24.4577 35.636 20.7731C35.636 17.0859 32.6762 14.097 29.0281 14.097C25.3786 14.097 22.4204 17.0857 22.4204 20.7731Z" fill="white"/>
</g>
</mask>
<g mask="url(#mask2_1_3732)">
<path id="Vector_9" d="M29.0168 25.8225C32.1667 26.5007 35.2695 24.4714 35.9408 21.2846C36.6145 18.0988 34.6042 14.9673 31.451 14.2874C28.3002 13.6068 25.1992 15.6386 24.5261 18.8236C23.8531 22.0087 25.8625 25.1434 29.0168 25.8225Z" stroke="#E56020" stroke-width="0.196257"/>
</g>
</g>
<g id="Clip path group_7">
<mask id="mask3_1_3732" style="mask-type:luminance" maskUnits="userSpaceOnUse" x="22" y="14" width="14" height="14">
<g id="SVGID_6__4">
<path id="Vector_10" d="M22.4204 20.7731C22.4204 24.4577 25.3786 27.4473 29.0281 27.4473C32.676 27.4473 35.636 24.4577 35.636 20.7731C35.636 17.0859 32.6762 14.097 29.0281 14.097C25.3786 14.097 22.4204 17.0857 22.4204 20.7731Z" fill="white"/>
</g>
</mask>
<g mask="url(#mask3_1_3732)">
<path id="Vector_11" d="M28.3354 14.465C28.3354 14.465 36.4622 15.1389 34.4663 24.1119C34.4663 24.1119 36.6894 19.9172 33.7462 16.5012C33.7462 16.5012 31.72 14.0834 28.3354 14.465Z" fill="#F9A01B"/>
</g>
</g>
<g id="Clip path group_8">
<mask id="mask4_1_3732" style="mask-type:luminance" maskUnits="userSpaceOnUse" x="22" y="14" width="14" height="14">
<g id="SVGID_6__5">
<path id="Vector_12" d="M22.4204 20.7731C22.4204 24.4577 25.3786 27.4473 29.0281 27.4473C32.676 27.4473 35.636 24.4577 35.636 20.7731C35.636 17.0859 32.6762 14.097 29.0281 14.097C25.3786 14.097 22.4204 17.0857 22.4204 20.7731Z" fill="white"/>
</g>
</mask>
<g mask="url(#mask4_1_3732)">
<path id="Vector_13" d="M28.3354 14.465C28.3354 14.465 36.4622 15.1389 34.4663 24.1119C34.4663 24.1119 36.6894 19.9172 33.7462 16.5012C33.7462 16.5012 31.72 14.0834 28.3354 14.465Z" stroke="#F9A01B" stroke-width="0.27382" stroke-linejoin="round"/>
</g>
</g>
<g id="Clip path group_9">
<mask id="mask5_1_3732" style="mask-type:luminance" maskUnits="userSpaceOnUse" x="22" y="14" width="14" height="14">
<g id="SVGID_6__6">
<path id="Vector_14" d="M22.4204 20.7731C22.4204 24.4577 25.3786 27.4473 29.0281 27.4473C32.676 27.4473 35.636 24.4577 35.636 20.7731C35.636 17.0859 32.6762 14.097 29.0281 14.097C25.3786 14.097 22.4204 17.0857 22.4204 20.7731Z" fill="white"/>
</g>
</mask>
<g mask="url(#mask5_1_3732)">
<path id="Vector_15" d="M32.9932 18.7648C32.9621 18.6824 32.9385 18.6348 32.9335 18.6195C32.6382 17.9856 32.2909 17.4485 31.904 16.9896C33.5795 16.608 34.7823 16.7908 34.8025 16.7916L34.6612 16.3591C34.5712 16.3523 33.3423 16.179 31.5759 16.62C31.1167 16.145 30.6257 15.7702 30.1327 15.4719C30.4094 15.1541 30.6257 14.7317 30.7129 14.164L30.3564 14.175C30.3564 14.175 30.3033 14.7818 29.8365 15.3052C28.0398 14.3339 26.2954 14.3491 26.1878 14.3416L26.075 14.6646C26.1659 14.673 27.8708 14.7232 29.4327 15.6478C29.0846 15.8705 28.6093 16.0309 27.9558 16.0309C27.9558 16.0309 24.8807 16.1295 23.5197 17.0049L22.9345 17.9873C22.9345 17.9873 24.747 16.4025 28.0703 16.4169C28.0703 16.4169 28.9922 16.394 29.7567 15.8203C30.2025 16.071 30.6407 16.383 31.0394 16.7661C29.8871 17.1179 28.5446 17.7332 27.1619 18.7962C27.0424 18.883 24.0279 21.0941 23.0244 24.7847L24.027 25.6931C24.9564 21.3353 27.6563 19.1105 27.6841 19.0893C28.9533 18.0355 30.2486 17.4484 31.3799 17.1237C31.7779 17.5843 32.121 18.1323 32.3733 18.7902C31.8872 18.8481 30.2169 19.244 29.2428 21.908C29.2361 21.9292 28.3429 24.8584 28.3429 24.8584C28.3141 24.9681 27.7886 27.26 25.8733 27.283L25.8826 28.035C28.4732 28.4472 28.8231 26.9523 29.3009 25.1797C29.613 23.8183 30.0134 22.1365 30.0134 22.1365C30.5205 19.7027 32.1078 19.3136 32.5256 19.2532C32.8462 20.415 33.3972 23.611 31.4095 27.0654L32.4038 27.5192C32.5485 27.2924 32.8134 27.0595 32.9294 26.8317C34.2433 23.5786 33.5863 20.5831 33.1607 19.2455C34.8194 19.4214 35.7714 21.1558 35.8085 21.2316L36.3114 21.1466C36.2635 21.0526 35.2449 18.8465 32.9932 18.7648Z" fill="#F9A01B"/>
</g>
</g>
<g id="Clip path group_10">
<mask id="mask6_1_3732" style="mask-type:luminance" maskUnits="userSpaceOnUse" x="22" y="14" width="14" height="14">
<g id="SVGID_6__7">
<path id="Vector_16" d="M22.4204 20.7731C22.4204 24.4577 25.3786 27.4473 29.0281 27.4473C32.676 27.4473 35.636 24.4577 35.636 20.7731C35.636 17.0859 32.6762 14.097 29.0281 14.097C25.3786 14.097 22.4204 17.0857 22.4204 20.7731Z" fill="white"/>
</g>
</mask>
<g mask="url(#mask6_1_3732)">
<path id="Vector_17" d="M32.9932 18.7648C32.9621 18.6824 32.9385 18.6348 32.9335 18.6195C32.6382 17.9856 32.2909 17.4485 31.904 16.9896C33.5795 16.608 34.7823 16.7908 34.8025 16.7916L34.6612 16.3591C34.5712 16.3523 33.3423 16.179 31.5759 16.62C31.1167 16.145 30.6257 15.7702 30.1327 15.4719C30.4094 15.1541 30.6257 14.7317 30.7129 14.164L30.3564 14.175C30.3564 14.175 30.3033 14.7818 29.8365 15.3052C28.0398 14.3339 26.2954 14.3491 26.1878 14.3416L26.075 14.6646C26.1659 14.673 27.8708 14.7232 29.4327 15.6478C29.0846 15.8705 28.6093 16.0309 27.9558 16.0309C27.9558 16.0309 24.8807 16.1295 23.5197 17.0049L22.9345 17.9873C22.9345 17.9873 24.747 16.4025 28.0703 16.4169C28.0703 16.4169 28.9922 16.394 29.7567 15.8203C30.2025 16.071 30.6407 16.383 31.0394 16.7661C29.8871 17.1179 28.5446 17.7332 27.1619 18.7962C27.0424 18.883 24.0279 21.0941 23.0244 24.7847L24.027 25.6931C24.9564 21.3353 27.6563 19.1105 27.6841 19.0893C28.9533 18.0355 30.2486 17.4484 31.3799 17.1237C31.7779 17.5843 32.121 18.1323 32.3733 18.7902C31.8872 18.8481 30.2169 19.244 29.2428 21.908C29.2361 21.9292 28.3429 24.8584 28.3429 24.8584C28.3141 24.9681 27.7886 27.26 25.8733 27.283L25.8826 28.035C28.4732 28.4472 28.8231 26.9523 29.3009 25.1797C29.613 23.8183 30.0134 22.1365 30.0134 22.1365C30.5205 19.7027 32.1078 19.3136 32.5256 19.2532C32.8462 20.415 33.3972 23.611 31.4095 27.0654L32.4038 27.5192C32.5485 27.2924 32.8134 27.0595 32.9294 26.8317C34.2433 23.5786 33.5863 20.5831 33.1607 19.2455C34.8194 19.4214 35.7714 21.1558 35.8085 21.2316L36.3114 21.1466C36.2635 21.0526 35.2449 18.8465 32.9932 18.7648Z" stroke="#F9A01B" stroke-width="0.27382"/>
</g>
</g>
<g id="Clip path group_11">
<mask id="mask7_1_3732" style="mask-type:luminance" maskUnits="userSpaceOnUse" x="22" y="14" width="14" height="14">
<g id="SVGID_6__8">
<path id="Vector_18" d="M22.4204 20.7731C22.4204 24.4577 25.3786 27.4473 29.0281 27.4473C32.676 27.4473 35.636 24.4577 35.636 20.7731C35.636 17.0859 32.6762 14.097 29.0281 14.097C25.3786 14.097 22.4204 17.0857 22.4204 20.7731Z" fill="white"/>
</g>
</mask>
<g mask="url(#mask7_1_3732)">
<path id="Vector_19" d="M35.5621 19.9394C35.1087 19.3615 34.5401 18.9604 33.8706 18.7439C33.6435 18.6683 33.408 18.6164 33.1691 18.5917C33.0059 18.5715 32.8461 18.5638 32.6889 18.568H32.6727L32.6652 18.5545C32.3742 17.9459 32.0158 17.3945 31.5944 16.9161L31.5658 16.8864L31.6062 16.8744C33.1387 16.4768 34.2539 16.5761 34.5996 16.6212C34.5786 16.5601 34.4961 16.3162 34.4852 16.289C34.4759 16.2873 34.4659 16.2873 34.4659 16.2873C34.3877 16.277 34.1749 16.2576 33.8638 16.255C33.0479 16.2294 32.1782 16.3358 31.2873 16.572L31.273 16.5763L31.2621 16.5643C30.8575 16.1675 30.3991 15.8183 29.8971 15.5294L29.87 15.5125L29.9862 15.39C30.2536 15.0944 30.4311 14.7188 30.5111 14.2674C30.5413 14.0873 30.5582 13.8909 30.5598 13.687C30.4976 13.7107 30.1392 13.8544 30.114 13.8663C30.1115 13.896 30.087 14.1808 30.087 14.1808C30.0853 14.1791 30.0643 14.3048 30.0643 14.3048C30.0643 14.3083 30.0601 14.3158 30.0601 14.3158C29.9718 14.6939 29.663 15.0356 29.42 15.2583L29.4074 15.2703L29.3931 15.2608C28.3661 14.7739 27.1567 14.4978 25.9833 14.4834C25.9833 14.4834 25.9622 14.4808 25.9446 14.4808C25.937 14.5105 25.8772 14.7009 25.8614 14.7468C26.361 14.7772 27.6512 14.9116 28.9835 15.5217L29.0423 15.5497L28.9801 15.5719C28.6807 15.6746 28.3209 15.719 27.9144 15.701C27.4544 15.6442 23.941 15.5763 22.6904 16.9102C22.7123 16.9469 23.1051 17.4916 23.1362 17.5365C23.1858 17.4829 23.2438 17.4294 23.3104 17.3759C23.3852 17.3267 25.1239 16.1904 27.9726 16.2211C27.9811 16.2211 28.7919 16.2406 29.5 15.8013L29.5118 15.7928L29.5252 15.8013C29.9794 16.0554 30.3848 16.3528 30.7432 16.6877L30.7785 16.7184L30.7348 16.7328C29.7036 17.0618 29.0173 17.4459 29.0123 17.4492C27.7329 18.1333 27.3637 18.4179 26.4889 19.1352L26.3711 19.2592L26.3526 19.2788C25.3718 20.1668 23.6242 22.0416 22.8999 24.6792C22.9327 24.6987 23.762 25.1916 23.8175 25.2257C23.9185 24.7838 24.0473 24.3393 24.2028 23.9008C24.3273 23.5593 24.4744 23.2032 24.6403 22.8428C25.8178 20.3369 27.4983 18.9857 27.5135 18.9763C28.6188 18.0899 29.8148 17.4339 31.0614 17.0336L31.08 17.0259L31.0899 17.0396C31.5046 17.5028 31.8402 18.0313 32.0833 18.61L32.0942 18.6397L32.064 18.6464C31.83 18.7033 31.5945 18.7943 31.3659 18.9175C29.5785 19.8182 29.0613 22.0787 29.0579 22.1016C29.0579 22.1049 28.2555 24.5567 28.2555 24.5567C28.1462 24.9647 27.5271 26.9454 25.7405 26.9471C25.7405 26.9922 25.7254 27.4477 25.7239 27.4876C25.7651 27.4951 26.2663 27.5929 26.2663 27.5929C26.8526 27.7161 27.1469 27.7782 27.5036 27.5742L27.5086 27.5691L27.5202 27.5717C27.5616 27.5784 27.7761 27.542 27.9569 27.3457C27.9662 27.3381 28.2832 27.174 28.6701 26.2155C28.8232 25.8509 28.9453 25.4278 29.0755 24.9799L29.0982 24.9001L29.194 24.4411L29.2049 24.3978C29.4706 23.2352 29.8593 21.8484 29.861 21.8348L29.9122 21.6479C30.0351 21.2756 30.1519 20.9773 30.2622 20.7599C30.8661 19.6009 31.7585 19.2311 32.237 19.113L32.2597 19.1088L32.2656 19.1335C32.39 19.5746 32.6088 20.5297 32.6088 21.779C32.6088 23.2678 32.2983 25.1765 31.1493 27.1327C31.1476 27.1369 30.3628 28.1099 30.1241 28.4023C30.304 28.3232 32.0855 27.5236 32.1006 27.5184C33.121 25.9064 33.4261 24.1711 33.4261 22.6772C33.4261 21.032 33.061 19.6791 32.8702 19.0918L32.8594 19.0561L32.8947 19.0579C34.7375 19.1113 35.7326 20.794 35.8107 20.93C35.8334 20.9317 36.1565 20.9639 36.2289 20.9716C36.1441 20.7859 35.933 20.3779 35.5621 19.9394Z" fill="white"/>
</g>
</g>
<g id="Clip path group_12">
<mask id="mask8_1_3732" style="mask-type:luminance" maskUnits="userSpaceOnUse" x="22" y="14" width="14" height="14">
<g id="SVGID_6__9">
<path id="Vector_20" d="M22.4204 20.7731C22.4204 24.4577 25.3786 27.4473 29.0281 27.4473C32.676 27.4473 35.636 24.4577 35.636 20.7731C35.636 17.0859 32.6762 14.097 29.0281 14.097C25.3786 14.097 22.4204 17.0857 22.4204 20.7731Z" fill="white"/>
</g>
</mask>
<g mask="url(#mask8_1_3732)">
<path id="Vector_21" d="M35.5817 19.9217C35.0519 19.2504 34.4328 18.8968 33.8785 18.7192C33.6582 18.6454 33.4226 18.5926 33.172 18.5663C32.9836 18.5434 32.8212 18.5374 32.6891 18.5416C32.3797 17.8992 32.0146 17.3544 31.6142 16.899C33.3865 16.4402 34.6171 16.6518 34.6373 16.6551L34.5051 16.265C34.4682 16.2625 34.2402 16.232 33.8642 16.2276V16.2259C32.9288 16.1987 32.0383 16.3473 31.2795 16.5471C30.8438 16.1188 30.3787 15.7772 29.9111 15.5078C29.9439 15.4738 29.975 15.4407 30.0078 15.4041C30.3189 15.0633 30.4687 14.6519 30.5361 14.272C30.5764 14.0452 30.5873 13.8301 30.5873 13.6467L30.0885 13.8472C30.0859 13.9398 30.0769 14.0528 30.0591 14.1752H30.0584C30.0551 14.2169 30.0475 14.2568 30.0381 14.2984C30.0364 14.3017 30.0364 14.306 30.0364 14.3119C29.9481 14.6783 29.6479 15.0148 29.4022 15.2382C27.6645 14.408 26.0285 14.4608 25.9268 14.4531L25.8266 14.7708C25.9116 14.7768 27.4105 14.8295 28.9724 15.5475C28.6923 15.6418 28.3474 15.6929 27.9151 15.6742C27.3515 15.6037 23.8937 15.5612 22.6531 16.9081L23.1308 17.5743C23.1872 17.514 23.2545 17.4536 23.3276 17.3967C23.3604 17.3738 25.1016 16.2147 27.9722 16.2452C27.9722 16.2452 28.7898 16.2732 29.5139 15.8212C29.9336 16.06 30.3458 16.3506 30.7287 16.7066C29.678 17.0423 28.9984 17.4247 28.9984 17.4247C27.7401 18.0986 27.375 18.373 26.4727 19.1125C26.4255 19.1609 26.3776 19.2102 26.3337 19.2594C25.3583 20.1416 23.5918 22.0314 22.8676 24.6904L23.8341 25.2649C23.9383 24.7865 24.0746 24.3351 24.2261 23.9094C24.3723 23.5065 24.5323 23.1386 24.6618 22.8531C25.8325 20.3641 27.5073 19.0112 27.53 18.9968C28.7816 17.9931 30.0027 17.4008 31.071 17.0558C31.4588 17.4901 31.8011 18.0051 32.0594 18.6204C31.8634 18.668 31.6212 18.7496 31.3546 18.8923C29.5354 19.8109 29.0323 22.0968 29.0323 22.0968C28.7598 22.9271 28.2307 24.5484 28.2307 24.5484C28.2013 24.6563 27.6294 26.9405 25.7149 26.9201L25.6983 27.5099C26.6858 27.685 27.0491 27.8634 27.5133 27.5965C27.5723 27.6075 27.7977 27.5566 27.9735 27.362C27.9735 27.362 28.2981 27.2109 28.6926 26.2225C28.8558 25.8374 28.9836 25.3887 29.1233 24.9095C29.1527 24.7624 29.1863 24.6053 29.2218 24.4464C29.2251 24.4327 29.2285 24.4175 29.2335 24.4047V24.3928C29.5001 23.2295 29.8869 21.84 29.8869 21.84C29.903 21.7779 29.9207 21.7168 29.9356 21.6547C30.05 21.3165 30.1654 21.0047 30.2839 20.77C30.8895 19.6085 31.7945 19.2498 32.2419 19.1393C32.5448 20.2109 33.1891 23.6067 31.1267 27.1189L30.0366 28.4693L32.1192 27.5379C34.2228 24.2229 33.317 20.3929 32.8946 19.0824C34.7384 19.1368 35.7595 20.8764 35.794 20.9545L36.2717 21.0012C36.252 20.9575 36.03 20.4587 35.5817 19.9217Z" fill="#051922"/>
</g>
</g>
</g>
<g id="Group_3">
<g id="Clip path group_13">
<mask id="mask9_1_3732" style="mask-type:luminance" maskUnits="userSpaceOnUse" x="24" y="11" width="13" height="16">
<g id="SVGID_10_">
<path id="Vector_22" d="M33.2059 26.0417L35.5492 26.0468L36.5433 25.446L33.3985 25.4452L33.2059 26.0417ZM24.7998 12.9871L27.9178 14.6213L28.1752 14.7555L30.1946 11.4924L24.7998 12.9871Z" fill="white"/>
</g>
</mask>
<g mask="url(#mask9_1_3732)">
<path id="Vector_23" d="M29.0279 27.4473C25.3784 27.4473 22.4194 24.4578 22.4194 20.7731C22.4194 17.086 25.3784 14.097 29.0279 14.097C32.6758 14.097 35.6358 17.0858 35.6358 20.7731C35.6356 24.4578 32.6758 27.4473 29.0279 27.4473Z" stroke="#BF2F38" stroke-width="0.27382"/>
</g>
</g>
</g>
<g id="Group_4">
<g id="Clip path group_14">
<path id="Vector_24" d="M29.0279 27.4473C25.3784 27.4473 22.4194 24.4578 22.4194 20.7731C22.4194 17.086 25.3784 14.097 29.0279 14.097C32.6758 14.097 35.6358 17.0858 35.6358 20.7731C35.6356 24.4578 32.6758 27.4473 29.0279 27.4473Z" stroke="#F9A01B" stroke-width="0.27382"/>
</g>
</g>
<path id="Vector_25" d="M27.7491 33.2413C27.5767 33.2413 27.4678 33.2428 27.4678 33.2428H27.3962L25.8608 38.9967H27.9359C27.9359 38.9967 27.9907 38.7916 28.0776 38.4699H26.3546L27.7491 33.2413Z" fill="#051922"/>
<path id="Vector_26" d="M30.2485 34.4456C30.0805 34.4441 29.6138 34.4427 29.51 34.4427C29.5019 34.4722 29.4487 34.6736 29.3683 34.9709C29.5166 34.9724 29.6715 34.9724 29.7553 34.9724C29.6933 35.1974 28.6699 38.9957 28.6699 38.9957L30.7304 38.9994L30.8714 38.4704L29.1637 38.4689C29.1639 38.469 30.1894 34.6692 30.2485 34.4456Z" fill="#051922"/>
<path id="Vector_27" d="M24.1525 36.7326C24.1795 36.6293 24.8033 34.3016 25.0904 33.2331H24.8347V33.2316H24.7361L24.7119 33.3246L24.7148 33.3231C24.652 33.5548 24.0735 35.7099 23.7988 36.7311C23.9516 36.7326 24.1013 36.7326 24.1525 36.7326Z" fill="#051922"/>
<path id="Vector_28" d="M22.1213 38.4653C21.8576 38.4653 21.6464 38.368 21.5004 38.1731C21.3411 37.9643 21.2783 37.6617 21.2783 37.3591C21.2783 37.1553 21.3053 36.9502 21.3549 36.773L22.2965 33.2316H22.0394L22.0416 33.2293H21.9423L21.9181 33.3216L21.9196 33.3201L20.859 37.3015C20.7896 37.6542 20.8189 38.1597 21.1169 38.5272C21.3675 38.8357 21.7473 38.9936 22.2461 38.9936L25.1203 38.9899L25.2766 38.9914L25.3468 38.7272L25.3454 38.7295L25.417 38.4631C24.5032 38.4632 22.1227 38.4653 22.1213 38.4653Z" fill="#051922"/>
<path id="Vector_29" d="M15.3612 38.5241L15.6752 37.3672H15.2771L14.8447 38.9683H19.1309C19.4749 38.9683 19.686 38.7667 19.8218 38.5219C19.8043 38.5241 19.7867 38.5241 19.7685 38.5241H15.3612Z" fill="#051922"/>
<path id="Vector_30" d="M18.7039 34.464C18.6826 34.5474 18.6256 34.7525 18.5898 34.8854C18.8025 34.8854 20.3523 34.8869 20.3523 34.8869C20.4224 34.8869 20.4861 34.8936 20.5466 34.9053H20.7826L20.8951 34.462C20.1019 34.4618 18.798 34.464 18.7039 34.464Z" fill="#051922"/>
<path id="Vector_31" d="M16.1716 36.735H18.6462C18.6681 36.6525 18.7273 36.4509 18.7682 36.316C18.5506 36.3183 17.0268 36.3183 17.0268 36.3183C16.7427 36.3183 16.5024 36.2098 16.3483 36.0128C16.192 35.8077 16.1452 35.534 16.2183 35.2403C16.2592 35.0794 16.6134 33.7419 16.6719 33.5382C16.6865 33.4858 16.7041 33.4347 16.7223 33.3839C16.4082 33.4841 16.2286 33.7307 16.1227 34.1026C16.065 34.3018 15.7115 35.6372 15.6697 35.801C15.5537 36.2606 15.7721 36.6361 16.1716 36.735Z" fill="#051922"/>
<path id="Vector_32" d="M35.0555 34.464C35.0313 34.5474 34.9758 34.7525 34.9395 34.8854C35.1534 34.8854 36.7027 34.8869 36.7027 34.8869C36.7742 34.8869 36.837 34.8936 36.8977 34.9053H37.1307L37.244 34.462C36.4528 34.4618 35.1476 34.464 35.0555 34.464Z" fill="#051922"/>
<path id="Vector_33" d="M32.522 36.7349H34.996C35.0185 36.6524 35.0784 36.4508 35.1186 36.3159C34.901 36.3182 33.3759 36.3182 33.3759 36.3182C33.0938 36.3182 32.8528 36.2097 32.6995 36.014C32.5417 35.8089 32.4963 35.5337 32.5694 35.2401C32.6125 35.0674 32.9667 33.7335 33.0209 33.5379C33.0369 33.4855 33.056 33.4345 33.0734 33.3836C32.7564 33.4839 32.579 33.7305 32.4731 34.1023C32.4161 34.3015 32.0619 35.637 32.021 35.8008C31.9048 36.2605 32.1219 36.636 32.522 36.7349Z" fill="#051922"/>
<path id="Vector_34" d="M31.7131 38.5241L32.0243 37.3672H31.6292L31.1953 38.9683H35.48C35.8269 38.9683 36.0365 38.7667 36.1739 38.5219C36.1549 38.5241 36.1368 38.5241 36.1199 38.5241H31.7131Z" fill="#051922"/>
<path id="Vector_35" d="M25.8462 32.3133H24.3934C24.2648 32.3133 24.1597 32.2653 24.0859 32.176C23.98 32.0478 23.9661 31.861 23.9845 31.7607L24.273 30.7337C24.273 30.7337 24.2942 30.6562 24.2934 30.6628C24.3029 30.6156 24.3241 30.561 24.3584 30.5019C24.1224 30.6317 24.083 30.8302 24.0765 30.8715C24.0765 30.8782 23.7697 31.9686 23.7697 31.9686C23.7646 31.9937 23.7617 32.0219 23.7617 32.0527C23.7617 32.1546 23.7894 32.2859 23.869 32.3841C23.9442 32.4741 24.0516 32.5235 24.1781 32.5235H25.6316C25.8558 32.5235 26.0114 32.3972 26.1013 32.2497C26.0287 32.2889 25.9448 32.3133 25.8462 32.3133Z" fill="#051922"/>
<path id="Vector_36" d="M25.4597 31.6264C25.4852 31.5424 25.635 31.0118 25.6781 30.8679H25.2354C25.2281 30.8975 25.2033 30.9778 25.1763 31.076H25.4612C25.4341 31.1717 25.3604 31.4361 25.3055 31.6263H25.4597V31.6264Z" fill="#051922"/>
<path id="Vector_37" d="M21.8646 32.312C21.8646 32.312 22.0165 31.7726 22.0573 31.6295C21.9426 31.6295 21.7426 31.631 21.671 31.631C21.6623 31.6606 21.6388 31.7431 21.6118 31.8397C21.6922 31.8397 21.7777 31.8375 21.8427 31.8375C21.8026 31.9807 21.6491 32.5208 21.6491 32.5208H22.6271L22.6863 32.312H21.8646Z" fill="#051922"/>
<path id="Vector_38" d="M20.4842 32.3118L21.0335 30.3934H20.8802L20.2666 32.5206H21.2607C21.2607 32.5206 21.287 32.4283 21.3199 32.3118H20.4842Z" fill="#051922"/>
<path id="Vector_39" d="M28.469 31.5505C28.4587 31.58 28.458 31.5919 28.4478 31.6287H29.501L29.5229 31.549C29.2126 31.5505 28.5472 31.5505 28.469 31.5505Z" fill="#051922"/>
<path id="Vector_40" d="M27.2456 32.3118L27.7914 30.3935H27.6358L27.0288 32.5207H29.2391L29.2989 32.3118H27.2456Z" fill="#051922"/>
<path id="Vector_41" d="M33.7495 32.3118L34.2908 30.3935H34.1317L33.5342 32.5207H34.5238L34.583 32.3118H33.7495Z" fill="#051922"/>
<path id="Vector_42" d="M37.341 32.312C37.341 32.312 37.2336 31.9592 37.1869 31.8035C37.1388 31.8574 37.0584 31.9495 36.978 32.0382C37.0284 32.2058 37.1264 32.5207 37.1264 32.5207H38.1796C38.1796 32.5207 38.1437 32.4335 38.0941 32.312H37.341Z" fill="#051922"/>
<path id="Vector_43" d="M35.5104 32.3118C35.5104 32.3118 36.5272 31.2433 36.5915 31.1763C36.5682 31.1187 36.3857 30.6665 36.276 30.3935H35.9765C35.9765 30.3935 36.3038 31.2227 36.3358 31.3047C36.2745 31.3704 35.1919 32.5207 35.1919 32.5207H36.5198C36.5198 32.5207 36.6053 32.4256 36.7026 32.3119L35.5104 32.3118Z" fill="#051922"/>
<path id="Vector_44" d="M30.359 32.3132L30.9046 30.3919H30.7469L30.7323 30.4465L30.1436 32.5235H31.1501C31.1501 32.5235 31.1728 32.4401 31.2099 32.3132H30.359Z" fill="#051922"/>
<path id="Vector_45" d="M31.6271 32.3133C31.6271 32.3133 31.9895 31.0517 32.0355 30.8841H31.7718C31.7658 30.9055 31.7424 30.983 31.7133 31.0929H31.8213C31.7718 31.2618 31.4116 32.5235 31.4116 32.5235H32.4094L32.47 32.3132H31.6271V32.3133Z" fill="#051922"/>
<path id="Vector_46" d="M17.0799 32.3118L17.6249 30.3934H17.4701L17.4532 30.448L16.8623 32.5204H17.8433C17.8433 32.5204 17.8725 32.4215 17.9061 32.3116H17.0799V32.3118Z" fill="#051922"/>
<path id="Vector_47" d="M18.9892 31.1719C19.0074 31.1077 19.0468 30.9712 19.0745 30.8679H18.4749C18.461 30.9159 18.4391 30.9984 18.415 31.0781H18.8591C18.8504 31.1077 18.8408 31.1401 18.8321 31.1719H18.9892Z" fill="#051922"/>
<path id="Vector_48" d="M19.1268 31.8574H18.6054H18.1942C18.1825 31.8921 18.1569 31.9778 18.1313 32.0662C18.2512 32.0677 18.3871 32.0677 18.3871 32.0677H18.9136C19.2672 32.0618 19.4257 31.9739 19.5484 31.777C19.4453 31.8294 19.3138 31.8545 19.1268 31.8574Z" fill="#051922"/>
<path id="Vector_49" d="M32.1269 34.3541C32.1269 34.3541 31.2161 37.7724 31.0817 38.2846C30.9575 38.2846 29.6128 38.2831 29.4076 38.2831C29.4682 38.0594 30.4915 34.2589 30.4915 34.2589L29.3674 34.2538C29.3674 34.2538 28.3215 38.1488 28.2864 38.2831H26.5991C26.6583 38.0594 27.9978 33.0347 28.0359 32.9033C28.1725 32.9033 31.5398 32.8996 31.5398 32.8996C31.7421 32.8996 31.9029 32.9719 32.0124 33.1166C32.1454 33.2908 32.1964 33.5513 32.1964 33.8155C32.1963 34.0059 32.1699 34.1933 32.1269 34.3541Z" fill="white"/>
<path id="Vector_50" d="M25.627 38.2727C25.4896 38.2727 22.1225 38.2779 22.1225 38.2779C21.9171 38.2779 21.7572 38.2041 21.6491 38.0594C21.5177 37.8852 21.4658 37.6233 21.4658 37.3606C21.4658 37.1716 21.4928 36.9827 21.533 36.8204C21.533 36.8204 22.4417 33.4036 22.5797 32.8929C22.7025 32.8929 24.0508 32.8952 24.2545 32.8952C24.1947 33.1166 23.1678 36.9172 23.1678 36.9172L24.294 36.9224C24.294 36.9224 25.3385 33.0296 25.3736 32.8952H27.0631C27.0031 33.1181 25.662 38.1414 25.627 38.2727Z" fill="white"/>
<path id="Vector_51" d="M20.8799 36.205C20.8251 36.4287 20.5826 37.3954 20.5089 37.63C20.3584 38.1074 20.1166 38.337 19.7703 38.337H15.604C15.6574 38.1436 15.9546 37.0404 15.986 36.9239H18.7858L19.0159 36.1283L17.0247 36.1312C16.7997 36.1312 16.6135 36.0479 16.4973 35.8966C16.4133 35.7902 16.3717 35.6551 16.3717 35.5046C16.3717 35.4331 16.3805 35.3614 16.3995 35.2862C16.439 35.1252 16.7925 33.7939 16.8502 33.5925C16.9889 33.1048 17.2453 32.8952 17.7047 32.8952H21.6965C21.6483 33.0857 21.3752 34.1534 21.3475 34.2738C21.2087 34.2738 18.5616 34.2767 18.5616 34.2767L18.3469 35.0744L20.3534 35.076C20.5572 35.0744 20.7091 35.135 20.8033 35.2582C21.0143 35.526 20.9259 36.0101 20.8799 36.205Z" fill="white"/>
<path id="Vector_52" d="M36.7028 35.0759C36.9087 35.0743 37.0593 35.1349 37.1558 35.2581C37.3661 35.526 37.2784 36.0101 37.2295 36.2064C37.1652 36.4743 36.9292 37.4078 36.8593 37.63C36.7088 38.1074 36.4678 38.337 36.1214 38.337H31.9551C32.0078 38.1444 32.305 37.0404 32.3386 36.9239H35.1354L35.3676 36.1283L33.3766 36.1312C33.1515 36.1312 32.9653 36.0479 32.8477 35.8966C32.7645 35.7902 32.7236 35.6551 32.7236 35.5046C32.7236 35.4338 32.7322 35.3614 32.7498 35.2862C32.7936 35.1134 33.1465 33.7844 33.1998 33.5925C33.3415 33.1048 33.5957 32.8952 34.0558 32.8952H38.0484C38.0002 33.0857 37.7292 34.1534 37.6977 34.2738C37.5603 34.2738 34.9133 34.2767 34.9133 34.2767L34.6957 35.0744L36.7028 35.0759Z" fill="white"/>
<path id="Vector_53" d="M22.729 32.1611H22.0643C22.1031 32.018 22.2586 31.4764 22.2586 31.4764L21.5567 31.4801C21.5567 31.4801 21.3901 32.0674 21.3646 32.161H20.6846C20.7343 31.9899 21.1805 30.4346 21.2076 30.338H21.881C21.8409 30.4803 21.6823 31.0174 21.6823 31.0174L22.3908 31.0202C22.3908 31.0202 22.5596 30.4316 22.5881 30.3378H23.2513C23.2016 30.5077 22.7568 32.0622 22.729 32.1611Z" fill="white"/>
<path id="Vector_54" d="M29.7489 30.715H28.5451L28.4356 31.1222C28.4356 31.1222 29.4764 31.1207 29.6422 31.1207C29.6152 31.2189 29.5823 31.3354 29.5661 31.3981H28.3559L28.2442 31.7803C28.2442 31.7803 29.2822 31.7818 29.4522 31.7818C29.4179 31.8954 29.3624 32.0888 29.3427 32.161H27.4458C27.4939 31.9905 27.9374 30.4359 27.9644 30.338H29.8641C29.8299 30.4509 29.77 30.6463 29.7489 30.715Z" fill="white"/>
<path id="Vector_55" d="M34.6263 32.1612H33.9492C33.996 31.9901 34.4335 30.4362 34.4635 30.3382H35.1457C35.0989 30.5078 34.6561 32.0623 34.6263 32.1612Z" fill="white"/>
<path id="Vector_56" d="M38.169 32.1589C38.0104 32.1589 37.5351 32.1611 37.4524 32.1611C37.4254 32.0727 37.25 31.4993 37.25 31.4993C37.25 31.4993 36.7081 32.1131 36.6673 32.1611H35.8638C36.0515 31.9627 36.7672 31.2093 36.7672 31.2093C36.7672 31.2093 36.4818 30.5017 36.4167 30.338H37.1353C37.1647 30.4198 37.3544 30.9644 37.3544 30.9644L37.44 30.8662C37.44 30.8662 37.8535 30.3837 37.8972 30.338H38.7292C38.5327 30.5372 37.8036 31.2669 37.8036 31.2669C37.8036 31.2669 38.0997 31.9935 38.169 32.1589Z" fill="white"/>
<path id="Vector_57" d="M32.8991 30.7978C32.8991 30.7978 32.5857 31.9016 32.512 32.1627H31.8283C31.875 31.9938 32.238 30.7337 32.238 30.7337L31.6603 30.73C31.6603 30.73 31.2804 32.0609 31.2512 32.1627H30.5596C30.6085 31.9923 31.0497 30.4348 31.076 30.3345H32.6573C32.753 30.3345 32.8217 30.3625 32.8662 30.4216C32.9064 30.4762 32.9225 30.553 32.9225 30.6319C32.9225 30.6893 32.9151 30.7469 32.8991 30.7978Z" fill="white"/>
<path id="Vector_58" d="M19.8779 30.6921C19.8714 30.8744 19.7808 31.1717 19.7208 31.3156C19.5981 31.5982 19.5237 31.6999 19.1255 31.7066H18.6047L18.081 31.7043L18.0664 31.7589C18.0664 31.7589 17.9722 32.0753 17.9459 32.1609H17.2798C17.3265 31.9898 17.7699 30.4345 17.7984 30.3364C17.9058 30.3364 19.5477 30.3379 19.5477 30.3379C19.6603 30.3379 19.7478 30.3658 19.799 30.4234C19.8618 30.4906 19.8794 30.5887 19.8794 30.6662C19.8794 30.6745 19.8794 30.6842 19.8779 30.6921ZM18.3622 30.7173L18.1899 31.3224H19.1029L19.2746 30.7173H19.1745H18.3622Z" fill="white"/>
<path id="Vector_59" d="M25.1214 30.7151L24.8204 31.7784H25.5757L25.878 30.7151H25.7772H25.1214ZM26.5625 30.7365L26.2454 31.8293C26.2023 31.9835 26.0716 32.1626 25.8458 32.1626H24.3931C24.3091 32.1626 24.2471 32.1346 24.2017 32.0786C24.1425 32.0084 24.1265 31.9096 24.1265 31.844C24.1265 31.8248 24.1271 31.8077 24.1309 31.7953L24.418 30.7742L24.4384 30.6974C24.4442 30.679 24.5254 30.3344 24.9321 30.3344L26.317 30.3381C26.4024 30.3381 26.4624 30.3639 26.5061 30.42C26.555 30.4856 26.5704 30.5778 26.5704 30.6495C26.5704 30.6856 26.5676 30.7151 26.5625 30.7365Z" fill="white"/>
</g>
<defs>
<clipPath id="clip0_1_3732">
<rect width="54" height="54" fill="white"/>
</clipPath>
</defs>
</svg>
