<svg width="256" height="256" viewBox="0 0 256 256" fill="none" xmlns="http://www.w3.org/2000/svg">
<g clip-path="url(#clip0_991_601)">
<circle cx="128" cy="128" r="128" fill="#004AA9"/>
<g clip-path="url(#clip1_991_601)">
<mask id="path-2-inside-1_991_601" fill="white">
<path fill-rule="evenodd" clip-rule="evenodd" d="M63.0002 194.308V122.154C63.0002 82.3045 95.0049 50 134.485 50C173.965 50 205.969 82.3045 205.969 122.154C205.969 162.004 173.965 194.308 134.485 194.308H63.0002ZM89.4308 88.3392V167.548H165.781V151.325H109.225V134.147H133.733V119.832H109.225V99.7911C109.225 91.393 101.056 88.6573 96.9716 88.3392H89.4308ZM125.249 88.3392H164.838V99.7911C164.838 105.135 159.811 106.471 157.298 106.471H117.709V95.0195C117.709 89.6753 122.736 88.3392 125.249 88.3392Z"/>
</mask>
<path fill-rule="evenodd" clip-rule="evenodd" d="M63.0002 194.308V122.154C63.0002 82.3045 95.0049 50 134.485 50C173.965 50 205.969 82.3045 205.969 122.154C205.969 162.004 173.965 194.308 134.485 194.308H63.0002ZM89.4308 88.3392V167.548H165.781V151.325H109.225V134.147H133.733V119.832H109.225V99.7911C109.225 91.393 101.056 88.6573 96.9716 88.3392H89.4308ZM125.249 88.3392H164.838V99.7911C164.838 105.135 159.811 106.471 157.298 106.471H117.709V95.0195C117.709 89.6753 122.736 88.3392 125.249 88.3392Z" fill="white"/>
<path d="M63.0002 194.308H55.0315V202.277H63.0002V194.308ZM89.4308 167.548H81.4621V175.517H89.4308V167.548ZM89.4308 88.3392V80.3705H81.4621V88.3392H89.4308ZM165.781 167.548V175.517H173.75V167.548H165.781ZM165.781 151.325H173.75V143.356H165.781V151.325ZM109.225 151.325H101.257V159.293H109.225V151.325ZM109.225 134.147V126.178H101.257V134.147H109.225ZM133.733 134.147V142.115H141.701V134.147H133.733ZM133.733 119.832H141.701V111.863H133.733V119.832ZM109.225 119.832H101.257V127.801H109.225V119.832ZM96.9716 88.3392L97.5903 80.3945L97.2814 80.3705H96.9716V88.3392ZM164.838 88.3392H172.807V80.3705H164.838V88.3392ZM117.709 106.471H109.74V114.44H117.709V106.471ZM55.0315 122.154V194.308H70.969V122.154H55.0315ZM134.485 42.0312C90.534 42.0312 55.0315 77.9737 55.0315 122.154H70.969C70.969 86.6353 99.4759 57.9688 134.485 57.9688V42.0312ZM213.938 122.154C213.938 77.9737 178.435 42.0312 134.485 42.0312V57.9688C169.494 57.9688 198 86.6353 198 122.154H213.938ZM134.485 202.277C178.435 202.277 213.938 166.335 213.938 122.154H198C198 157.673 169.494 186.34 134.485 186.34V202.277ZM63.0002 202.277H134.485V186.34H63.0002V202.277ZM97.3996 167.548V88.3392H81.4621V167.548H97.3996ZM165.781 159.579H89.4308V175.517H165.781V159.579ZM157.812 151.325V167.548H173.75V151.325H157.812ZM109.225 159.293H165.781V143.356H109.225V159.293ZM101.257 134.147V151.325H117.194V134.147H101.257ZM133.733 126.178H109.225V142.115H133.733V126.178ZM125.764 119.832V134.147H141.701V119.832H125.764ZM109.225 127.801H133.733V111.863H109.225V127.801ZM101.257 99.7911V119.832H117.194V99.7911H101.257ZM96.3528 96.2839C97.3364 96.3605 98.9515 96.7932 100.084 97.5797C100.579 97.9239 100.839 98.2355 100.977 98.4768C101.092 98.6757 101.257 99.0454 101.257 99.7911H117.194C117.194 92.5188 113.463 87.4682 109.177 84.4906C105.203 81.7303 100.691 80.636 97.5903 80.3945L96.3528 96.2839ZM89.4308 96.308H96.9716V80.3705H89.4308V96.308ZM164.838 80.3705H125.249V96.308H164.838V80.3705ZM172.807 99.7911V88.3392H156.87V99.7911H172.807ZM157.298 114.44C159.65 114.44 163.13 113.873 166.296 111.854C169.892 109.56 172.807 105.49 172.807 99.7911H156.87C156.87 99.83 156.866 99.759 156.905 99.6087C156.945 99.4555 157.016 99.2708 157.127 99.0794C157.359 98.6822 157.627 98.4793 157.725 98.4169C157.799 98.3698 157.76 98.4086 157.581 98.454C157.399 98.5001 157.27 98.5026 157.298 98.5026V114.44ZM117.709 114.44H157.298V98.5026H117.709V114.44ZM109.74 95.0195V106.471H125.677V95.0195H109.74ZM125.249 80.3705C122.897 80.3705 119.417 80.9373 116.251 82.9568C112.655 85.2503 109.74 89.3205 109.74 95.0195H125.677C125.677 94.9806 125.681 95.0515 125.642 95.2019C125.602 95.3551 125.531 95.5397 125.42 95.7311C125.188 96.1283 124.92 96.3313 124.822 96.3937C124.748 96.4408 124.787 96.402 124.966 96.3566C125.148 96.3105 125.277 96.308 125.249 96.308V80.3705Z" fill="white" mask="url(#path-2-inside-1_991_601)"/>
</g>
<circle cx="218" cy="38" r="24.5" fill="#EF4062" stroke="white" stroke-width="3"/>
</g>
<defs>
<clipPath id="clip0_991_601">
<rect width="256" height="256" fill="white"/>
</clipPath>
<clipPath id="clip1_991_601">
<rect width="143" height="144.5" fill="white" transform="translate(63 50)"/>
</clipPath>
</defs>
</svg>
