<svg width="512" height="512" viewBox="0 0 512 512" fill="none" xmlns="http://www.w3.org/2000/svg">
<g clip-path="url(#clip0_568_5099)">
<rect width="512" height="512" fill="#004AA9"/>
<g clip-path="url(#clip1_568_5099)">
<mask id="path-1-inside-1_568_5099" fill="white">
<path fill-rule="evenodd" clip-rule="evenodd" d="M126 388.617V244.308C126 164.609 190.01 100 268.969 100C347.929 100 411.938 164.609 411.938 244.308C411.938 324.008 347.929 388.617 268.969 388.617H126ZM178.861 176.678V335.096H331.562V302.649H218.45V268.293H267.465V239.664H218.45V199.582C218.45 182.786 202.112 177.315 193.943 176.678H178.861ZM250.499 176.678H329.677V199.582C329.677 210.271 319.622 212.943 314.595 212.943H235.417V190.039C235.417 179.351 245.471 176.678 250.499 176.678Z"/>
</mask>
<path fill-rule="evenodd" clip-rule="evenodd" d="M126 388.617V244.308C126 164.609 190.01 100 268.969 100C347.929 100 411.938 164.609 411.938 244.308C411.938 324.008 347.929 388.617 268.969 388.617H126ZM178.861 176.678V335.096H331.562V302.649H218.45V268.293H267.465V239.664H218.45V199.582C218.45 182.786 202.112 177.315 193.943 176.678H178.861ZM250.499 176.678H329.677V199.582C329.677 210.271 319.622 212.943 314.595 212.943H235.417V190.039C235.417 179.351 245.471 176.678 250.499 176.678Z" fill="white"/>
<path d="M126 388.617H118.032V396.586H126V388.617ZM178.861 335.096H170.893V343.065H178.861V335.096ZM178.861 176.678V168.71H170.893V176.678H178.861ZM331.562 335.096V343.065H339.53V335.096H331.562ZM331.562 302.649H339.53V294.68H331.562V302.649ZM218.45 302.649H210.482V310.618H218.45V302.649ZM218.45 268.293V260.325H210.482V268.293H218.45ZM267.465 268.293V276.262H275.434V268.293H267.465ZM267.465 239.664H275.434V231.695H267.465V239.664ZM218.45 239.664H210.482V247.633H218.45V239.664ZM193.943 176.678L194.562 168.734L194.253 168.71H193.943V176.678ZM329.677 176.678H337.645V168.71H329.677V176.678ZM235.417 212.943H227.448V220.911H235.417V212.943ZM118.032 244.308V388.617H133.969V244.308H118.032ZM268.969 92.0312C185.539 92.0312 118.032 160.278 118.032 244.308H133.969C133.969 168.94 194.481 107.969 268.969 107.969V92.0312ZM419.907 244.308C419.907 160.278 352.4 92.0312 268.969 92.0312V107.969C343.458 107.969 403.97 168.94 403.97 244.308H419.907ZM268.969 396.586C352.4 396.586 419.907 328.339 419.907 244.308H403.97C403.97 319.677 343.458 380.648 268.969 380.648V396.586ZM126 396.586H268.969V380.648H126V396.586ZM186.83 335.096V176.678H170.893V335.096H186.83ZM331.562 327.127H178.861V343.065H331.562V327.127ZM323.593 302.649V335.096H339.53V302.649H323.593ZM218.45 310.618H331.562V294.68H218.45V310.618ZM210.482 268.293V302.649H226.419V268.293H210.482ZM267.465 260.325H218.45V276.262H267.465V260.325ZM259.497 239.664V268.293H275.434V239.664H259.497ZM218.45 247.633H267.465V231.695H218.45V247.633ZM210.482 199.582V239.664H226.419V199.582H210.482ZM193.324 184.623C196.35 184.859 201.029 186.055 204.714 188.615C208.086 190.958 210.482 194.257 210.482 199.582H226.419C226.419 188.111 220.646 180.277 213.807 175.526C207.28 170.992 199.705 169.134 194.562 168.734L193.324 184.623ZM178.861 184.647H193.943V168.71H178.861V184.647ZM329.677 168.71H250.499V184.647H329.677V168.71ZM337.645 199.582V176.678H321.708V199.582H337.645ZM314.595 220.911C318.204 220.911 323.569 220.011 328.306 216.989C333.473 213.694 337.645 207.953 337.645 199.582H321.708C321.708 200.952 321.401 201.721 321.141 202.169C320.861 202.648 320.423 203.114 319.736 203.552C318.189 204.539 316.013 204.974 314.595 204.974V220.911ZM235.417 220.911H314.595V204.974H235.417V220.911ZM227.448 190.039V212.943H243.386V190.039H227.448ZM250.499 168.71C246.889 168.71 241.525 169.611 236.787 172.632C231.621 175.928 227.448 181.668 227.448 190.039H243.386C243.386 188.67 243.692 187.9 243.953 187.452C244.232 186.973 244.67 186.508 245.358 186.069C246.905 185.082 249.081 184.647 250.499 184.647V168.71Z" fill="white" mask="url(#path-1-inside-1_568_5099)"/>
</g>
</g>
<defs>
<clipPath id="clip0_568_5099">
<rect width="512" height="512" fill="white"/>
</clipPath>
<clipPath id="clip1_568_5099">
<rect width="286" height="289" fill="white" transform="translate(126 100)"/>
</clipPath>
</defs>
</svg>
